<svg xmlns="http://www.w3.org/2000/svg" width="61.996" height="69.796" viewBox="0 0 61.996 69.796">
  <g id="calendar" transform="translate(-28.607 0.002)">
    <path id="Path_62449" data-name="Path 62449" d="M29.629,54.723a1.022,1.022,0,0,0-1.022,1.022V67.114a2.683,2.683,0,0,0,2.68,2.68H87.923A2.684,2.684,0,0,0,90.6,67.113V6.546a2.684,2.684,0,0,0-2.681-2.681h-3.21V2.673A2.678,2.678,0,0,0,82.039,0h-.931a2.678,2.678,0,0,0-2.675,2.674V3.866h-4.7V2.673A2.677,2.677,0,0,0,71.055,0h-.932a2.677,2.677,0,0,0-2.674,2.674V3.866h-4.7V2.673A2.678,2.678,0,0,0,60.071,0h-.932a2.677,2.677,0,0,0-2.674,2.674V3.865h-4.7V2.673A2.678,2.678,0,0,0,49.087,0h-.932a2.678,2.678,0,0,0-2.674,2.675V3.866h-4.7V2.673A2.678,2.678,0,0,0,38.1,0h-.931A2.678,2.678,0,0,0,34.5,2.673V3.865h-3.21a2.684,2.684,0,0,0-2.681,2.681V50.974a1.022,1.022,0,1,0,2.045,0V15.6h2.092a1.022,1.022,0,1,0,0-2.045H30.652V6.546a.637.637,0,0,1,.636-.636H34.5V8.495a2.678,2.678,0,0,0,2.675,2.674H38.1a2.678,2.678,0,0,0,2.675-2.674V5.91h4.7V8.495a2.677,2.677,0,0,0,2.674,2.674h.932a2.677,2.677,0,0,0,2.674-2.674V5.91h4.7V8.495a2.677,2.677,0,0,0,2.674,2.674h.932a2.677,2.677,0,0,0,2.674-2.674V5.91h4.7V8.495a2.677,2.677,0,0,0,2.674,2.674h.932a2.677,2.677,0,0,0,2.674-2.674V5.91h4.7V8.495a2.678,2.678,0,0,0,2.675,2.674h.931a2.678,2.678,0,0,0,2.675-2.674V5.91h3.21a.637.637,0,0,1,.636.636v7.006H37.515a1.022,1.022,0,0,0,0,2.045H88.559V67.114a.637.637,0,0,1-.636.636H31.287a.636.636,0,0,1-.636-.636V55.746A1.023,1.023,0,0,0,29.629,54.723Zm9.1-46.229a.63.63,0,0,1-.63.63h-.931a.63.63,0,0,1-.63-.63V2.673a.63.63,0,0,1,.63-.63H38.1a.63.63,0,0,1,.63.63Zm10.984,0a.63.63,0,0,1-.63.63h-.932a.63.63,0,0,1-.63-.63V2.673a.63.63,0,0,1,.63-.63h.932a.63.63,0,0,1,.63.63Zm10.984,0a.63.63,0,0,1-.63.63h-.932a.63.63,0,0,1-.63-.63V2.673a.63.63,0,0,1,.63-.63h.932a.63.63,0,0,1,.63.63Zm10.984,0a.63.63,0,0,1-.63.63h-.932a.63.63,0,0,1-.63-.63V2.673a.63.63,0,0,1,.63-.63h.932a.63.63,0,0,1,.63.63Zm10.984,0a.63.63,0,0,1-.63.63h-.931a.63.63,0,0,1-.63-.63V2.673a.63.63,0,0,1,.63-.63h.931a.63.63,0,0,1,.63.63Z" fill="#fff"/>
    <path id="Path_62450" data-name="Path 62450" d="M140.575,193.819a1.023,1.023,0,0,0,1.405-.342,16.184,16.184,0,0,0,2.654-8.344,11.383,11.383,0,0,0-20.872-6.285,11.383,11.383,0,0,0-20.872,6.285c0,5.036,3.167,10.52,9.415,16.3a72.264,72.264,0,0,0,10.746,8.1,1.371,1.371,0,0,0,1.423,0,66.064,66.064,0,0,0,14.547-12.023,1.022,1.022,0,1,0-1.554-1.33,63.455,63.455,0,0,1-13.705,11.39c-7.3-4.532-18.828-13.82-18.828-22.437a9.338,9.338,0,0,1,17.609-4.333,1.375,1.375,0,0,0,2.437,0,9.338,9.338,0,0,1,17.609,4.333,14.2,14.2,0,0,1-2.356,7.281,1.022,1.022,0,0,0,.341,1.4Z" transform="translate(-64.157 -150.068)" fill="#fff"/>
  </g>
</svg>
