<svg width="88" height="68" viewBox="0 0 88 68" fill="none" xmlns="http://www.w3.org/2000/svg">
<g clip-path="url(#clip0_206_23)">
<path d="M51.1503 66.9273C50.6292 65.9236 49.8947 65.0454 49.3611 64.0542C48.8275 63.0631 48.3567 61.8148 47.8796 60.6793C47.0004 58.5378 46.0093 56.4439 44.9103 54.4063C43.7589 52.3825 42.4798 50.4339 41.0809 48.5723C39.7417 46.7406 38.3271 44.9695 36.8372 43.2591C35.4815 41.5709 33.9541 40.0278 32.2797 38.6546C31.9783 38.4288 31.6896 38.9306 31.9846 39.1565C33.4394 40.3478 34.7707 41.6823 35.9583 43.1399C37.465 44.8336 38.8942 46.5921 40.246 48.4155C41.6565 50.2658 42.9541 52.1993 44.1318 54.2056C45.2407 56.1959 46.2383 58.2461 47.12 60.3469C47.6348 61.545 48.1056 62.762 48.6706 63.9351C48.9437 64.527 49.2649 65.0956 49.6311 65.6351C50.0032 66.1334 50.3429 66.6551 50.648 67.1971C50.8238 67.5233 51.3197 67.2347 51.1503 66.9022V66.9273Z" fill="#393939"/>
<path d="M24.533 33.103C26.3661 34.5709 28.1741 36.0639 30.0385 37.4941C30.3336 37.7199 30.6286 37.2181 30.3336 36.9923C28.5068 35.5934 26.7365 34.1318 24.9473 32.6952C24.6586 32.4631 24.2442 32.8709 24.533 33.103Z" fill="#393939"/>
<path d="M7.59595 20.7764C9.74291 21.9181 11.8961 23.0535 13.9301 24.3959C15.9393 25.8164 17.8481 27.3738 19.6428 29.0568C20.6597 29.9601 21.6955 30.8447 22.7816 31.6601C23.0766 31.8797 23.3717 31.3778 23.0703 31.1583C21.0866 29.6841 19.3038 27.9465 17.4205 26.3406C15.5851 24.7956 13.6072 23.4282 11.5132 22.2568C10.3142 21.5731 9.09003 20.9269 7.87217 20.2745C7.53945 20.0989 7.2444 20.6007 7.57712 20.7764H7.59595Z" fill="#393939"/>
<path d="M10.8729 22.0373C10.4215 21.3337 10.0906 20.5599 9.89358 19.7476C9.7879 18.9768 9.81763 18.1935 9.98146 17.4329C10.1823 16.1093 10.4209 14.5347 11.3186 13.4809H10.9106C11.3194 13.952 11.5755 14.5361 11.645 15.1558C11.7744 15.7876 11.8666 16.4265 11.9212 17.0691C12.0583 17.9275 12.0047 18.8056 11.7643 19.641C11.3986 20.4896 10.8623 21.2539 10.1886 21.8868C9.93752 22.1628 10.3518 22.5705 10.603 22.2945C11.2882 21.6332 11.8475 20.8532 12.254 19.9923C12.5723 19.0524 12.6585 18.0494 12.5051 17.0691C12.4419 16.3398 12.335 15.615 12.1849 14.8986C12.0838 14.2177 11.7822 13.5822 11.3186 13.0731C11.2645 13.0191 11.1911 12.9888 11.1146 12.9888C11.0381 12.9888 10.9647 13.0191 10.9106 13.0731C9.91241 14.2462 9.65502 15.9085 9.41019 17.3827C9.24846 18.1688 9.21454 18.9758 9.30974 19.7727C9.50702 20.6825 9.86638 21.5494 10.3707 22.3321C10.4098 22.3987 10.4738 22.447 10.5485 22.4664C10.6233 22.4858 10.7027 22.4748 10.7693 22.4357C10.8359 22.3966 10.8842 22.3326 10.9037 22.2579C10.9231 22.1832 10.912 22.1039 10.8729 22.0373Z" fill="#393939"/>
<path d="M14.7901 23.9819C14.5167 22.8956 14.3921 21.7771 14.4197 20.6572C14.4404 20.103 14.5055 19.5513 14.6143 19.0074C14.7085 18.493 14.6144 17.9473 14.7587 17.4391L14.2753 17.5709C14.7011 18.0966 14.9959 18.7158 15.1354 19.3775C15.4383 20.1362 15.6286 20.9351 15.7004 21.7487C15.7183 22.2419 15.6328 22.7334 15.4493 23.1916C15.3426 23.4864 15.0977 24.2015 14.696 24.1764C14.2942 24.1513 14.3256 24.7347 14.696 24.7535C15.2609 24.7912 15.6188 24.2266 15.8259 23.7812C16.0866 23.2581 16.2422 22.6891 16.2842 22.1063C16.2757 21.1361 16.084 20.1763 15.7192 19.2771C15.5475 18.4982 15.1924 17.7713 14.6834 17.1568C14.6474 17.121 14.6026 17.0952 14.5534 17.0822C14.5043 17.0692 14.4526 17.0694 14.4035 17.0828C14.3545 17.0962 14.3098 17.1222 14.2741 17.1584C14.2384 17.1945 14.2128 17.2394 14.2 17.2886C14.0619 17.8406 14.131 18.424 14.0242 18.9886C13.9209 19.5395 13.858 20.0972 13.8359 20.6572C13.8104 21.8302 13.9435 23.0013 14.2314 24.1388C14.3193 24.5026 14.8592 24.3458 14.7901 23.9819Z" fill="#393939"/>
<path d="M14.4511 24.3207C12.9595 24.8401 11.5794 25.636 10.3832 26.6668C9.32231 27.52 8.12956 28.5488 7.77173 29.9351C7.75873 29.9843 7.75898 30.0361 7.77248 30.0852C7.78597 30.1343 7.81224 30.1789 7.84857 30.2146C7.88491 30.2502 7.93003 30.2757 7.97938 30.2883C8.02873 30.3009 8.08055 30.3003 8.12956 30.2864C9.03818 30.1144 9.9148 29.8034 10.7285 29.3643C11.5132 28.9816 12.3167 28.624 13.0638 28.1661C13.7992 27.758 14.4408 27.2002 14.9471 26.5288C15.1243 26.2469 15.2183 25.9208 15.2183 25.5879C15.2183 25.255 15.1243 24.9288 14.9471 24.6469C14.7964 24.3082 14.3193 24.603 14.4449 24.9355C14.5928 25.1942 14.6585 25.4917 14.6332 25.7886C14.5283 26.1219 14.3327 26.4195 14.0682 26.648C13.5563 27.164 12.9676 27.5978 12.323 27.934C11.6953 28.2853 10.9922 28.5989 10.3267 28.9189C9.58784 29.3081 8.79409 29.5831 7.97262 29.7344L8.33043 30.0919C8.66314 28.8373 9.81196 27.865 10.7913 27.0809C11.9128 26.1172 13.2054 25.3725 14.6018 24.8853C14.9596 24.7786 14.809 24.2141 14.4511 24.327V24.3207Z" fill="#393939"/>
<path d="M10.1321 21.5542C8.70389 21.6339 7.29815 21.9454 5.97004 22.4763C4.99701 22.8402 3.65359 23.1852 3.13882 24.1826C3.10901 24.2386 3.09724 24.3023 3.1051 24.3652C3.11297 24.4281 3.1401 24.487 3.18277 24.5339C3.44028 24.6917 3.72685 24.7964 4.02552 24.8416C4.3242 24.8869 4.62891 24.8718 4.92167 24.7974C5.63104 24.7033 6.34042 24.5841 7.0498 24.49C7.88827 24.4411 8.70051 24.1799 9.41018 23.731C9.87533 23.2495 10.2667 22.7021 10.5715 22.1062C10.785 21.8051 10.2828 21.4789 10.0693 21.8177C9.81071 22.3188 9.49471 22.7883 9.1277 23.2166C8.50257 23.6391 7.77241 23.8802 7.0184 23.9129C6.39063 23.9944 5.80682 24.0697 5.20417 24.1763C4.77101 24.2453 3.98003 24.4335 3.59709 24.1199L3.64102 24.4712C3.89864 24.06 4.28812 23.7482 4.7459 23.5867C5.26694 23.342 5.81938 23.1476 6.35925 22.9594C7.56416 22.4907 8.83508 22.2134 10.1258 22.1376C10.2024 22.1376 10.2759 22.1072 10.33 22.0531C10.3842 21.999 10.4146 21.9256 10.4146 21.849C10.4146 21.7725 10.3842 21.6991 10.33 21.645C10.2759 21.5909 10.2024 21.5605 10.1258 21.5605L10.1321 21.5542Z" fill="#393939"/>
<path d="M7.7529 20.2181C6.28272 19.835 4.85472 19.3054 3.49037 18.6373C2.17728 17.8558 1.14302 16.6818 0.533609 15.2812L0.433165 15.6764C0.991875 15.3314 1.87702 15.7956 2.39179 16.0591C3.11623 16.4457 3.7803 16.936 4.36298 17.5144C4.97165 18.101 5.53804 18.7299 6.05793 19.3963C6.41565 20.0026 6.95314 20.4826 7.59596 20.7702C7.95378 20.8831 8.11073 20.3185 7.7529 20.2119C7.03097 19.9923 6.56014 19.089 6.12071 18.5307C5.52653 17.7906 4.85757 17.1137 4.12442 16.5107C3.53474 16.0163 2.87462 15.6125 2.1658 15.3126C1.53804 15.0491 0.759602 14.7919 0.138115 15.1683C0.0732927 15.2098 0.0263721 15.274 0.00661534 15.3483C-0.0131414 15.4226 -0.00430751 15.5016 0.0313864 15.5698C0.673536 17.0182 1.73934 18.2385 3.08861 19.0702C4.48225 19.8982 6.07677 20.262 7.59596 20.7702C7.95378 20.8893 8.10445 20.331 7.7529 20.2119V20.2181Z" fill="#393939"/>
<path d="M22.1538 21.1465C21.412 19.7874 20.9469 18.295 20.7853 16.7553C20.7801 15.9862 20.841 15.2181 20.9673 14.4594C21.0269 13.6229 21.2198 12.8012 21.5386 12.0254H21.0364C21.9284 13.2656 22.4012 14.7577 22.3861 16.2848C22.3494 17.1107 22.2655 17.9338 22.135 18.7502C22.1026 19.1417 21.9938 19.5232 21.8148 19.873C21.6346 20.1174 21.5318 20.4102 21.5198 20.7136C21.5198 20.7902 21.5502 20.8635 21.6044 20.9177C21.6585 20.9718 21.732 21.0022 21.8085 21.0022C21.8851 21.0022 21.9586 20.9718 22.0127 20.9177C22.0669 20.8635 22.0973 20.7902 22.0973 20.7136C22.0973 20.3749 22.3798 20.1177 22.4928 19.8103C22.6161 19.4252 22.6961 19.0275 22.7314 18.6247C22.8671 17.7672 22.9468 16.9018 22.9699 16.0339C22.933 14.4889 22.4346 12.9903 21.5386 11.7306C21.5122 11.6878 21.4752 11.6525 21.4313 11.6279C21.3873 11.6034 21.3378 11.5906 21.2875 11.5906C21.2372 11.5906 21.1877 11.6034 21.1437 11.6279C21.0998 11.6525 21.0628 11.6878 21.0364 11.7306C20.702 12.4935 20.4901 13.3043 20.4086 14.1332C20.2542 14.9985 20.1807 15.8764 20.1889 16.7553C20.3522 18.398 20.8431 19.9914 21.6328 21.4413C21.796 21.78 22.2919 21.4852 22.135 21.1465H22.1538Z" fill="#393939"/>
<path d="M21.4884 21.1277C22.0985 22.2172 22.6293 23.3493 23.0766 24.5151C23.5537 25.7007 24.0622 26.8801 24.4891 28.0845C24.9078 29.2982 25.2249 30.5445 25.437 31.8107C25.5939 32.6513 25.6755 33.9623 26.3975 34.552C26.68 34.7904 27.0943 34.3826 26.8055 34.1443C26.5088 33.825 26.318 33.4218 26.2594 32.99C26.115 32.3627 26.0208 31.7354 25.9016 31.1395C25.6739 29.9058 25.3378 28.6946 24.8971 27.5199C24.4702 26.3657 23.9869 25.2365 23.5286 24.1011C23.0954 22.9761 22.5813 21.8838 21.9906 20.8328C21.9514 20.7663 21.8875 20.718 21.8127 20.6986C21.738 20.6792 21.6585 20.6902 21.5919 20.7293C21.5253 20.7684 21.477 20.8323 21.4576 20.907C21.4382 20.9817 21.4492 21.0611 21.4884 21.1277Z" fill="#393939"/>
<path d="M24.0496 25.3118C23.1494 24.7908 22.3183 24.1585 21.5762 23.4299C21.223 23.0847 20.9035 22.7066 20.6221 22.3008C20.3052 21.9145 20.0645 21.4718 19.9127 20.996L19.4858 21.3222C19.9867 21.5488 20.457 21.8376 20.8857 22.1816C21.3151 22.4761 21.709 22.8193 22.0596 23.2041C22.3753 23.6059 22.6687 24.0248 22.9385 24.4587C23.0766 24.672 23.2022 24.8978 23.3465 25.1174C23.4926 25.3228 23.6069 25.5491 23.6855 25.7886C23.7127 25.8558 23.7636 25.9107 23.8287 25.9428C23.8937 25.9748 23.9683 25.9818 24.0381 25.9624C24.108 25.943 24.1683 25.8986 24.2075 25.8376C24.2467 25.7766 24.262 25.7033 24.2505 25.6318C24.0628 25.1316 23.8049 24.6606 23.4847 24.2329C23.1907 23.7457 22.8678 23.2765 22.5179 22.8277C21.7268 22.0007 20.8014 21.3136 19.7809 20.7952C19.7309 20.7685 19.6743 20.7567 19.6178 20.7612C19.5613 20.7658 19.5073 20.7865 19.4622 20.8209C19.4172 20.8553 19.383 20.9019 19.3638 20.9552C19.3446 21.0085 19.3412 21.0662 19.354 21.1214C19.5079 21.6237 19.7526 22.0936 20.0759 22.5078C20.384 22.9535 20.7283 23.3732 21.1054 23.7624C21.9004 24.5447 22.7929 25.2215 23.7609 25.7761C23.7939 25.795 23.8302 25.8073 23.8679 25.8122C23.9057 25.8171 23.944 25.8145 23.9807 25.8046C24.0174 25.7947 24.0519 25.7776 24.082 25.7544C24.1121 25.7313 24.1374 25.7024 24.1564 25.6694C24.1753 25.6365 24.1876 25.6001 24.1925 25.5624C24.1974 25.5247 24.1948 25.4864 24.1849 25.4497C24.175 25.413 24.158 25.3786 24.1347 25.3485C24.1115 25.3184 24.0826 25.2931 24.0496 25.2742V25.3118Z" fill="#393939"/>
<path d="M24.3572 26.8863C24.6523 26.9302 24.9034 26.6479 25.1169 26.4911C25.437 26.2527 25.8074 26.0833 26.1338 25.8638C26.7819 25.4192 27.3347 24.8497 27.7597 24.1889C27.9543 23.869 27.4521 23.5616 27.2575 23.8941C26.889 24.4723 26.4089 24.9713 25.8451 25.3619C25.5375 25.5752 25.2173 25.7509 24.8908 25.9516C24.7768 26.0282 24.6678 26.112 24.5644 26.2025L24.4389 26.2904C24.4389 26.2904 24.3635 26.3217 24.3949 26.2904C24.4263 26.259 24.3949 26.2904 24.3572 26.2904C24.2801 26.2904 24.206 26.3205 24.1508 26.3745C24.0957 26.4284 24.0638 26.5018 24.0622 26.5789C24.0638 26.656 24.0957 26.7294 24.1508 26.7834C24.206 26.8373 24.2801 26.8675 24.3572 26.8675V26.8863Z" fill="#393939"/>
<path d="M24.6523 26.604C24.6243 26.4989 24.6177 26.3892 24.6328 26.2815C24.6479 26.1737 24.6844 26.0701 24.7402 25.9767C24.8595 25.7132 24.9913 25.4623 25.1169 25.2114C25.4064 24.6511 25.7357 24.1123 26.1024 23.5992C26.1393 23.5323 26.1488 23.4538 26.1289 23.3801C26.109 23.3064 26.0613 23.2432 25.9957 23.204C25.9296 23.1666 25.8515 23.1561 25.7778 23.1748C25.7041 23.1935 25.6405 23.2399 25.6002 23.3044C25.198 23.8669 24.8411 24.4606 24.533 25.0796C24.2945 25.5627 23.8676 26.1963 24.0936 26.7546C24.1156 26.8282 24.1649 26.8906 24.2314 26.929C24.2979 26.9675 24.3766 26.9792 24.4514 26.9616C24.4882 26.9514 24.5226 26.9341 24.5527 26.9106C24.5827 26.8871 24.6078 26.8579 24.6265 26.8246C24.6452 26.7914 24.6571 26.7548 24.6615 26.7169C24.6659 26.679 24.6628 26.6407 24.6523 26.604Z" fill="#393939"/>
<path d="M10.1384 15.1808C8.39948 13.9575 7.42017 11.9439 6.4283 10.131C5.8382 9.04573 5.23555 7.96676 4.68312 6.85643C4.41318 6.31694 4.17463 5.75236 3.88586 5.21915C3.56208 4.78474 3.34686 4.27934 3.2581 3.74499C3.2478 3.67498 3.21264 3.61101 3.15905 3.56475C3.10546 3.5185 3.037 3.49304 2.96619 3.49304C2.89538 3.49304 2.82692 3.5185 2.77333 3.56475C2.71974 3.61101 2.68458 3.67498 2.67428 3.74499C2.72328 4.26606 2.89774 4.76754 3.18277 5.20661C3.4841 5.75237 3.74147 6.32322 4.01769 6.88153C4.60779 8.08595 5.27322 9.25274 5.90098 10.4258C6.94307 12.3077 7.97889 14.3904 9.81196 15.6826C10.1196 15.8959 10.4397 15.3941 10.107 15.1808H10.1384Z" fill="#393939"/>
<path d="M2.86889 3.87674C3.71262 4.46872 4.39984 5.25662 4.87146 6.17269C5.39482 7.05635 5.60076 8.092 5.45527 9.10848C5.37994 9.47231 5.93864 9.62914 6.01397 9.2653C6.46596 7.03837 4.96562 4.58559 3.16394 3.37489C2.85633 3.16788 2.53617 3.66973 2.86889 3.87674Z" fill="#393939"/>
<path d="M7.57712 12.1948C7.84516 10.1555 8.61756 8.21512 9.82451 6.54904H9.32231C10.0317 7.63428 9.46669 9.2088 8.98331 10.2752C8.79761 10.6906 8.588 11.0948 8.35554 11.4859C8.22371 11.6929 8.09188 11.9062 7.94122 12.1132C7.87469 12.2102 7.79902 12.3005 7.71523 12.383C7.71523 12.383 7.6399 12.4394 7.6399 12.452C7.6399 12.4645 7.63989 12.452 7.70266 12.452C7.36367 12.314 7.21301 12.8723 7.55201 13.0166C8.004 13.1985 8.44972 12.3893 8.63805 12.1258C8.95263 11.658 9.23171 11.1673 9.47296 10.6579C10.0631 9.40328 10.6971 7.57154 9.84963 6.26675C9.8232 6.22394 9.78626 6.18861 9.7423 6.1641C9.69835 6.13959 9.64886 6.12671 9.59853 6.12671C9.54819 6.12671 9.4987 6.13959 9.45475 6.1641C9.41079 6.18861 9.37385 6.22394 9.34742 6.26675C8.11245 7.97452 7.32082 9.96182 7.04352 12.0505C6.98702 12.4206 7.54574 12.5774 7.60224 12.2073L7.57712 12.1948Z" fill="#393939"/>
<path d="M7.3574 11.8373C6.59583 11.6765 5.81935 11.5966 5.04095 11.599C4.2692 11.5767 3.50576 11.7631 2.83123 12.1384C2.7935 12.1609 2.7614 12.1917 2.73737 12.2284C2.71335 12.2652 2.69803 12.3069 2.69258 12.3505C2.68713 12.394 2.6917 12.4383 2.70594 12.4798C2.72017 12.5213 2.74371 12.559 2.77473 12.5901C3.05086 12.8361 3.39831 12.9878 3.76659 13.0229C4.19347 13.0982 4.62034 13.186 5.0535 13.255C5.94289 13.4688 6.87477 13.4253 7.74033 13.1296C8.0856 12.979 7.79056 12.5023 7.45156 12.6277C7.11219 12.76 6.74779 12.8157 6.38438 12.7908C5.96352 12.7868 5.54366 12.7491 5.12885 12.6779L4.02398 12.4772C3.7238 12.4674 3.43413 12.3643 3.19532 12.1823L3.13883 12.6403C3.74484 12.3064 4.4312 12.1458 5.12256 12.1761C5.82511 12.1767 6.52568 12.2503 7.21301 12.3956C7.57711 12.4709 7.73406 11.9126 7.36995 11.8373H7.3574Z" fill="#393939"/>
<path d="M20.8229 17.8093C18.6509 16.5547 17.6213 14.2838 16.1398 12.3894C15.399 11.4358 14.2942 10.8274 13.6288 9.81739C13.1851 8.96674 12.9505 8.02274 12.9445 7.06351C12.9131 6.6934 12.3167 6.68713 12.3607 7.06351C12.3785 8.037 12.592 8.99698 12.9884 9.88639C13.6162 11.0155 14.765 11.6429 15.5748 12.6026C16.3846 13.5624 17.025 14.7668 17.8159 15.7956C18.5488 16.7996 19.4699 17.6518 20.5279 18.3048C20.5609 18.3242 20.5973 18.3369 20.6352 18.3422C20.6731 18.3474 20.7116 18.3452 20.7486 18.3356C20.7857 18.326 20.8204 18.3092 20.851 18.2861C20.8815 18.2631 20.9071 18.2343 20.9265 18.2013C20.9459 18.1684 20.9586 18.1319 20.9639 18.0941C20.9691 18.0562 20.9669 18.0177 20.9573 17.9807C20.9477 17.9438 20.9308 17.909 20.9078 17.8785C20.8847 17.848 20.8559 17.8223 20.8229 17.803V17.8093Z" fill="#393939"/>
<path d="M12.5113 7.18899C13.4239 7.72455 14.1862 8.48197 14.7273 9.39084C15.3277 10.2664 15.6172 11.3176 15.5497 12.3768C15.5058 12.7469 16.0896 12.7406 16.1273 12.3768C16.1992 11.2141 15.8835 10.0604 15.2296 9.09601C14.6393 8.10026 13.8027 7.2729 12.8001 6.69341C12.4737 6.5115 12.1723 7.01335 12.5113 7.18899Z" fill="#393939"/>
<path d="M17.9854 15.0052C18.0796 13.1232 17.7343 11.0657 18.7701 9.40331L18.3182 9.46605C18.6839 9.98764 18.9408 10.5775 19.0735 11.2004C19.2061 11.8234 19.2119 12.4667 19.0903 13.0919C18.9893 13.5214 18.8506 13.9412 18.676 14.3465C18.5944 14.566 18.5128 14.7981 18.4123 15.0114C18.3714 15.1018 18.3253 15.1898 18.2742 15.2749L18.2114 15.369C18.2114 15.4568 18.0608 15.2937 18.3307 15.369C17.9729 15.2561 17.816 15.8207 18.1738 15.9273C18.676 16.0841 18.9397 15.2498 19.0715 14.9236C19.2979 14.4325 19.4807 13.9224 19.6176 13.3993C19.7902 12.6522 19.8 11.8767 19.6462 11.1255C19.4923 10.3744 19.1786 9.66504 18.7262 9.04574C18.6947 9.01502 18.6566 8.9919 18.6147 8.97817C18.5729 8.96443 18.5284 8.96044 18.4848 8.96649C18.4412 8.97254 18.3996 8.98847 18.3631 9.01309C18.3266 9.0377 18.2962 9.07033 18.2742 9.10848C17.1694 10.8649 17.5083 13.0292 17.4016 14.9989C17.4016 15.3753 17.9603 15.3753 17.9854 14.9989V15.0052Z" fill="#393939"/>
<path d="M17.1129 14.0329C16.4679 13.9048 15.8118 13.8417 15.1542 13.8447C14.3765 13.9205 13.6564 14.2882 13.1391 14.8735C13.0865 14.9284 13.0572 15.0014 13.0572 15.0774C13.0572 15.1533 13.0865 15.2264 13.1391 15.2812C13.5124 15.6287 13.9356 15.9183 14.3946 16.1407C14.7549 16.279 15.1522 16.2879 15.5183 16.1657C15.9702 16.0421 16.4128 15.887 16.8429 15.7015C17.1832 15.5707 17.5145 15.4178 17.8348 15.2436C17.9014 15.2045 17.9497 15.1406 17.9691 15.0659C17.9886 14.9912 17.9775 14.9118 17.9384 14.8453C17.8992 14.7787 17.8353 14.7304 17.7605 14.711C17.6858 14.6916 17.6063 14.7027 17.5397 14.7418C16.8955 15.0988 16.2105 15.3768 15.4995 15.5698C15.2377 15.682 14.9455 15.7019 14.6709 15.6263C14.2558 15.4363 13.8759 15.1775 13.5471 14.861V15.2687C13.7685 15.0126 14.0395 14.8038 14.3438 14.655C14.648 14.5063 14.9792 14.4205 15.3174 14.403C15.9179 14.4261 16.5159 14.4932 17.1066 14.6038C17.1837 14.6021 17.2572 14.5703 17.3112 14.5152C17.3651 14.4601 17.3954 14.386 17.3953 14.3089C17.3937 14.2329 17.3628 14.1604 17.309 14.1067C17.2552 14.0529 17.1827 14.022 17.1066 14.0204L17.1129 14.0329Z" fill="#393939"/>
<path d="M31.4949 23.5554C31.1706 23.9872 30.8889 24.4494 30.6537 24.9355C30.6165 25.0033 30.6068 25.0828 30.6267 25.1575C30.6466 25.2323 30.6945 25.2965 30.7605 25.3369C30.8274 25.3738 30.906 25.3833 30.9797 25.3634C31.0535 25.3435 31.1167 25.2958 31.156 25.2303C31.2878 24.9731 31.4196 24.7222 31.5703 24.4775C31.6331 24.3772 31.6958 24.2705 31.7649 24.1702L31.8528 24.0322L31.8967 23.982C31.8967 23.982 31.9344 23.9318 31.8967 23.982C31.859 24.0321 31.8967 23.982 31.8967 23.982C31.9488 23.9256 31.9779 23.8517 31.9783 23.775C31.9783 23.7175 31.9611 23.6615 31.9289 23.6139C31.8968 23.5663 31.8512 23.5294 31.798 23.5078C31.7447 23.4863 31.6862 23.4811 31.63 23.4929C31.5738 23.5047 31.5224 23.533 31.4824 23.5742L31.4949 23.5554Z" fill="#393939"/>
<path d="M31.5514 27.5827C31.3295 28.3509 30.8942 29.0404 30.2959 29.5713C30.2433 29.6261 30.214 29.6992 30.214 29.7751C30.214 29.8511 30.2433 29.9241 30.2959 29.979C30.3519 30.032 30.426 30.0615 30.5031 30.0615C30.5801 30.0615 30.6543 30.032 30.7102 29.979C31.3852 29.3799 31.8752 28.6009 32.1227 27.7333C32.1332 27.6966 32.1363 27.6582 32.1319 27.6204C32.1274 27.5825 32.1156 27.5459 32.0969 27.5126C32.0782 27.4794 32.0531 27.4502 32.0231 27.4267C31.993 27.4032 31.9586 27.3858 31.9218 27.3757C31.847 27.3581 31.7683 27.3697 31.7018 27.4082C31.6353 27.4467 31.586 27.5091 31.564 27.5827H31.5514Z" fill="#393939"/>
<path d="M32.3801 25.8011V25.9454C32.3926 25.8349 32.3926 25.7234 32.3801 25.6129C32.3801 25.5126 32.3801 25.4185 32.3801 25.3181C32.3801 25.1174 32.3612 24.9083 32.3236 24.6908C32.2765 24.3107 32.1903 23.9365 32.0662 23.5742C32.0563 23.5375 32.0393 23.5032 32.0161 23.4731C31.9929 23.443 31.964 23.4178 31.9311 23.3989C31.8982 23.3799 31.8618 23.3677 31.8242 23.3628C31.7865 23.3579 31.7482 23.3604 31.7115 23.3703C31.6748 23.3802 31.6405 23.3972 31.6104 23.4204C31.5802 23.4435 31.555 23.4724 31.536 23.5053C31.5171 23.5382 31.5048 23.5745 31.4999 23.6122C31.495 23.6498 31.4976 23.6881 31.5075 23.7247C31.623 24.063 31.705 24.4118 31.7523 24.7661C31.7523 24.9543 31.79 25.1487 31.8025 25.3369C31.8025 25.431 31.8025 25.5314 31.8025 25.6255V25.7949C31.8025 25.6945 31.8025 25.9203 31.8025 25.9266C31.8245 25.9999 31.874 26.0618 31.9408 26.0993C32.0076 26.1368 32.0863 26.1468 32.1604 26.1273C32.1969 26.1179 32.2312 26.1013 32.2612 26.0784C32.2912 26.0555 32.3163 26.0268 32.335 25.9941C32.3537 25.9613 32.3657 25.9252 32.3702 25.8877C32.3747 25.8503 32.3717 25.8123 32.3612 25.776L32.3801 25.8011Z" fill="#393939"/>
<path d="M33.0078 31.1646C33.7592 30.7178 34.5653 30.3699 35.4059 30.1295L35.0418 29.8535C34.9414 31.0077 33.7549 31.8358 32.8446 32.3627C32.8014 32.3891 32.7655 32.4258 32.7403 32.4697C32.715 32.5136 32.7013 32.5631 32.7002 32.6136C32.7641 34.8721 32.6928 37.1323 32.4868 39.3823L32.9827 39.1815C32.5307 38.755 32.1039 38.4037 31.633 38.0147L30.9613 37.4941C30.6726 37.2683 30.4466 37.1491 30.3336 36.7852C30.0742 35.5146 30.0465 34.2077 30.252 32.9273L29.756 33.1343L29.8313 33.2221C29.8863 33.2747 29.9594 33.304 30.0354 33.304C30.1114 33.304 30.1845 33.2747 30.2394 33.2221C31.0662 32.4295 31.9851 31.7387 32.9765 31.1646C33.043 31.1255 33.0914 31.0615 33.1108 30.9868C33.1302 30.9121 33.1192 30.8328 33.08 30.7662C33.0409 30.6997 32.9769 30.6514 32.9022 30.632C32.8274 30.6126 32.748 30.6236 32.6814 30.6627C31.6496 31.2648 30.6929 31.9871 29.8313 32.8144H30.2394L30.1641 32.7266C29.982 32.5133 29.6995 32.7266 29.6681 32.9273C29.4553 34.2824 29.4978 35.6653 29.7937 37.0048C29.8246 37.1534 29.8857 37.294 29.9731 37.4181C30.0606 37.5422 30.1726 37.6471 30.3022 37.7262L31.0932 38.3535C31.6079 38.7738 32.0788 39.1627 32.5559 39.6081C32.5974 39.6467 32.6491 39.6725 32.7049 39.6825C32.7608 39.6925 32.8183 39.6862 32.8706 39.6643C32.9229 39.6425 32.9678 39.6061 33 39.5594C33.0321 39.5127 33.0501 39.4577 33.0518 39.4011C33.2578 37.1512 33.3291 34.8909 33.2652 32.6325L33.1208 32.8771C34.232 32.2059 35.4812 31.2398 35.6005 29.8472C35.6011 29.8026 35.5913 29.7584 35.5719 29.7182C35.5525 29.678 35.5241 29.6429 35.4888 29.6155C35.4535 29.5881 35.4123 29.5693 35.3685 29.5606C35.3247 29.5518 35.2795 29.5533 35.2364 29.5649C34.3453 29.8175 33.4907 30.1844 32.6939 30.6565C32.6274 30.6956 32.579 30.7595 32.5596 30.8342C32.5402 30.9089 32.5513 30.9882 32.5904 31.0548C32.6295 31.1213 32.6935 31.1696 32.7682 31.189C32.843 31.2084 32.9224 31.1974 32.989 31.1583L33.0078 31.1646Z" fill="#393939"/>
<path d="M29.6807 33.8369C29.8062 34.0878 30.139 34.0627 30.3712 34.0251C30.6565 33.9694 30.936 33.8874 31.2062 33.7804C31.876 33.5392 32.523 33.239 33.1397 32.8834C33.2021 32.8427 33.2464 32.7795 33.2633 32.7069C33.2802 32.6344 33.2684 32.5581 33.2302 32.494C33.1921 32.43 33.1307 32.3832 33.0588 32.3634C32.9869 32.3436 32.9102 32.3523 32.8446 32.3878C32.312 32.6992 31.7533 32.9637 31.1748 33.1782C30.9299 33.266 30.6788 33.3539 30.4277 33.4166L30.2582 33.4542H30.208H30.1013C30.0385 33.4542 30.1013 33.4542 30.1013 33.4542C30.1013 33.4542 30.139 33.4856 30.1013 33.4542C30.0636 33.4229 30.1829 33.5483 30.1641 33.5107C29.9946 33.1782 29.4986 33.473 29.6619 33.8055L29.6807 33.8369Z" fill="#393939"/>
<path d="M30.2331 32.7893C29.8028 32.0383 29.4655 31.2379 29.2287 30.4055C28.9399 29.6904 28.5319 28.8372 27.6656 28.7557C27.6274 28.7548 27.5895 28.7617 27.5541 28.7759C27.5186 28.7901 27.4865 28.8113 27.4595 28.8383C27.4325 28.8653 27.4113 28.8974 27.397 28.9328C27.3828 28.9682 27.376 29.0061 27.3768 29.0442C27.427 29.5775 27.5275 30.1044 27.5714 30.6376C27.638 31.1017 27.7823 31.5513 27.9983 31.9675C28.203 32.3835 28.438 32.784 28.7014 33.1656C28.9325 33.5981 29.3145 33.9307 29.7749 34.1003C29.8489 34.1203 29.9279 34.11 29.9945 34.0718C30.061 34.0336 30.1096 33.9705 30.1295 33.8965C30.1495 33.8224 30.1393 33.7435 30.101 33.677C30.0627 33.6106 29.9996 33.562 29.9255 33.542C29.53 33.4417 29.2978 33.0276 29.0969 32.7077C28.8561 32.3607 28.646 31.9934 28.4691 31.6099C28.2985 31.2768 28.19 30.9155 28.1489 30.5435C28.1489 30.0354 28.0046 29.5461 27.9543 29.0442L27.6656 29.3328C27.7979 29.3615 27.9225 29.4184 28.0308 29.4996C28.1392 29.5808 28.2287 29.6844 28.2933 29.8033C28.4972 30.1404 28.6655 30.4978 28.7955 30.8697C29.0098 31.6463 29.3264 32.391 29.7372 33.0841C29.9506 33.3789 30.4591 33.0841 30.2394 32.7893H30.2331Z" fill="#393939"/>
<path d="M32.4303 38.7487C30.1299 37.2736 27.7398 35.9433 25.2738 34.7653C24.0622 34.138 22.8443 33.5106 21.639 32.8833C20.2705 32.1682 18.9271 31.4029 17.5523 30.694C16.5541 30.1859 15.5183 29.7343 14.5202 29.2136C13.7355 28.8058 12.9571 28.2601 12.0091 28.2476C11.9391 28.2579 11.875 28.293 11.8288 28.3465C11.7825 28.4001 11.757 28.4685 11.757 28.5393C11.757 28.61 11.7825 28.6784 11.8288 28.732C11.875 28.7855 11.9391 28.8207 12.0091 28.8309C12.8441 28.8309 13.5723 29.4081 14.2942 29.7656C15.1731 30.2047 16.077 30.6125 16.9622 31.0579C18.3621 31.773 19.7306 32.5509 21.1305 33.2848C23.5788 34.5708 26.0648 35.794 28.5005 37.1051C29.7246 37.7701 30.9551 38.4413 32.1101 39.2254C32.4177 39.4387 32.7065 38.9369 32.3989 38.7298L32.4303 38.7487Z" fill="#393939"/>
<path d="M11.6325 28.7118C12.4124 30.431 13.7718 31.8219 15.4733 32.6416C17.1748 33.4614 19.1104 33.658 20.9422 33.197C21.3063 33.1155 21.1494 32.5697 20.7853 32.6387C19.0761 33.056 17.2746 32.8623 15.6933 32.0912C14.1121 31.32 12.8508 30.0201 12.1284 28.4169C11.9589 28.0907 11.4567 28.3793 11.6325 28.7118Z" fill="#393939"/>
<path d="M23.221 34.0125C20.4015 34.3939 17.7216 35.4719 15.4242 37.1491C15.3931 37.1807 15.3696 37.219 15.3553 37.261C15.3411 37.303 15.3365 37.3476 15.3419 37.3916C15.3474 37.4357 15.3627 37.4779 15.3867 37.5152C15.4107 37.5525 15.4428 37.5838 15.4807 37.607C17.2133 38.7236 19.6365 37.8579 21.3189 37.0675C21.9953 36.7458 22.6459 36.3725 23.2649 35.9509C23.6604 35.6874 24.6272 35.148 24.3635 34.5457C24.2191 34.2007 23.7358 34.4956 23.8613 34.8343C23.7985 34.69 23.8111 34.7779 23.6981 34.8908C23.5904 34.9954 23.475 35.0919 23.3528 35.1793C23.0871 35.3825 22.8105 35.5709 22.5242 35.7439C21.9819 36.0838 21.4177 36.3877 20.8355 36.6535C19.3854 37.3122 17.2572 38.0587 15.7757 37.1052L15.8322 37.5631C18.0536 35.9512 20.6433 34.9204 23.3654 34.5646C23.7358 34.5081 23.5788 33.9373 23.2084 34.0063L23.221 34.0125Z" fill="#393939"/>
<path d="M23.5788 34.2133C23.3815 33.2831 23.2805 32.3351 23.2775 31.3842C23.2304 30.4361 23.4477 29.4936 23.9053 28.6617L23.447 28.7244C23.6954 29.0392 23.8421 29.4221 23.8676 29.8222C23.9492 30.3177 24.0559 30.8071 24.1375 31.3026C24.3133 32.3063 24.5079 33.5986 24.081 34.5646C23.9304 34.9034 24.4263 35.1919 24.577 34.8594C25.0729 33.7554 24.9097 32.4192 24.7151 31.265C24.6272 30.7067 24.5142 30.1484 24.4075 29.5901C24.3565 29.1263 24.1661 28.6889 23.8613 28.3355C23.8287 28.3058 23.79 28.2836 23.7478 28.2705C23.7057 28.2574 23.6612 28.2538 23.6175 28.2597C23.5738 28.2657 23.5319 28.2812 23.4949 28.3052C23.4578 28.3291 23.4265 28.3608 23.403 28.3982C22.9097 29.2894 22.6667 30.2973 22.7 31.3152C22.7088 32.3389 22.8266 33.3588 23.0515 34.3576C23.1268 34.7277 23.6793 34.5709 23.6102 34.2071L23.5788 34.2133Z" fill="#393939"/>
<path d="M32.3801 25.8011V25.9454C32.4015 25.8377 32.4015 25.7268 32.3801 25.6192L32.3424 25.3306L32.2671 24.7911L32.1101 23.6745C32.0896 23.6017 32.0412 23.5398 31.9755 23.5023C31.9097 23.4647 31.8318 23.4545 31.7586 23.4738C31.6849 23.4957 31.6225 23.545 31.584 23.6114C31.5455 23.6779 31.5338 23.7566 31.5514 23.8313C31.6519 24.5339 31.746 25.2365 31.8465 25.9391V25.7885C31.8308 25.8418 31.8308 25.8984 31.8465 25.9516C31.8684 26.025 31.918 26.0869 31.9847 26.1243C32.0515 26.1618 32.1302 26.1719 32.2043 26.1524C32.2408 26.1429 32.2751 26.1263 32.3051 26.1034C32.3351 26.0805 32.3602 26.0518 32.379 26.0191C32.3977 25.9864 32.4096 25.9502 32.4142 25.9127C32.4187 25.8753 32.4156 25.8373 32.4052 25.8011H32.3801Z" fill="#393939"/>
<path d="M28.4001 7.64065C29.2797 9.97373 29.9622 12.3763 30.4403 14.8233C30.8295 17.2008 30.8609 19.6222 31.2941 21.9997C31.3631 22.3635 31.9218 22.213 31.8528 21.8429C31.4196 19.4716 31.3882 17.044 30.999 14.6665C30.5239 12.2208 29.8413 9.82007 28.9588 7.49011C28.8332 7.13881 28.2745 7.28936 28.4001 7.64065Z" fill="#393939"/>
<path d="M29.7246 10.131C29.8309 9.55317 30.0191 8.99343 30.2833 8.46863C30.59 7.9767 30.9911 7.5503 31.4635 7.21402C31.9206 6.83072 32.403 6.47862 32.9074 6.16013C33.3839 5.84071 33.9233 5.62682 34.4894 5.53282L34.2006 5.24427C34.1806 5.75202 34.0029 6.24095 33.6921 6.64317C33.4089 7.09686 33.1009 7.53455 32.7693 7.95424C32.4183 8.44562 31.9721 8.86158 31.4573 9.17747C30.7972 9.47135 30.0832 9.62515 29.3605 9.62913C28.9964 9.6605 28.9902 10.2564 29.3605 10.2063C30.145 10.1935 30.92 10.0339 31.6456 9.73578C32.2523 9.39771 32.7757 8.92832 33.1774 8.36198C33.5514 7.89801 33.8973 7.41201 34.2132 6.90663C34.5646 6.42196 34.7615 5.84258 34.7781 5.24427C34.7781 5.09999 34.6526 4.93689 34.4894 4.95571C33.1962 5.10627 32.085 5.98449 31.1057 6.7749C30.5946 7.14844 30.1581 7.61442 29.8188 8.1487C29.5125 8.73942 29.3007 9.37442 29.191 10.0306C29.1094 10.3945 29.6682 10.5513 29.7498 10.1812L29.7246 10.131Z" fill="#393939"/>
<path d="M30.9237 13.3553C31.3314 12.6051 31.8382 11.9131 32.4303 11.2977C32.7255 11.0008 33.0424 10.7261 33.3782 10.476C33.5637 10.344 33.7399 10.1993 33.9056 10.0431C34.0458 9.87579 34.206 9.72623 34.3826 9.59774L33.9432 9.34683C33.9028 9.90684 33.7284 10.449 33.4347 10.9276C33.2216 11.4699 32.932 11.979 32.5747 12.4394C32.3247 12.7398 32.0118 12.9818 31.6582 13.1483C31.4845 13.2441 31.2987 13.3158 31.1057 13.3616C31.0225 13.3742 30.9378 13.3742 30.8546 13.3616C30.8373 13.3598 30.8205 13.3544 30.8054 13.3457C30.7903 13.3371 30.7771 13.3254 30.7667 13.3114C30.5094 13.0354 30.1013 13.4494 30.3524 13.7192C30.704 14.0955 31.2815 13.9199 31.6833 13.7505C32.1242 13.5752 32.524 13.3104 32.8572 12.9727C33.3157 12.4467 33.6809 11.8463 33.9369 11.1974C34.2807 10.6264 34.481 9.98065 34.5208 9.31545C34.5209 9.26471 34.5077 9.21483 34.4825 9.17082C34.4572 9.12681 34.4208 9.09025 34.3768 9.0648C34.3329 9.03935 34.283 9.02592 34.2322 9.02588C34.1815 9.02583 34.1316 9.03916 34.0876 9.06453C33.9031 9.19018 33.7345 9.33763 33.5854 9.50365C33.4247 9.67466 33.2481 9.83008 33.0581 9.96785C32.69 10.2372 32.3437 10.5351 32.0223 10.8586C31.3955 11.5086 30.8572 12.2384 30.4215 13.0291C30.3823 13.0957 30.3713 13.175 30.3907 13.2497C30.4101 13.3244 30.4584 13.3884 30.525 13.4275C30.5916 13.4666 30.6711 13.4776 30.7458 13.4582C30.8206 13.4388 30.8846 13.3905 30.9237 13.3239V13.3553Z" fill="#393939"/>
<path d="M30.5847 13.2549C29.4344 12.7502 28.1991 12.4671 26.9437 12.4206C25.8702 12.3391 24.6272 12.3077 23.6856 12.9036C23.6427 12.93 23.6074 12.967 23.5828 13.0109C23.5583 13.0548 23.5454 13.1043 23.5454 13.1546C23.5454 13.2049 23.5583 13.2543 23.5828 13.2982C23.6074 13.3422 23.6427 13.3791 23.6856 13.4055C24.2848 13.793 24.9386 14.089 25.6253 14.2837C26.3637 14.5433 27.1187 14.7529 27.8853 14.911C28.5329 15.0568 29.207 15.0352 29.8439 14.8483C30.0545 14.7523 30.2401 14.6089 30.386 14.4294C30.5319 14.2498 30.6343 14.0389 30.6851 13.8132C30.8044 13.4619 30.2457 13.3114 30.1264 13.6627C30.0071 14.014 29.8377 14.29 29.417 14.3653C28.7663 14.4597 28.103 14.4148 27.471 14.2335C26.8432 14.083 26.2719 13.8885 25.6756 13.7003C25.0622 13.5353 24.4779 13.2772 23.9429 12.935V13.4368C24.803 12.8974 25.9392 12.9601 26.9123 13.0291C28.0674 13.0698 29.2046 13.3273 30.2645 13.7881C30.5972 13.9512 30.8923 13.4494 30.5533 13.2863L30.5847 13.2549Z" fill="#393939"/>
<path d="M29.5489 9.3971C28.7546 8.7244 27.8582 8.18232 26.8934 7.7912C26.4414 7.59673 25.9894 7.40854 25.5312 7.24544C25.0691 7.04712 24.5533 7.01172 24.0685 7.14507C23.9951 7.16697 23.9331 7.21653 23.8956 7.28325C23.8581 7.34998 23.8481 7.42864 23.8676 7.50264C23.9304 7.97312 24.3949 8.31813 24.7527 8.57533C25.1106 8.83252 25.6316 9.20264 26.0648 9.47865C26.5616 9.89044 27.1454 10.1843 27.7723 10.3381C28.3506 10.3516 28.9261 10.2536 29.4673 10.0495C29.8314 9.96795 29.6744 9.4222 29.3103 9.48493C28.8569 9.66706 28.3739 9.76484 27.8853 9.77349C27.3244 9.62648 26.8033 9.35647 26.3598 8.98307C25.9894 8.71961 25.6191 8.46242 25.2424 8.2115C24.8657 7.96058 24.4765 7.73474 24.4263 7.34581L24.2254 7.70338C24.6683 7.6009 25.1332 7.65868 25.5374 7.86647C25.9455 8.01702 26.3598 8.1864 26.793 8.36205C27.6547 8.71968 28.4569 9.20617 29.1722 9.80484C29.4484 10.0495 29.8627 9.64175 29.5802 9.3971H29.5489Z" fill="#393939"/>
<path d="M28.9023 7.38336C28.2736 6.39109 27.7417 5.34076 27.314 4.24683C26.9757 3.09965 27.0064 1.87525 27.4019 0.746472L27.0441 0.947196C27.5086 1.04756 27.7472 1.68743 27.8916 2.07636C28.12 2.67916 28.2514 3.31436 28.2808 3.95828C28.3237 4.63763 28.3132 5.31931 28.2494 5.99702C28.125 6.5637 28.1776 7.15486 28.4001 7.69074C28.4392 7.75729 28.5032 7.80558 28.5779 7.82499C28.6527 7.8444 28.7321 7.83335 28.7987 7.79425C28.8653 7.75515 28.9136 7.69122 28.933 7.61652C28.9525 7.54181 28.9414 7.46245 28.9023 7.3959C28.6072 6.88151 28.8332 6.10365 28.9023 5.51398C28.9578 4.70332 28.922 3.88899 28.7956 3.08631C28.7056 2.52301 28.5343 1.97574 28.2871 1.46159C28.2039 1.21231 28.0652 0.98514 27.8814 0.797165C27.6976 0.60919 27.4736 0.4653 27.2261 0.376345C27.1512 0.357112 27.0718 0.36803 27.0049 0.406745C26.9379 0.44546 26.8889 0.508888 26.8683 0.583366C26.4529 1.7741 26.4114 3.06318 26.7491 4.27819C27.1854 5.4618 27.7473 6.59533 28.4252 7.65938C28.6072 7.98558 29.1094 7.69702 28.9274 7.36455L28.9023 7.38336Z" fill="#393939"/>
<path d="M32.1101 27.7333C32.281 27.1199 32.3759 26.4878 32.3926 25.8513L31.8214 25.9266C32.0537 27.5827 32.3675 29.2263 32.5684 30.8886L32.7128 30.6377C32.1721 30.9139 31.6645 31.2506 31.1999 31.6414C30.7272 31.9986 30.2764 32.3841 29.8502 32.7956H30.2583L30.1829 32.7078L30.2708 32.9085C30.5445 31.5391 30.6812 30.1459 30.6788 28.7495C30.6087 28.15 30.5856 27.5459 30.6098 26.9429C30.696 26.3047 30.9094 25.6904 31.2376 25.1362C31.4071 24.8037 30.9048 24.5089 30.7353 24.8477C30.4282 25.4046 30.216 26.0088 30.1076 26.6355C30.05 27.3398 30.0647 28.0482 30.1515 28.7495C30.1884 29.524 30.1399 30.3003 30.0071 31.0643C29.9444 31.4532 29.8879 31.8421 29.8314 32.2373C29.7749 32.6325 29.6556 32.9148 29.9004 33.2034C29.9553 33.2559 30.0284 33.2852 30.1044 33.2852C30.1805 33.2852 30.2535 33.2559 30.3085 33.2034C30.7334 32.7924 31.1842 32.4089 31.6582 32.0554C32.0885 31.6979 32.5581 31.3907 33.0581 31.1395C33.1026 31.1146 33.1395 31.0782 33.1649 31.034C33.1903 30.9898 33.2033 30.9396 33.2025 30.8886C32.989 29.1761 32.6689 27.4823 32.4303 25.7761C32.3864 25.4373 31.8716 25.5377 31.8653 25.8513C31.8462 26.4286 31.7576 27.0015 31.6017 27.5576C31.5918 27.5943 31.5892 27.6325 31.5941 27.6702C31.599 27.7078 31.6113 27.7441 31.6302 27.777C31.6492 27.81 31.6744 27.8388 31.7045 27.862C31.7346 27.8852 31.769 27.9022 31.8057 27.9121C31.8424 27.9219 31.8806 27.9245 31.9183 27.9196C31.956 27.9147 31.9923 27.9024 32.0253 27.8835C32.0582 27.8646 32.0871 27.8394 32.1103 27.8093C32.1335 27.7792 32.1505 27.7448 32.1604 27.7082L32.1101 27.7333Z" fill="#393939"/>
<path d="M26.6486 14.6727C27.1948 15.1997 27.3266 16.1156 27.6028 16.7993C27.992 17.7654 28.3561 18.7398 28.6951 19.7226C29.3229 21.5418 29.9506 23.3609 30.6223 25.1613C30.7605 25.5063 31.3192 25.3558 31.1873 25.0045C30.4591 23.1226 29.8251 21.1967 29.1534 19.2834C28.8018 18.2672 28.3938 17.2761 28.0171 16.2724C27.7535 15.5823 27.6154 14.7919 27.0567 14.2587C26.793 14.0015 26.3787 14.4093 26.6486 14.6727Z" fill="#393939"/>
<path d="M26.4665 14.3214C25.9734 15.9296 26.0919 17.6631 26.7993 19.1893C27.3929 20.3408 28.3061 21.297 29.4296 21.9432C29.4962 21.9814 29.5753 21.9917 29.6494 21.9717C29.7236 21.9517 29.7868 21.9031 29.8251 21.8365C29.8634 21.77 29.8736 21.691 29.8536 21.6168C29.8336 21.5427 29.785 21.4796 29.7184 21.4413C28.5218 20.7808 27.5961 19.7203 27.1036 18.446C26.6112 17.1716 26.5834 15.7647 27.0252 14.4719C27.0452 14.3979 27.035 14.319 26.9967 14.2525C26.9584 14.186 26.8953 14.1375 26.8212 14.1175C26.7471 14.0975 26.6681 14.1078 26.6016 14.1461C26.5351 14.1843 26.4865 14.2474 26.4665 14.3214Z" fill="#393939"/>
<path d="M30.4591 24.3207C30.4152 24.3207 30.5282 24.3207 30.4591 24.3207H30.4026C30.3399 24.3207 30.4591 24.3207 30.4026 24.3207H30.3336C30.2186 24.327 30.1033 24.327 29.9883 24.3207C29.7497 24.3207 29.4861 24.2454 29.235 24.1952C28.6756 24.0908 28.124 23.9483 27.584 23.7687C27.2324 23.6432 27.0818 24.2078 27.4333 24.327C28.0064 24.5165 28.5915 24.6674 29.1848 24.7787C29.4772 24.8388 29.7727 24.8828 30.0699 24.9104C30.3017 24.9455 30.5388 24.9151 30.7542 24.8226C31.0806 24.6406 30.7856 24.1388 30.4591 24.3207Z" fill="#393939"/>
<path d="M30.4779 23.4487C30.0767 23.2068 29.6569 22.997 29.2224 22.8214C28.783 22.6144 28.3373 22.4262 27.8978 22.1941C27.8297 22.1584 27.7506 22.1496 27.6762 22.1694C27.6018 22.1891 27.5375 22.236 27.4961 22.3008C27.4592 22.3676 27.4497 22.4462 27.4696 22.5199C27.4895 22.5936 27.5373 22.6567 27.6028 22.696L28.9274 23.3233C29.363 23.4963 29.783 23.7062 30.1829 23.9506C30.2158 23.9696 30.2522 23.982 30.29 23.987C30.3277 23.9919 30.3661 23.9894 30.4028 23.9795C30.4396 23.9696 30.474 23.9525 30.5042 23.9292C30.5343 23.906 30.5595 23.877 30.5784 23.8439C30.6158 23.7778 30.6263 23.6998 30.6076 23.6262C30.5889 23.5526 30.5424 23.489 30.4779 23.4487Z" fill="#393939"/>
<path d="M30.5847 23.8189C30.9561 23.1963 31.3939 22.6158 31.8904 22.0875C32.3563 21.547 32.9623 21.1454 33.6419 20.927L33.2715 20.6447C33.2395 20.9791 33.1034 21.295 32.8823 21.548C32.6563 21.8805 32.4554 22.2318 32.2545 22.5643C32.026 22.9145 31.7699 23.2459 31.4887 23.5554C31.2405 23.8599 30.9302 24.108 30.5784 24.2831C30.5043 24.3039 30.4415 24.3532 30.4038 24.4203C30.3662 24.4873 30.3567 24.5666 30.3775 24.6406C30.3983 24.7147 30.4477 24.7774 30.5148 24.8151C30.5819 24.8527 30.6612 24.8622 30.7353 24.8414C31.5608 24.3984 32.2458 23.7335 32.7128 22.9218C32.9639 22.5517 33.1899 22.1628 33.4347 21.7927C33.6981 21.4656 33.8518 21.064 33.8742 20.6447C33.8728 20.6003 33.8614 20.5568 33.8409 20.5175C33.8204 20.4781 33.7913 20.4439 33.7556 20.4174C33.72 20.3908 33.6789 20.3727 33.6353 20.3643C33.5917 20.3558 33.5467 20.3573 33.5038 20.3687C32.7477 20.6025 32.0688 21.0359 31.5389 21.6233C30.991 22.1936 30.5107 22.8251 30.1076 23.5052C30.079 23.5701 30.0753 23.6433 30.0973 23.7107C30.1192 23.7782 30.1653 23.8352 30.2266 23.8708C30.2879 23.9065 30.3602 23.9184 30.4298 23.9042C30.4993 23.89 30.5611 23.8507 30.6035 23.7938L30.5847 23.8189Z" fill="#393939"/>
<path d="M26.1024 23.5993C26.283 23.2706 26.5138 22.9722 26.7867 22.7148C26.9166 22.5944 27.0598 22.4892 27.2136 22.4011C27.3015 22.3447 27.3894 22.2882 27.471 22.2255C27.5247 22.1801 27.5813 22.1382 27.6405 22.1L27.2826 21.893C27.311 22.0566 27.3236 22.2226 27.3203 22.3886C27.3436 22.5971 27.3436 22.8075 27.3203 23.0159C27.3203 23.2041 27.2575 23.386 27.2324 23.5742C27.2057 23.7686 27.1594 23.9599 27.0943 24.1451C27.0838 24.1817 27.0807 24.2201 27.0851 24.258C27.0895 24.2958 27.1014 24.3324 27.1201 24.3657C27.1388 24.3989 27.1639 24.4282 27.1939 24.4517C27.224 24.4752 27.2584 24.4925 27.2952 24.5026C27.3692 24.5205 27.4472 24.5098 27.5136 24.4725C27.58 24.4353 27.6298 24.3743 27.653 24.3019C27.7232 24.1096 27.7696 23.9095 27.7911 23.7059C27.8288 23.4801 27.8727 23.2606 27.8978 23.0347C27.9188 22.8262 27.9188 22.616 27.8978 22.4074C27.9011 22.1969 27.8822 21.9867 27.8413 21.7801C27.8312 21.7434 27.8139 21.709 27.7903 21.6789C27.7668 21.6489 27.7376 21.6238 27.7043 21.6052C27.6711 21.5865 27.6344 21.5746 27.5965 21.5702C27.5586 21.5658 27.5202 21.5689 27.4835 21.5794C27.2969 21.6744 27.1202 21.7879 26.9562 21.9181C26.7593 22.0312 26.5743 22.1635 26.4038 22.3133C26.0845 22.6129 25.8135 22.9599 25.6002 23.3421C25.4244 23.6746 25.9204 23.9694 26.1024 23.6369V23.5993Z" fill="#393939"/>
<path d="M56.7436 38.5354C55.3554 39.7842 54.0937 41.1668 52.977 42.663C51.5332 44.4383 50.1647 46.2826 48.8777 48.1771C47.5399 50.0975 46.3178 52.0959 45.2179 54.1616C44.1796 56.2165 43.2615 58.3299 42.4683 60.4911C42.0037 61.7081 41.5894 62.9438 41.0872 64.1483C40.8344 64.7727 40.5299 65.3749 40.1769 65.9486C39.8251 66.462 39.5084 66.9985 39.229 67.5546C39.072 67.8933 39.5743 68.1819 39.7249 67.8494C40.202 66.8206 40.924 65.9675 41.3885 64.9011C41.853 63.8346 42.2297 62.7933 42.644 61.7269C43.4172 59.5543 44.3014 57.4229 45.2932 55.3409C46.343 53.2492 47.53 51.229 48.8463 49.2937C50.1019 47.3867 51.4432 45.534 52.8703 43.7357C54.1392 41.9962 55.5844 40.3922 57.183 38.9494C57.4718 38.711 57.0575 38.3221 56.775 38.5354H56.7436Z" fill="#393939"/>
<path d="M59.0224 37.193C60.799 35.7 62.5253 34.1443 64.2642 32.6137C64.5467 32.3627 64.1387 31.955 63.8562 32.1996C62.111 33.7365 60.3909 35.2923 58.6081 36.7852C58.3256 37.0236 58.7336 37.4126 59.0224 37.193Z" fill="#393939"/>
<path d="M80.335 19.0136C78.1764 20.2367 76.0812 21.5683 74.0574 23.0033C72.1509 24.4808 70.3491 26.0885 68.6649 27.8147C67.6667 28.7808 66.6623 29.7343 65.5888 30.6125C65.3 30.8509 65.7081 31.2398 65.9969 31.0202C67.8802 29.4959 69.5312 27.7457 71.2826 26.0896C73.0631 24.4286 75.0016 22.9453 77.0706 21.6608C78.2445 20.9206 79.4373 20.218 80.6238 19.5154C80.6904 19.4764 80.7387 19.4124 80.7581 19.3377C80.7775 19.263 80.7665 19.1837 80.7273 19.1171C80.6882 19.0506 80.6242 19.0023 80.5495 18.9829C80.4747 18.9635 80.3953 18.9745 80.3287 19.0136H80.335Z" fill="#393939"/>
<path d="M77.9307 21.1841C78.3981 20.3814 78.719 19.502 78.8786 18.5871C78.9448 17.7678 78.8748 16.9433 78.6714 16.1469C78.3889 14.7041 78.0437 13.0668 76.9953 11.9565C76.9393 11.9035 76.8652 11.874 76.7881 11.874C76.7111 11.874 76.6369 11.9035 76.581 11.9565C76.1393 12.4927 75.8663 13.1475 75.7963 13.8384C75.6772 14.5798 75.6017 15.3276 75.5703 16.0779C75.473 17.0184 75.5911 17.9687 75.9155 18.8568C76.3568 19.7331 76.962 20.5167 77.6984 21.1653C77.962 21.4288 78.3701 21.0148 78.1065 20.7513C77.4502 20.1776 76.9017 19.4914 76.4868 18.7251C76.1616 17.883 76.0452 16.9747 76.1478 16.0779C76.1855 15.4506 76.2294 14.7856 76.3299 14.152C76.3688 13.5109 76.6008 12.8965 76.9953 12.3893H76.581C77.5163 13.393 77.8365 14.8985 78.0939 16.2222C78.2743 16.9266 78.3525 17.6534 78.3262 18.3801C78.1951 19.2674 77.8901 20.1201 77.4285 20.8893C77.2527 21.2218 77.7549 21.5166 77.9307 21.1841Z" fill="#393939"/>
<path d="M74.1641 23.1727C74.3972 22.0299 74.4774 20.8613 74.4026 19.6974C74.3587 19.131 74.2706 18.5689 74.139 18.0162C74.0134 17.4642 74.0511 16.8745 73.8941 16.3288C73.8795 16.2801 73.8526 16.236 73.8159 16.2008C73.7792 16.1655 73.7341 16.1404 73.6848 16.1278C73.6355 16.1151 73.5838 16.1155 73.5347 16.1287C73.4856 16.1419 73.4407 16.1676 73.4045 16.2033C72.9333 16.82 72.6168 17.5407 72.4817 18.3048C72.1529 19.2283 71.9955 20.2041 72.0171 21.1841C72.0757 21.7702 72.2485 22.3392 72.5256 22.859C72.7516 23.2981 73.1534 23.8878 73.7121 23.8251C74.0825 23.7874 74.0888 23.1978 73.7121 23.2479C73.3355 23.2981 73.0341 22.6206 72.9086 22.307C72.6971 21.8398 72.588 21.333 72.5884 20.8203C72.632 20.0255 72.7841 19.2403 73.0404 18.4867C73.1469 17.8066 73.4137 17.1615 73.8188 16.6048L73.3354 16.4793C73.4798 16.9811 73.4296 17.5206 73.5489 18.035C73.6816 18.5795 73.7739 19.133 73.8251 19.6911C73.8997 20.8042 73.8258 21.9222 73.6054 23.0158C73.5363 23.3797 74.095 23.5365 74.1641 23.1664V23.1727Z" fill="#393939"/>
<path d="M73.8125 23.8878C75.2207 24.3085 76.5384 24.987 77.6984 25.8889C78.7154 26.6291 79.9332 27.545 80.3225 28.7996L80.6049 28.4295C79.7644 28.3065 78.9474 28.057 78.1818 27.6893C77.485 27.3819 76.7693 27.0996 76.0913 26.7546C75.4388 26.4353 74.843 26.0115 74.3273 25.5C74.0831 25.2965 73.9077 25.0227 73.8251 24.7159C73.81 24.4185 73.8727 24.1222 74.0072 23.8565C74.1453 23.5114 73.5865 23.3609 73.4484 23.7059C73.2988 23.9913 73.2319 24.3129 73.2552 24.6343C73.2785 24.9556 73.3911 25.2642 73.5803 25.5251C74.1053 26.1732 74.7595 26.7051 75.5012 27.0871C76.2859 27.5137 77.1271 27.8399 77.9432 28.1911C78.7838 28.5941 79.6816 28.8649 80.6049 28.9941C80.6493 28.9927 80.6929 28.9814 80.7322 28.9609C80.7716 28.9404 80.8059 28.9112 80.8324 28.8757C80.859 28.8401 80.8772 28.799 80.8856 28.7554C80.894 28.7118 80.8925 28.6669 80.8812 28.624C80.4668 27.2878 79.2678 26.3155 78.1818 25.4874C76.9289 24.4914 75.497 23.7441 73.9632 23.2856C73.8891 23.2656 73.8101 23.2759 73.7436 23.3141C73.6771 23.3524 73.6285 23.4154 73.6085 23.4895C73.5885 23.5635 73.5988 23.6425 73.6371 23.7089C73.6753 23.7754 73.7384 23.8239 73.8125 23.8439V23.8878Z" fill="#393939"/>
<path d="M78.1566 20.9771C79.4624 20.9818 80.7592 21.1935 81.9986 21.6044C82.5322 21.7738 83.0658 21.9431 83.5868 22.1439C84.059 22.286 84.47 22.5819 84.7545 22.9845L84.7984 22.6332C84.4406 22.9531 83.7249 22.8276 83.2918 22.7837C82.664 22.7147 82.0362 22.6457 81.4085 22.5955C80.6232 22.6011 79.8525 22.3835 79.1862 21.9682C78.7906 21.5428 78.4451 21.0734 78.1566 20.5693C77.9244 20.2745 77.5289 20.6885 77.7423 20.9833C78.0742 21.5661 78.4982 22.0915 78.9979 22.5391C79.7413 22.945 80.5739 23.1605 81.421 23.1664C82.1178 23.2291 82.8084 23.3169 83.5052 23.3797C83.7944 23.4421 84.0932 23.4465 84.3842 23.3927C84.6751 23.3389 84.9525 23.2278 85.2002 23.066C85.2465 23.0212 85.2761 22.962 85.2841 22.8981C85.2921 22.8342 85.278 22.7695 85.2441 22.7147C84.698 21.7487 83.3608 21.4601 82.3941 21.1465C81.0309 20.6627 79.5969 20.4083 78.1504 20.3937C78.0738 20.3937 78.0003 20.4241 77.9462 20.4782C77.892 20.5323 77.8616 20.6057 77.8616 20.6823C77.8616 20.7588 77.892 20.8322 77.9462 20.8863C78.0003 20.9404 78.0738 20.9708 78.1504 20.9708L78.1566 20.9771Z" fill="#393939"/>
<path d="M80.6301 19.5092C82.1367 18.9321 83.7249 18.493 85.0872 17.5959C86.402 16.6873 87.4126 15.4042 87.9874 13.9136C88.004 13.8516 87.9994 13.7859 87.9744 13.7269C87.9494 13.6678 87.9054 13.6187 87.8493 13.5874C87.5284 13.4639 87.1829 13.4171 86.8406 13.4508C86.4984 13.4846 86.1687 13.598 85.8782 13.7819C85.1579 14.1209 84.4933 14.5672 83.907 15.1055C83.2162 15.7333 82.5857 16.4243 82.0237 17.1693C81.6031 17.7402 81.1762 18.7 80.4606 18.9509C80.109 19.0764 80.2597 19.6346 80.6175 19.5092C81.2573 19.1894 81.7817 18.6786 82.1178 18.0476C82.6019 17.3656 83.1325 16.7179 83.7061 16.1092C84.2555 15.5114 84.8901 14.9978 85.5894 14.5848C86.0853 14.2963 86.9705 13.7631 87.5543 14.083L87.4225 13.7568C86.8679 15.1824 85.8742 16.3951 84.585 17.2195C83.2711 17.9275 81.892 18.5073 80.4668 18.9509C80.1216 19.0826 80.2722 19.6472 80.6238 19.5092H80.6301Z" fill="#393939"/>
<path d="M66.6497 20.745C67.3768 19.2558 67.7893 17.6329 67.8613 15.9775C67.8208 15.1485 67.7137 14.324 67.5412 13.5121C67.4254 12.6702 67.1798 11.8512 66.813 11.0845C66.7865 11.0417 66.7496 11.0063 66.7056 10.9818C66.6617 10.9573 66.6122 10.9445 66.5619 10.9445C66.5115 10.9445 66.462 10.9573 66.4181 10.9818C66.3741 11.0063 66.3372 11.0417 66.3107 11.0845C65.4631 12.3902 65.0258 13.9195 65.0552 15.4756C65.119 16.2989 65.23 17.1179 65.3879 17.9284C65.4397 18.3556 65.5365 18.7761 65.6767 19.183C65.796 19.5029 66.1287 19.7727 66.1413 20.124C66.1538 20.4753 66.7313 20.4941 66.7188 20.124C66.7036 19.8374 66.5981 19.5629 66.4175 19.3398C66.2188 19.0066 66.0867 18.638 66.0282 18.2546C65.8563 17.4258 65.7305 16.5881 65.6516 15.7454C65.568 14.2215 65.9703 12.7105 66.8004 11.4295H66.2982C66.646 12.1307 66.8812 12.8822 66.995 13.6564C67.1692 14.4571 67.2721 15.2716 67.3026 16.0904C67.2054 17.6515 66.8 19.178 66.1099 20.5819C65.9655 20.9206 66.5305 21.0712 66.6686 20.7324L66.6497 20.745Z" fill="#393939"/>
<path d="M66.2731 20.1993C65.7274 21.274 65.2616 22.3873 64.8794 23.5303C64.4714 24.6845 64.0445 25.8388 63.6616 27.0056C63.2769 28.2022 62.9975 29.4301 62.8266 30.6753C62.7388 31.3026 62.6697 31.9299 62.5504 32.5572C62.5128 32.9933 62.3419 33.4072 62.0608 33.7428C61.7846 33.9938 62.1926 34.3702 62.4751 34.1506C63.1594 33.5233 63.1845 32.2687 63.3038 31.4469C63.4611 30.1461 63.7236 28.8601 64.0885 27.6015C64.4588 26.4034 64.9046 25.2303 65.344 24.0447C65.7382 22.8349 66.223 21.6564 66.7941 20.5192C66.9699 20.1868 66.4677 19.8919 66.2982 20.2244L66.2731 20.1993Z" fill="#393939"/>
<path d="M64.7099 25.2679C65.6547 24.6712 66.5178 23.9542 67.2775 23.1351C67.6305 22.7446 67.9497 22.3249 68.2317 21.8805C68.5422 21.4462 68.7719 20.9596 68.9097 20.4439C68.9224 20.3888 68.919 20.331 68.8998 20.2777C68.8806 20.2244 68.8465 20.1778 68.8014 20.1434C68.7564 20.109 68.7024 20.0883 68.6459 20.0837C68.5894 20.0792 68.5328 20.091 68.4828 20.1177C67.4759 20.6862 66.5736 21.4223 65.8148 22.2945C65.4933 22.7488 65.1998 23.2222 64.9359 23.7122C64.6323 24.1517 64.3953 24.6337 64.2328 25.1425C64.145 25.5063 64.7037 25.6631 64.7915 25.2993C64.855 25.0766 64.9524 24.865 65.0803 24.672C65.2059 24.4587 65.3126 24.2391 65.4381 24.0447C65.6875 23.5771 65.9642 23.1247 66.2668 22.6897C66.9822 21.8746 67.8314 21.1872 68.7779 20.6572L68.351 20.331C68.2234 20.7968 68.0106 21.235 67.7232 21.6233C67.456 22.0545 67.1492 22.4598 66.8067 22.834C66.0937 23.5919 65.2904 24.2597 64.4149 24.8225C64.101 25.0233 64.4149 25.5251 64.7037 25.3181L64.7099 25.2679Z" fill="#393939"/>
<path d="M60.6483 23.8063C61.1093 24.4638 61.7014 25.0191 62.3872 25.4373C62.7137 25.6443 63.0778 25.7885 63.3979 26.0018C63.7181 26.2151 63.9001 26.4159 64.2391 26.3531C64.2757 26.3437 64.31 26.327 64.34 26.3042C64.37 26.2813 64.3951 26.2526 64.4138 26.2199C64.4325 26.1871 64.4445 26.1509 64.449 26.1135C64.4535 26.0761 64.4504 26.0381 64.44 26.0018C64.418 25.9282 64.3688 25.8658 64.3023 25.8273C64.2357 25.7889 64.157 25.7772 64.0822 25.7948C64.1387 25.7948 64.0822 25.7948 64.0822 25.7635L63.9315 25.6568C63.8311 25.5878 63.7369 25.5125 63.6365 25.4561C63.31 25.2679 62.9711 25.1048 62.6572 24.9103C62.0733 24.5472 61.5676 24.0717 61.1694 23.5114C60.9622 23.204 60.46 23.5114 60.6734 23.8063H60.6483Z" fill="#393939"/>
<path d="M62.3244 23.2041C62.7028 23.6928 63.0448 24.2086 63.3477 24.7473C63.4795 24.9794 63.6114 25.2115 63.7306 25.4436C63.858 25.6262 63.9076 25.8518 63.8687 26.0709C63.7432 26.4222 64.3019 26.5727 64.4275 26.2214C64.6283 25.6443 64.1763 25.0233 63.9064 24.5465C63.5628 23.9285 63.1703 23.3391 62.7325 22.7838C62.7061 22.7552 62.6742 22.7322 62.6388 22.7163C62.6033 22.7003 62.5649 22.6916 62.526 22.6909C62.4871 22.6901 62.4485 22.6972 62.4124 22.7117C62.3763 22.7262 62.3435 22.7478 62.316 22.7753C62.2885 22.8028 62.2668 22.8356 62.2523 22.8717C62.2377 22.9077 62.2307 22.9464 62.2315 22.9852C62.2322 23.0241 62.2409 23.0624 62.2569 23.0979C62.2729 23.1333 62.2958 23.1652 62.3244 23.1915V23.2041Z" fill="#393939"/>
<path d="M78.2132 14.4783C79.9772 13.117 80.9063 10.9967 81.8605 9.05207C82.438 7.86646 83.0218 6.68712 83.5554 5.48269C83.8065 4.90557 84.0388 4.32846 84.315 3.76388C84.5804 3.31332 84.7333 2.80551 84.7607 2.28343C84.7504 2.21342 84.7153 2.14944 84.6617 2.10319C84.6081 2.05693 84.5396 2.03149 84.4688 2.03149C84.398 2.03149 84.3296 2.05693 84.276 2.10319C84.2224 2.14944 84.1872 2.21342 84.1769 2.28343C84.1257 2.81958 83.9471 3.33574 83.6559 3.78896C83.3922 4.33472 83.1788 4.90557 82.934 5.4576C82.4192 6.61184 81.8605 7.73471 81.308 8.86386C80.3915 10.7458 79.4938 12.7594 77.8051 14.0705C77.5101 14.2963 77.9244 14.6978 78.2132 14.4783Z" fill="#393939"/>
<path d="M84.2962 1.91953C83.3743 2.61995 82.6409 3.5382 82.1618 4.59184C81.6337 5.61757 81.472 6.79275 81.7035 7.92283C81.7914 8.28667 82.3313 8.12984 82.2622 7.76601C82.0636 6.75792 82.2187 5.71221 82.7017 4.80514C83.1246 3.8684 83.7713 3.04981 84.585 2.42136C84.88 2.20181 84.585 1.69369 84.2899 1.91953H84.2962Z" fill="#393939"/>
<path d="M80.8058 10.7645C80.4279 8.66664 79.5325 6.69602 78.2006 5.03093C78.169 4.99987 78.1307 4.97636 78.0886 4.96213C78.0466 4.9479 78.0019 4.94332 77.9579 4.94875C77.9138 4.95417 77.8716 4.96946 77.8343 4.99347C77.7969 5.01747 77.7655 5.04957 77.7424 5.08739C76.9451 6.44864 77.667 8.22393 78.3325 9.50991C78.5937 10.0021 78.8917 10.4739 79.2239 10.9213C79.4624 11.2413 79.9019 11.9438 80.3915 11.7117C80.7305 11.5549 80.4355 11.0844 80.1028 11.2099C80.2534 11.1409 80.2534 11.2099 80.1028 11.097C80.0268 11.0198 79.9555 10.9381 79.8893 10.8523C79.7303 10.6617 79.5815 10.4628 79.4436 10.2564C79.1842 9.87532 78.9474 9.47945 78.7342 9.07079C78.2132 8.03573 77.5729 6.49255 78.2257 5.38222L77.7675 5.43868C79.0298 7.03418 79.8754 8.91823 80.2283 10.9213C80.2973 11.2852 80.8561 11.1346 80.787 10.7645H80.8058Z" fill="#393939"/>
<path d="M80.6238 11.1472C81.3038 10.9715 82.0001 10.8664 82.7017 10.8336C83.392 10.7677 84.0872 10.8936 84.7105 11.1974L84.654 10.7395C84.4185 10.9346 84.1299 11.0548 83.8254 11.0845C83.4613 11.1598 83.1034 11.2539 82.7393 11.3292C81.9615 11.5682 81.1314 11.5791 80.3475 11.3605C79.996 11.2288 79.8453 11.7871 80.1906 11.9251C81.076 12.1666 82.0117 12.1535 82.89 11.8875C83.298 11.8059 83.6935 11.7055 84.0953 11.6177C84.457 11.5639 84.794 11.4021 85.0621 11.1535C85.0931 11.1219 85.1167 11.0836 85.1309 11.0416C85.1452 10.9996 85.1497 10.9549 85.1443 10.9109C85.1389 10.8669 85.1236 10.8247 85.0996 10.7874C85.0755 10.7501 85.0434 10.7187 85.0056 10.6956C84.3167 10.3483 83.5465 10.1944 82.777 10.2502C81.9989 10.2781 81.2263 10.3917 80.4731 10.5889C80.4364 10.5988 80.402 10.6158 80.3719 10.639C80.3418 10.6621 80.3166 10.691 80.2976 10.7239C80.2594 10.7904 80.2491 10.8693 80.2691 10.9434C80.2891 11.0174 80.3377 11.0805 80.4042 11.1187C80.4707 11.1569 80.5497 11.1672 80.6238 11.1472Z" fill="#393939"/>
<path d="M67.6228 17.6335C68.655 16.9337 69.54 16.0386 70.228 14.9989C70.9688 13.9513 71.5275 12.7782 72.2933 11.7494C73.0592 10.7206 74.208 10.0494 74.8044 8.88263C75.1648 7.9774 75.3377 7.00856 75.3129 6.03465C75.3129 5.95812 75.2825 5.88471 75.2283 5.83059C75.1742 5.77648 75.1007 5.74609 75.0241 5.74609C74.9475 5.74609 74.8741 5.77648 74.8199 5.83059C74.7658 5.88471 74.7353 5.95812 74.7353 6.03465C74.7733 6.99424 74.5818 7.94905 74.1766 8.81989C73.5489 9.8424 72.5131 10.5011 71.81 11.4546C71.1069 12.4081 70.5544 13.5184 69.8827 14.5095C69.2275 15.541 68.374 16.4322 67.3717 17.1317C67.0578 17.3324 67.3717 17.8343 67.6604 17.6335H67.6228Z" fill="#393939"/>
<path d="M74.817 5.66461C73.8304 6.29837 73.0239 7.17554 72.4754 8.21147C71.8699 9.21737 71.6139 10.395 71.7472 11.5613C71.8037 11.9314 72.3749 11.7746 72.3059 11.4107C72.2108 10.3668 72.4599 9.32036 73.0153 8.43103C73.5106 7.51068 74.2322 6.73137 75.112 6.16645C75.145 6.14709 75.1738 6.12144 75.1969 6.09095C75.2199 6.06045 75.2367 6.02571 75.2464 5.98872C75.256 5.95173 75.2582 5.9132 75.2529 5.87535C75.2476 5.8375 75.235 5.80105 75.2156 5.7681C75.1962 5.73515 75.1705 5.70635 75.14 5.68331C75.1095 5.66028 75.0747 5.64348 75.0377 5.63387C74.963 5.61446 74.8836 5.62551 74.817 5.66461Z" fill="#393939"/>
<path d="M70.5858 14.1959C70.3912 12.2387 70.636 10.0557 69.4621 8.34314C69.4357 8.30034 69.3987 8.265 69.3548 8.24049C69.3108 8.21598 69.2613 8.20312 69.211 8.20312C69.1607 8.20312 69.1112 8.21598 69.0672 8.24049C69.0233 8.265 68.9863 8.30034 68.9599 8.34314C68.5456 8.987 68.2751 9.71253 68.1668 10.4703C68.0584 11.2281 68.1149 12.0003 68.3322 12.7343C68.5042 13.2386 68.7141 13.7293 68.9599 14.2022C69.098 14.5096 69.4119 15.3502 69.8953 15.1745C70.2405 15.0491 70.0899 14.4907 69.7383 14.6162C69.8764 14.566 69.9078 14.704 69.8011 14.5535C69.7406 14.463 69.6861 14.3687 69.6379 14.2712C69.5249 14.0579 69.4245 13.8321 69.3303 13.6063C69.133 13.2043 68.9753 12.7841 68.8595 12.3516C68.7099 11.7273 68.6885 11.0792 68.7963 10.4463C68.9042 9.81345 69.1393 9.20898 69.4872 8.66934H68.985C70.0962 10.2878 69.8513 12.3705 70.0334 14.2273C70.0648 14.5974 70.6612 14.6037 70.6109 14.2273L70.5858 14.1959Z" fill="#393939"/>
<path d="M70.9185 13.7694C71.4885 13.6362 72.0677 13.5461 72.6512 13.4996C72.9855 13.5021 73.3159 13.5723 73.6223 13.706C73.9288 13.8397 74.2049 14.0341 74.434 14.2775V13.8697C74.1232 14.1896 73.7655 14.4604 73.3731 14.6727C73.2589 14.7436 73.1234 14.7724 72.9902 14.7542C72.8308 14.7434 72.673 14.716 72.5193 14.6727C71.7986 14.5191 71.1004 14.2746 70.4414 13.945C70.115 13.7756 69.8137 14.2775 70.1527 14.4469C70.4763 14.6105 70.8121 14.7489 71.1571 14.8609C71.594 15.0288 72.0431 15.163 72.5005 15.2623C72.8779 15.3765 73.2839 15.3498 73.643 15.1871C74.0896 14.9482 74.4963 14.6414 74.8484 14.2775C74.9009 14.2226 74.9303 14.1496 74.9303 14.0736C74.9303 13.9976 74.9009 13.9246 74.8484 13.8697C74.3011 13.2983 73.5548 12.9591 72.7642 12.9225C72.0911 12.9557 71.4227 13.0523 70.7679 13.2111C70.3975 13.2675 70.5544 13.8384 70.9185 13.7694Z" fill="#393939"/>
<path d="M57.7983 24.7096C57.5447 24.2333 57.2439 23.7836 56.9006 23.3672C56.8737 23.3395 56.8414 23.3175 56.8059 23.3024C56.7703 23.2874 56.732 23.2797 56.6934 23.2797C56.6548 23.2797 56.6165 23.2874 56.5809 23.3024C56.5454 23.3175 56.5132 23.3395 56.4862 23.3672C56.4337 23.4221 56.4043 23.4951 56.4043 23.5711C56.4043 23.647 56.4337 23.7201 56.4862 23.775L56.5804 23.8816V23.913L56.6306 23.982C56.706 24.0823 56.775 24.189 56.8441 24.2893C57.0073 24.5277 57.1517 24.7724 57.296 25.0233C57.3353 25.0888 57.3985 25.1365 57.4723 25.1564C57.546 25.1763 57.6246 25.1668 57.6915 25.1299C57.7565 25.0885 57.803 25.0238 57.8217 24.9492C57.8404 24.8745 57.8298 24.7955 57.792 24.7285L57.7983 24.7096Z" fill="#393939"/>
<path d="M58.3821 29.3392C57.7539 28.8398 57.2813 28.1717 57.0198 27.4133C56.9979 27.34 56.9483 27.2781 56.8816 27.2406C56.8148 27.2032 56.7361 27.1931 56.662 27.2126C56.6255 27.222 56.5912 27.2387 56.5612 27.2616C56.5312 27.2845 56.5061 27.3131 56.4874 27.3459C56.4686 27.3786 56.4567 27.4148 56.4522 27.4522C56.4477 27.4897 56.4507 27.5277 56.4611 27.5639C56.7454 28.4199 57.268 29.1772 57.9678 29.7469C57.9946 29.7741 58.0265 29.7958 58.0616 29.8106C58.0968 29.8255 58.1345 29.8333 58.1727 29.8336C58.2109 29.8339 58.2488 29.8266 58.2841 29.8123C58.3195 29.798 58.3517 29.7768 58.379 29.7501C58.4062 29.7233 58.4278 29.6914 58.4427 29.6563C58.4576 29.6211 58.4654 29.5834 58.4657 29.5453C58.466 29.5071 58.4587 29.4693 58.4444 29.4339C58.4301 29.3986 58.4089 29.3664 58.3821 29.3392Z" fill="#393939"/>
<path d="M56.323 23.411C56.2196 23.7867 56.1502 24.1709 56.1159 24.559C56.1159 24.7535 56.1159 24.9416 56.1159 25.1361C56.1159 25.2365 56.1159 25.3368 56.1159 25.4309C56.1032 25.5435 56.1032 25.6571 56.1159 25.7697V25.6191C56.095 25.6932 56.1045 25.7724 56.1422 25.8395C56.1799 25.9065 56.2426 25.9559 56.3167 25.9767C56.3908 25.9975 56.4701 25.988 56.5373 25.9504C56.6044 25.9127 56.6537 25.85 56.6746 25.776C56.6746 25.776 56.6746 25.5439 56.6746 25.6442C56.6777 25.6004 56.6777 25.5563 56.6746 25.5125C56.6746 25.4121 56.6746 25.3118 56.6746 25.2177C56.6746 25.0169 56.6746 24.8162 56.6746 24.5903C56.6986 24.2327 56.7639 23.8791 56.8692 23.5365C56.8806 23.4649 56.8653 23.3916 56.8261 23.3306C56.787 23.2697 56.7267 23.2252 56.6568 23.2058C56.5869 23.1864 56.5123 23.1934 56.4473 23.2255C56.3822 23.2576 56.3313 23.3124 56.3042 23.3797L56.323 23.411Z" fill="#393939"/>
<path d="M56.0028 30.5185C55.1891 30.0814 54.3218 29.7524 53.4227 29.5399C53.2595 29.5022 53.0273 29.6214 53.0524 29.8159C53.2344 31.2148 54.5088 32.1244 55.6576 32.7454L55.5132 32.4945C55.5516 34.7549 55.7256 37.011 56.0342 39.2506C56.0359 39.3072 56.0539 39.3622 56.0861 39.4089C56.1182 39.4555 56.1631 39.492 56.2154 39.5138C56.2678 39.5357 56.3253 39.542 56.3811 39.532C56.4369 39.522 56.4887 39.4962 56.5302 39.4576C57.0135 38.9683 57.522 38.5041 58.0431 38.0462L58.8027 37.3812C58.9161 37.295 59.0095 37.1853 59.0767 37.0598C59.1438 36.9342 59.1831 36.7956 59.1919 36.6535C59.4096 35.3026 59.382 33.9235 59.1103 32.5823C59.0957 32.5336 59.0688 32.4895 59.0321 32.4543C58.9954 32.4191 58.9502 32.394 58.9009 32.3813C58.8517 32.3687 58.8 32.369 58.7509 32.3823C58.7017 32.3955 58.6569 32.4212 58.6206 32.4569L58.5516 32.5447H58.9596C58.0659 31.7549 57.0793 31.0766 56.0217 30.5248C55.689 30.3491 55.3939 30.8509 55.7266 31.0266C56.7439 31.5526 57.6926 32.2015 58.5516 32.9587C58.6065 33.0112 58.6796 33.0405 58.7556 33.0405C58.8316 33.0405 58.9047 33.0112 58.9596 32.9587L59.035 32.8646L58.5453 32.7391C58.8087 34.001 58.8343 35.3008 58.6206 36.572C58.5453 36.9045 58.313 37.0362 58.0619 37.2557L57.4342 37.8266C56.9947 38.2218 56.5553 38.6233 56.1347 39.0812L56.6306 39.2819C56.324 37.0422 56.1521 34.7861 56.1159 32.5258C56.1143 32.4754 56.1003 32.4261 56.0751 32.3823C56.0499 32.3386 56.0143 32.3017 55.9715 32.2749C55.0424 31.7731 53.7994 31.0203 53.655 29.8473L53.2846 30.1296C54.1375 30.3289 54.9605 30.639 55.7329 31.0517C56.0594 31.2211 56.3607 30.7192 56.0217 30.5498L56.0028 30.5185Z" fill="#393939"/>
<path d="M55.6576 32.7453C56.2878 33.0717 56.9452 33.3424 57.6225 33.5546C57.9131 33.6507 58.2113 33.722 58.5139 33.7678C58.7336 33.7678 59.0538 33.7992 59.1417 33.5608C59.1789 33.493 59.1886 33.4135 59.1687 33.3388C59.1488 33.264 59.1009 33.1998 59.035 33.1594C58.9681 33.1225 58.8894 33.113 58.8157 33.1329C58.7419 33.1528 58.6787 33.2005 58.6395 33.266C58.6395 33.266 58.6897 33.2158 58.7085 33.2033C58.7273 33.1907 58.7713 33.2033 58.7085 33.2033C58.6457 33.2033 58.6771 33.2033 58.7085 33.2033H58.6458H58.5014H58.4637H58.3758C58.1121 33.1531 57.861 33.0715 57.6037 32.9962C57.0199 32.8049 56.453 32.5658 55.9087 32.2811C55.576 32.1118 55.2809 32.6136 55.6136 32.783L55.6576 32.7453Z" fill="#393939"/>
<path d="M59.0789 33.8181C59.5244 33.6403 59.8871 33.3024 60.0959 32.8709C60.3395 32.4817 60.5495 32.0724 60.7236 31.6476C60.9241 31.2303 61.0555 30.7833 61.1129 30.324C61.1129 30.0731 61.1128 29.8222 61.1442 29.565C61.1756 29.3078 61.2258 28.969 61.2447 28.6679C61.2447 28.4609 61.0501 28.3668 60.8743 28.3857C60.0582 28.5048 59.6878 29.4333 59.4493 30.1107C59.2525 30.9444 58.9553 31.7512 58.5641 32.5133C58.357 32.827 58.8592 33.1406 59.0663 32.8082C59.4502 32.0907 59.7352 31.3247 59.9138 30.531C60.0959 29.9853 60.347 29.0443 61.0312 28.9502L60.6609 28.6679C60.6609 29.1698 60.5353 29.6653 60.5353 30.1735C60.5109 30.5599 60.4152 30.9385 60.2528 31.2901C60.1016 31.6696 59.9167 32.0349 59.7004 32.3816C59.5058 32.7015 59.2986 33.1406 58.9157 33.2598C58.5327 33.379 58.7085 33.931 59.0663 33.8181H59.0789Z" fill="#393939"/>
<path d="M56.9508 39.0623C59.1384 37.518 61.4195 36.1101 63.7809 34.8468C66.1978 33.4605 68.5833 32.0302 70.9876 30.6376C71.9962 30.0521 73.0153 29.4917 74.0448 28.9564C74.8358 28.5424 75.6393 27.8147 76.5559 27.7645C76.9325 27.7645 76.9325 27.1372 76.5559 27.1812C75.7626 27.3071 75.0123 27.6259 74.3712 28.1096C73.5677 28.5989 72.7077 29.0003 71.8602 29.4583C70.3849 30.2801 68.9599 31.1771 67.5098 32.0302C65.0803 33.4542 62.6069 34.8029 60.1901 36.252C58.965 36.9604 57.777 37.731 56.6306 38.5605C56.3356 38.7801 56.6306 39.2882 56.9257 39.0623H56.9508Z" fill="#393939"/>
<path d="M76.4617 27.3443C75.8255 28.987 74.6282 30.3516 73.0816 31.1967C71.5351 32.0417 69.7392 32.3126 68.012 31.9613C67.6479 31.9048 67.4909 32.4631 67.855 32.5259C69.7055 32.9037 71.63 32.6217 73.2941 31.729C74.9581 30.8363 76.2566 29.3892 76.9639 27.6391C77.1208 27.3004 76.6186 27.0118 76.4617 27.3443Z" fill="#393939"/>
<path d="M65.5637 34C68.2973 34.2494 70.9265 35.1719 73.2162 36.6849V36.1893C71.766 37.2181 69.6191 36.5595 68.1187 35.9698C67.5344 35.7307 66.9661 35.4541 66.4175 35.1417C66.1224 34.9786 65.8336 34.8093 65.5574 34.6211C65.4245 34.5298 65.2967 34.4314 65.1745 34.3262L65.0678 34.2133C64.9987 34.1318 65.0678 34.2133 65.0678 34.2133C65.1996 33.862 64.6409 33.7115 64.5091 34.0565C64.2956 34.6211 65.3628 35.1606 65.7144 35.3738C66.3476 35.7608 67.0085 36.1005 67.6918 36.3901C69.3931 37.1052 71.8602 37.8517 73.53 36.6661C73.5715 36.6394 73.6056 36.6027 73.6292 36.5594C73.6528 36.5161 73.6652 36.4676 73.6652 36.4183C73.6652 36.369 73.6528 36.3205 73.6292 36.2772C73.6056 36.2339 73.5715 36.1972 73.53 36.1705C71.1537 34.5995 68.4214 33.6484 65.5825 33.4041C65.2122 33.3665 65.2122 33.9436 65.5825 33.9812L65.5637 34Z" fill="#393939"/>
<path d="M65.8399 33.7867C66.0157 32.7679 66.0788 31.733 66.0282 30.7004C66.0196 29.682 65.7354 28.6849 65.2059 27.8148C65.1819 27.7779 65.1502 27.7467 65.1129 27.7233C65.0756 27.7 65.0336 27.6851 64.9899 27.6798C64.9462 27.6744 64.9019 27.6786 64.8601 27.6922C64.8182 27.7058 64.7798 27.7283 64.7476 27.7583C64.4523 28.1321 64.2791 28.5876 64.2517 29.0631C64.1701 29.6277 64.0885 30.1923 64.0131 30.7631C63.875 31.9111 63.7746 33.2723 64.3082 34.3262C64.4777 34.6587 64.9736 34.3639 64.8104 34.0314C64.3458 33.103 64.4651 31.8735 64.5844 30.8949C64.6409 30.3805 64.735 29.8786 64.7915 29.3642C64.7946 28.942 64.9211 28.5299 65.1557 28.1786L64.7037 28.1222C65.1965 28.9311 65.4571 29.86 65.457 30.807C65.499 31.7578 65.4401 32.7103 65.2812 33.6487C65.2247 34.0126 65.7834 34.1694 65.8399 33.7993V33.7867Z" fill="#393939"/>
<path d="M56.323 23.5678L56.2226 24.6719L56.1661 25.2239V25.4811C56.1473 25.5764 56.1473 25.6744 56.1661 25.7697V25.6191C56.1482 25.6931 56.1589 25.771 56.1962 25.8374C56.2335 25.9037 56.2945 25.9535 56.367 25.9767C56.4037 25.9872 56.442 25.9903 56.4799 25.9859C56.5178 25.9814 56.5545 25.9695 56.5878 25.9509C56.621 25.9322 56.6503 25.9071 56.6738 25.8771C56.6973 25.8471 56.7147 25.8127 56.7248 25.776C56.7309 25.747 56.7309 25.7171 56.7248 25.6881C56.7248 25.6066 56.7248 25.5878 56.7248 25.6254C56.7248 25.663 56.7248 25.6254 56.7248 25.6254V25.5376V25.2867L56.7813 24.7095L56.888 23.5867C56.8777 23.5166 56.8426 23.4527 56.789 23.4064C56.7354 23.3602 56.6669 23.3347 56.5961 23.3347C56.5253 23.3347 56.4568 23.3602 56.4032 23.4064C56.3496 23.4527 56.3145 23.5166 56.3042 23.5867L56.323 23.5678Z" fill="#393939"/>
<path d="M58.7085 7.18271C57.9324 9.54952 57.3571 11.9774 56.9885 14.4406C56.6997 16.837 56.7876 19.2584 56.4611 21.6547C56.4109 22.0185 56.9696 22.1753 57.0198 21.8052C57.34 19.4591 57.2835 17.0879 57.5346 14.7355C57.8885 12.2211 58.4684 9.74369 59.2672 7.33328C59.2872 7.25924 59.2769 7.1803 59.2387 7.11383C59.2004 7.04736 59.1373 6.99881 59.0632 6.97885C58.9891 6.95888 58.9101 6.96914 58.8436 7.00737C58.7771 7.0456 58.7285 7.10867 58.7085 7.18271Z" fill="#393939"/>
<path d="M58.6143 9.70448C58.4655 9.0656 58.2222 8.45245 57.8924 7.88528C57.5376 7.3687 57.0882 6.92386 56.5678 6.57421C55.5509 5.82144 54.3832 4.96204 53.0775 4.87422C53.0393 4.87336 53.0014 4.88023 52.966 4.89443C52.9305 4.90863 52.8983 4.92985 52.8714 4.95682C52.8444 4.98379 52.8231 5.01594 52.8089 5.05134C52.7947 5.08673 52.7878 5.12464 52.7887 5.16277C52.8284 5.75158 53.0475 6.31416 53.4165 6.77495C53.7546 7.27224 54.1236 7.74783 54.5213 8.19893C54.9472 8.7439 55.4871 9.18924 56.1033 9.50374C56.8433 9.78069 57.6298 9.91274 58.4197 9.89267C58.7901 9.89267 58.7901 9.32182 58.4197 9.30928C57.7025 9.33992 56.9865 9.22246 56.3167 8.96425C55.7775 8.6741 55.305 8.27454 54.9294 7.79119C54.5842 7.38953 54.2595 6.9708 53.9563 6.53657C53.6279 6.14593 53.4264 5.66451 53.3788 5.15651L53.09 5.44507C53.655 5.51668 54.1984 5.70694 54.6846 6.00336C55.2214 6.30973 55.7372 6.65132 56.2288 7.02587C56.7024 7.33613 57.1099 7.73694 57.4279 8.20521C57.7119 8.72153 57.9232 9.27461 58.0556 9.84875C58.0655 9.88541 58.0825 9.91976 58.1057 9.94985C58.1289 9.97993 58.1578 10.0052 58.1907 10.0241C58.2237 10.043 58.26 10.0553 58.2977 10.0602C58.3354 10.0651 58.3736 10.0625 58.4103 10.0526C58.447 10.0427 58.4814 10.0257 58.5115 10.0026C58.5416 9.97941 58.5669 9.95054 58.5858 9.91763C58.6047 9.88472 58.617 9.8484 58.6219 9.81075C58.6268 9.7731 58.6242 9.73486 58.6143 9.6982V9.70448Z" fill="#393939"/>
<path d="M57.5032 12.8347C57.0304 12.0629 56.4585 11.3564 55.802 10.7332C55.4715 10.4301 55.1213 10.1493 54.7536 9.89262C54.5564 9.76584 54.3714 9.62093 54.2012 9.45978C54.04 9.29349 53.8587 9.14808 53.6613 9.02693C53.6173 9.00156 53.5674 8.98824 53.5167 8.98828C53.4659 8.98833 53.416 9.00173 53.3721 9.02718C53.3281 9.05263 53.2917 9.08921 53.2664 9.13322C53.2412 9.17723 53.228 9.22711 53.2281 9.27785C53.2613 9.80138 53.4253 10.3082 53.7052 10.752C53.9232 11.2221 54.1728 11.6769 54.4523 12.1133C54.7052 12.5225 55.0357 12.8784 55.4253 13.1609C55.7373 13.3654 56.0751 13.5279 56.4297 13.6439C56.7938 13.7568 57.3023 13.8321 57.5785 13.5059C57.8548 13.1797 57.4091 12.8096 57.1705 13.0919C57.1203 13.1483 57.1328 13.1483 57.0575 13.1609C56.9928 13.1667 56.9276 13.1667 56.8629 13.1609C56.6611 13.123 56.465 13.0598 56.2791 12.9727C55.9128 12.8234 55.5846 12.5941 55.3186 12.3015C54.9426 11.8574 54.63 11.3634 54.3895 10.8336C54.0785 10.3624 53.8808 9.8256 53.812 9.26531L53.3788 9.51623C53.5491 9.6263 53.7051 9.75693 53.8433 9.90516C54.0122 10.0589 54.1927 10.1995 54.3832 10.3255C54.7401 10.5623 55.0781 10.8266 55.3939 11.1159C56.0177 11.7042 56.5602 12.3729 57.0073 13.1044C57.2019 13.4181 57.7041 13.1044 57.5095 12.8096L57.5032 12.8347Z" fill="#393939"/>
<path d="M57.6727 13.5247C58.7097 13.0117 59.8342 12.6988 60.9873 12.6025C61.9415 12.4896 63.0903 12.3767 63.9692 12.8723V12.4018C63.4658 12.7553 62.914 13.0342 62.3307 13.2298C61.7406 13.4431 61.1505 13.6627 60.5541 13.8571C59.9481 14.0598 59.3089 14.1449 58.6709 14.1081C58.4701 14.1114 58.2742 14.047 58.1146 13.9251C57.9551 13.8033 57.8414 13.6313 57.792 13.4368C57.6539 13.0918 57.0952 13.2424 57.2333 13.5874C57.2917 13.8131 57.4021 14.022 57.5558 14.1974C57.7096 14.3728 57.9022 14.5098 58.1184 14.5974C58.7796 14.7596 59.4715 14.7488 60.1273 14.566C60.8475 14.3777 61.556 14.1473 62.2491 13.876C62.9559 13.6601 63.6251 13.3364 64.2329 12.9162C64.2757 12.8898 64.3111 12.8529 64.3356 12.8089C64.3601 12.765 64.373 12.7156 64.373 12.6653C64.373 12.615 64.3601 12.5655 64.3356 12.5216C64.3111 12.4777 64.2757 12.4407 64.2329 12.4143C63.2598 11.8623 62.0294 11.9439 60.9622 12.0693C59.7064 12.1691 58.4813 12.5077 57.3526 13.0667C57.0261 13.2424 57.3149 13.7442 57.6476 13.5686L57.6727 13.5247Z" fill="#393939"/>
<path d="M58.6207 9.52254C59.3098 8.88712 60.0933 8.36231 60.9434 7.96681C61.3514 7.76607 61.7657 7.57161 62.1989 7.39596C62.5815 7.18563 63.0253 7.11468 63.4544 7.19524L63.241 6.91294C63.2096 7.24541 62.7325 7.54025 62.4939 7.73471C62.1298 8.00445 61.772 8.26791 61.4142 8.5502C60.9917 8.93339 60.4964 9.22779 59.9578 9.41589C59.4571 9.44726 58.9552 9.37685 58.4825 9.20889C58.1122 9.14615 57.9552 9.71072 58.3256 9.76718C58.8737 9.94738 59.4506 10.024 60.0268 9.99302C60.6701 9.8041 61.2609 9.46919 61.7532 9.01442C62.1738 8.68822 62.6132 8.38711 63.0087 8.04836C63.2104 7.92219 63.3844 7.75657 63.5203 7.56144C63.6563 7.36631 63.7513 7.14572 63.7997 6.91294C63.7985 6.8494 63.7772 6.78787 63.7388 6.73716C63.7005 6.68646 63.6471 6.64917 63.5863 6.63065C63.1168 6.51769 62.6228 6.56861 62.1863 6.77493C61.7155 6.95058 61.2635 7.17014 60.8115 7.40224C59.8583 7.84037 58.9793 8.42454 58.2063 9.13361C57.9364 9.39081 58.3507 9.79855 58.6207 9.54136V9.52254Z" fill="#393939"/>
<path d="M59.2609 7.3834C59.877 6.30309 60.3838 5.16412 60.7739 3.98339C61.0808 2.73199 60.9887 1.41601 60.5102 0.21955C60.487 0.147112 60.4371 0.0861595 60.3708 0.048921C60.3044 0.0116825 60.2264 0.000932695 60.1524 0.0188268C59.9203 0.108325 59.711 0.248135 59.5394 0.428199C59.3679 0.608264 59.2385 0.824103 59.1605 1.06016C58.9358 1.57621 58.7837 2.12086 58.7085 2.6786C58.6081 3.49731 58.6081 4.3252 58.7085 5.14391C58.765 5.71476 59.0538 6.52399 58.7776 7.06974C58.6081 7.40222 59.1103 7.69705 59.2798 7.36458C59.4753 6.83833 59.5059 6.26511 59.3677 5.72104C59.2696 5.0061 59.2276 4.28459 59.2421 3.5631C59.2488 2.94742 59.3482 2.33624 59.5372 1.75018C59.6627 1.36125 59.8762 0.696308 60.3282 0.577119L59.9703 0.376377C60.4252 1.50474 60.5066 2.74899 60.2026 3.92693C59.8255 5.01416 59.3485 6.06415 58.7776 7.06346C58.6144 7.39594 59.1166 7.69077 59.2798 7.3583L59.2609 7.3834Z" fill="#393939"/>
<path d="M57.0198 27.3944C56.8354 26.8465 56.7215 26.2774 56.6808 25.7007C56.6705 25.6307 56.6354 25.5667 56.5818 25.5205C56.5282 25.4742 56.4597 25.4488 56.3889 25.4488C56.3181 25.4488 56.2497 25.4742 56.1961 25.5205C56.1425 25.5667 56.1073 25.6307 56.097 25.7007C55.9401 27.3945 55.7015 29.0756 55.5697 30.7694C55.5713 30.8321 55.5928 30.8926 55.6312 30.9423C55.6696 30.9919 55.7228 31.028 55.7831 31.0454C56.2888 31.2839 56.7684 31.574 57.2144 31.9111C57.6806 32.2333 58.1271 32.5831 58.5516 32.9586C58.6065 33.0112 58.6796 33.0405 58.7556 33.0405C58.8316 33.0405 58.9047 33.0112 58.9596 32.9586C59.1919 32.6638 59.0789 32.4192 59.0161 32.0616L58.7901 30.8948C58.6126 30.1168 58.5221 29.3216 58.5202 28.5236C58.5673 27.8505 58.5547 27.1746 58.4825 26.5037C58.3549 25.8358 58.1037 25.1975 57.7418 24.6218C57.5597 24.2956 57.0575 24.6218 57.2395 24.9166C57.5744 25.4411 57.8066 26.0244 57.9238 26.6354C57.974 27.2764 57.974 27.9203 57.9238 28.5612C57.9949 29.9629 58.2052 31.3539 58.5516 32.714L58.6269 32.4317L58.5579 32.5195H58.9659C58.5041 32.1117 58.0178 31.7325 57.5095 31.3841C57.0215 31.0206 56.4952 30.7114 55.9401 30.462L56.1535 30.7443C56.2854 29.0505 56.5302 27.3694 56.6871 25.6756H56.1033C56.1481 26.303 56.2704 26.9225 56.4674 27.5199C56.5804 27.8775 57.1454 27.7206 57.0261 27.3693L57.0198 27.3944Z" fill="#393939"/>
<path d="M57.8297 24.948C58.4574 23.1225 58.9659 21.2782 59.5121 19.4277C59.8092 18.4282 60.1294 17.4391 60.4725 16.4605C60.7174 15.7642 60.8053 14.8358 61.3263 14.2837C61.5837 14.014 61.1694 13.6063 60.912 13.876C60.472 14.4857 60.1758 15.187 60.0457 15.9273C59.7129 16.9498 59.3488 17.9535 59.0412 18.9823C58.4574 20.9206 57.9113 22.8716 57.271 24.7911C57.1517 25.1487 57.7104 25.2992 57.8297 24.948Z" fill="#393939"/>
<path d="M60.9434 14.0705C61.4538 15.3439 61.4968 16.7566 61.0648 18.0586C60.6327 19.3606 59.7536 20.4678 58.583 21.1842C58.2691 21.3849 58.583 21.8867 58.8717 21.686C60.1469 20.9068 61.1084 19.7055 61.5889 18.2912C62.0695 16.8769 62.0388 15.339 61.5021 13.945C61.3891 13.5875 60.8304 13.7381 60.9434 14.0956V14.0705Z" fill="#393939"/>
<path d="M60.8178 23.3797C60.2851 23.5818 59.7399 23.7495 59.1856 23.8815C58.922 23.9443 58.6583 24.007 58.3884 24.0509H58.2628H58.1059H57.9615C58.0494 24.0509 57.8673 24.0007 57.9615 24.0509C57.6225 23.8878 57.3337 24.3834 57.6664 24.5528C57.8814 24.6394 58.1171 24.6612 58.3444 24.6155C58.6422 24.5742 58.9376 24.5177 59.2296 24.4461C59.8186 24.3106 60.3975 24.1345 60.9622 23.9192C61.0347 23.8959 61.0957 23.8462 61.133 23.7798C61.1702 23.7135 61.181 23.6355 61.1631 23.5616C61.1529 23.5249 61.1356 23.4905 61.1121 23.4604C61.0886 23.4304 61.0593 23.4053 61.0261 23.3867C60.9928 23.368 60.9561 23.3561 60.9182 23.3517C60.8803 23.3473 60.8419 23.3504 60.8053 23.3609L60.8178 23.3797Z" fill="#393939"/>
<path d="M60.4098 21.8114C59.9829 22.0435 59.5434 22.2568 59.1103 22.4763C58.6946 22.6808 58.2958 22.9179 57.9175 23.1852C57.8532 23.2255 57.8064 23.2886 57.7866 23.3619C57.7668 23.4352 57.7755 23.5132 57.8108 23.5804C57.8501 23.6476 57.9144 23.6964 57.9897 23.7164C58.065 23.7364 58.1451 23.7258 58.2126 23.687C58.5909 23.4197 58.9897 23.1827 59.4053 22.9782C59.8385 22.7523 60.2779 22.5453 60.7048 22.3132C61.0375 22.1376 60.7425 21.6357 60.4098 21.8114Z" fill="#393939"/>
<path d="M58.3381 23.2793C57.9017 22.614 57.3921 21.9996 56.819 21.4476C56.2656 20.8792 55.5696 20.4698 54.8038 20.262C54.7604 20.2505 54.7149 20.2491 54.6708 20.2579C54.6268 20.2667 54.5853 20.2854 54.5496 20.3126C54.5138 20.3398 54.4848 20.3749 54.4647 20.415C54.4445 20.4552 54.4339 20.4994 54.4334 20.5443C54.4717 20.9572 54.6386 21.3477 54.9105 21.6609C55.1742 22.0247 55.419 22.4011 55.689 22.7649C56.1879 23.5596 56.9018 24.1968 57.748 24.6029C58.0996 24.7284 58.2502 24.1701 57.905 24.0446C57.5417 23.896 57.2159 23.6689 56.9508 23.3797C56.65 23.0814 56.3749 22.7582 56.1284 22.4136C55.8961 22.1 55.6827 21.7863 55.4504 21.4601C55.2106 21.2067 55.0512 20.888 54.9922 20.5443L54.6218 20.8203C55.3119 21.0077 55.9374 21.3809 56.4297 21.8993C56.949 22.4041 57.412 22.9635 57.8108 23.5679C58.018 23.8753 58.5202 23.5679 58.313 23.2793H58.3381Z" fill="#393939"/>
<path d="M62.7764 22.8528C62.5605 22.4873 62.2894 22.1572 61.9729 21.8742C61.7985 21.7259 61.6067 21.5995 61.4016 21.4978C61.2266 21.3692 61.0395 21.2579 60.8429 21.1653C60.7689 21.1474 60.6909 21.1582 60.6245 21.1954C60.5581 21.2326 60.5083 21.2936 60.4851 21.3661C60.4704 21.5749 60.4704 21.7845 60.4851 21.9934C60.4569 22.2288 60.4569 22.4668 60.4851 22.7022C60.5165 22.903 60.5667 23.11 60.6106 23.3295C60.6513 23.5446 60.7145 23.7549 60.799 23.9568C60.8383 24.0223 60.9014 24.07 60.9752 24.0899C61.049 24.1098 61.1276 24.1003 61.1945 24.0635C61.2605 24.023 61.3083 23.9588 61.3282 23.8841C61.3481 23.8093 61.3384 23.7298 61.3012 23.662C61.2398 23.495 61.1936 23.3229 61.1631 23.1476C61.1631 22.9594 61.0877 22.7775 61.0501 22.5956C61.0281 22.4101 61.0281 22.2227 61.0501 22.0373C61.0344 21.862 61.0344 21.6856 61.0501 21.5103L60.6923 21.7111C60.7634 21.7506 60.8307 21.7969 60.8931 21.8491C60.9677 21.9016 61.0452 21.9498 61.1254 21.9934C61.2935 22.0743 61.4498 22.1777 61.59 22.3007C61.8659 22.5428 62.1048 22.8239 62.2993 23.135C62.3385 23.2016 62.4024 23.2499 62.4772 23.2693C62.5519 23.2887 62.6314 23.2777 62.698 23.2386C62.7646 23.1995 62.8129 23.1355 62.8323 23.0608C62.8517 22.9861 62.8407 22.9068 62.8015 22.8402L62.7764 22.8528Z" fill="#393939"/>
</g>
<defs>
<clipPath id="clip0_206_23">
<rect width="88" height="68" fill="white"/>
</clipPath>
</defs>
</svg>
