<svg width="121" height="84" viewBox="0 0 121 84" fill="none" xmlns="http://www.w3.org/2000/svg">
<g clip-path="url(#clip0_206_2)">
<path d="M120.273 9.41567C118.694 12.0872 117.024 14.7112 115.617 17.48C114.183 20.3207 113.093 23.3199 112.368 26.4151C111.629 29.586 111.098 32.8012 110.778 36.0404C110.436 39.3511 110.273 42.678 109.967 45.9922C109.819 47.6064 109.663 49.2346 109.369 50.828C109.107 52.2525 108.694 53.6456 108.137 54.984C107.569 56.3493 106.829 57.6115 106.064 58.8749C105.274 60.1834 104.481 61.492 103.633 62.7635C102.845 63.9586 101.982 65.1034 101.049 66.1911C100.403 66.9346 99.6496 67.8934 98.6796 68.2257C97.5895 68.5986 97.0031 67.2901 96.7408 66.4656C96.3502 65.2393 96.2803 63.8937 96.4015 62.6187C96.5359 61.3244 96.9388 60.0717 97.5849 58.9398C98.2727 57.6891 99.1005 56.523 99.8187 55.2874C100.537 54.0519 101.077 52.6854 101.598 51.341C102.15 49.9178 102.634 48.4529 102.867 46.9406C102.981 46.213 103.02 45.4758 102.984 44.7404C102.972 44.5088 102.699 44.4625 102.527 44.5262C102.421 44.5678 102.331 44.6414 102.27 44.7366C102.209 44.8318 102.179 44.9437 102.185 45.0565C102.261 46.5909 101.915 48.1183 101.445 49.5727C100.973 51.0283 100.414 52.4548 99.772 53.8446C98.5817 56.4304 96.4738 58.575 95.8139 61.4017C95.5217 62.6986 95.4625 64.0365 95.639 65.3539C95.7174 65.9948 95.8696 66.6246 96.0926 67.231C96.2989 67.7811 96.595 68.374 97.0731 68.7364C97.9614 69.4196 99.041 68.9784 99.8326 68.3659C100.789 67.6271 101.581 66.6671 102.336 65.7291C104.276 63.3112 105.886 60.6154 107.448 57.9462C108.967 55.3545 109.957 52.4911 110.363 49.5195C110.829 46.1694 111.016 42.7915 111.274 39.4229C111.514 36.069 111.929 32.7298 112.52 29.4189C113.102 26.202 113.924 23.0129 115.223 20.0021C116.469 17.1071 118.106 14.4043 119.73 11.7085C120.13 11.043 120.528 10.3768 120.925 9.70981C121.225 9.2026 120.539 8.96753 120.273 9.41799V9.41567Z" fill="#6C6A39"/>
<path d="M102.042 47.1282C100.769 48.0627 99.3022 48.6544 97.8892 49.34C97.1521 49.6849 96.4414 50.0828 95.7626 50.5304C95.0281 51.0295 94.3694 51.634 93.7235 52.2384C93.0776 52.8429 92.4271 53.4995 91.7894 54.1399C91.1855 54.7467 90.5582 55.3326 89.9974 55.9788C88.9413 57.2227 88.0283 58.5798 87.2751 60.0248C86.5092 61.4538 85.8307 62.9337 85.1929 64.4252C84.5039 66.0348 84.0749 67.744 83.6342 69.4324C83.4216 70.3121 83.2877 71.2088 83.2343 72.112C83.1655 72.9967 83.092 73.8756 82.9685 74.7557C82.7435 76.3433 82.4858 77.9367 81.9192 79.4444C81.635 80.1923 81.2695 80.9072 80.8291 81.5763C80.6822 81.7998 80.5295 82.0187 80.3628 82.2294C80.4176 82.1588 80.322 82.2792 80.3208 82.2804L80.2602 82.3533C80.2077 82.4147 80.1552 82.4691 80.1016 82.534C79.9936 82.6513 79.8796 82.763 79.76 82.8686C79.8253 82.8119 79.7099 82.908 79.7087 82.9092L79.6353 82.9636C79.5746 83.0064 79.5187 83.0481 79.4487 83.0794C79.3788 83.1107 79.4184 83.0944 79.4359 83.0863C79.3986 83.1037 79.3601 83.1211 79.3193 83.1361L79.2424 83.1628C79.3135 83.1408 79.2074 83.1709 79.1911 83.1732C79.1525 83.1798 79.1136 83.1841 79.0745 83.1859C79.0931 83.1859 79.1316 83.1859 79.0593 83.1859C79.0267 83.1859 78.9952 83.1778 78.9626 83.1732C78.9299 83.1686 78.9684 83.1963 78.9626 83.1732L78.9276 83.1558C79.0174 83.2056 78.9521 83.1743 78.9276 83.1558C78.9031 83.1373 78.8588 83.0933 78.8262 83.0597C78.6645 82.8807 78.5256 82.6828 78.4123 82.4703C78.2572 82.2053 78.117 81.932 77.9926 81.6516C77.8927 81.4387 77.8119 81.2174 77.7512 80.9904C77.6347 80.4762 76.8524 80.8746 76.9538 81.3076C77.1055 81.8783 77.3392 82.4243 77.6475 82.9288C77.8865 83.3434 78.1943 83.9224 78.7247 83.9861C79.3998 84.066 80.0165 83.6005 80.4619 83.1523C80.9073 82.6881 81.2984 82.1753 81.6277 81.6238C82.5289 80.1809 83.0559 78.569 83.3905 76.9142C83.5549 76.1036 83.6773 75.2733 83.7916 74.4477C83.9186 73.5421 83.9781 72.6331 84.0539 71.7217C84.1222 70.8404 84.2677 69.9667 84.4887 69.1105C84.7219 68.2489 84.9446 67.3885 85.2081 66.5374C85.7082 64.9255 86.4101 63.3853 87.1387 61.8637C87.8264 60.3873 88.6421 58.973 89.5766 57.637C90.5629 56.259 91.8104 55.101 93.0112 53.9048C93.6699 53.2482 94.3379 52.6009 95.0375 51.9871C95.6546 51.4458 96.3284 50.9718 97.0474 50.5732C98.4523 49.7927 99.969 49.2323 101.361 48.4194C101.706 48.2177 102.04 47.9985 102.363 47.7628C102.528 47.647 102.68 47.4038 102.575 47.1965C102.47 46.9892 102.204 47.0101 102.045 47.1259L102.042 47.1282Z" fill="#6C6A39"/>
<path d="M80.9737 54.5996C80.5711 55.9259 80.0348 57.2085 79.373 58.4279C79.057 59.0266 78.6898 59.6137 78.6583 60.3097C78.6233 61.0624 78.7282 61.8151 78.7317 62.5689C78.7387 64.1299 78.8483 65.6862 78.9253 67.2449C78.9614 68.015 78.9847 68.785 78.9754 69.5551C78.9649 70.3426 78.9159 71.1288 78.8751 71.914C78.7935 73.4634 78.6898 75.0128 78.4776 76.5459C78.4181 76.9732 78.3517 77.4006 78.2666 77.8197C78.2467 77.9216 78.2257 78.0236 78.2024 78.1255C78.1919 78.1776 78.1791 78.2297 78.1674 78.2818C78.1441 78.3849 78.1814 78.2239 78.1674 78.2887L78.1395 78.4045C78.0858 78.6199 78.0229 78.8353 77.9599 79.0472C77.897 79.2591 77.8107 79.4931 77.7268 79.7108C77.686 79.8127 77.6416 79.9134 77.595 80.013L77.5659 80.0721C77.616 79.969 77.5659 80.0721 77.5577 80.0859C77.5309 80.1392 77.5041 80.1902 77.4749 80.2423C77.4236 80.3326 77.37 80.4229 77.3117 80.5098C77.2872 80.548 77.2604 80.5862 77.2336 80.6256L77.18 80.6985C77.1182 80.7854 77.2488 80.6175 77.18 80.6985C77.1112 80.7796 77.0541 80.8468 76.9841 80.9151C76.9503 80.9487 76.9142 80.9799 76.8803 81.0123C76.8092 81.0795 76.9503 80.9614 76.8978 80.9985C76.871 81.017 76.8465 81.039 76.8197 81.0575C76.7929 81.076 76.7451 81.1108 76.7031 81.1363C76.6612 81.1617 76.5539 81.2428 76.6612 81.164C76.5819 81.2102 76.4969 81.2457 76.4082 81.2694C76.3849 81.2775 76.2916 81.2949 76.4082 81.2694L76.3534 81.2822C76.3067 81.2903 76.2613 81.2995 76.2146 81.3053C76.168 81.3111 76.119 81.3146 76.0701 81.3181C75.9745 81.3238 76.1423 81.3285 76.0549 81.3181C76.0293 81.3181 76.0036 81.3181 75.9768 81.3181C75.95 81.3181 75.8952 81.3042 75.8532 81.2961C75.9546 81.3157 75.8346 81.288 75.8066 81.2764C75.7786 81.2648 75.7343 81.2416 75.6982 81.2231C75.683 81.2162 75.6702 81.2057 75.6562 81.1988C75.7425 81.2463 75.6644 81.1988 75.6445 81.1872C75.5813 81.1379 75.5227 81.0828 75.4697 81.0228C75.4405 80.9892 75.4137 80.9556 75.3869 80.9209C75.4463 80.9973 75.3484 80.8595 75.3344 80.8375C75.227 80.6583 75.1376 80.469 75.0674 80.2724C75.0511 80.2284 75.0359 80.1832 75.0208 80.1381C75.0115 80.1137 75.0033 80.0883 74.9951 80.0628C75.0173 80.1311 74.9951 80.0628 74.9951 80.0454C74.9625 79.9296 74.9322 79.8254 74.9042 79.7142C74.7993 79.295 74.7247 78.8701 74.65 78.4404C74.5696 77.9772 74.46 77.5291 74.3761 77.0705C74.2469 76.388 74.1542 75.6992 74.0986 75.007C74.0764 74.7094 74.0613 74.3932 74.0601 74.1188C74.0601 73.9103 73.933 73.7471 73.7104 73.7783C73.5087 73.8061 73.2638 74.0192 73.2638 74.2415C73.2638 75.5987 73.4725 76.9281 73.7512 78.2528C73.9307 79.1063 74.024 79.9759 74.3341 80.8004C74.4775 81.1791 74.6839 81.5821 75.0103 81.8426C75.1871 81.9737 75.3914 82.0635 75.608 82.1054C75.8246 82.1473 76.0478 82.1402 76.2613 82.0847C77.2476 81.8727 77.8841 81.0517 78.3015 80.1936C78.7189 79.3356 78.9462 78.4034 79.1176 77.4758C79.3424 76.1782 79.4946 74.8692 79.5735 73.5548C79.6901 71.9522 79.7985 70.3356 79.781 68.7272C79.7635 67.1187 79.6423 65.5322 79.5758 63.9342C79.542 63.1387 79.5583 62.3408 79.5152 61.5452C79.4942 61.1654 79.4592 60.7844 79.4604 60.4035C79.4486 60.094 79.5051 59.7857 79.6259 59.5002C79.6376 59.4724 79.6493 59.4458 79.6621 59.4192C79.6621 59.4192 79.7239 59.2895 79.6889 59.3613C79.7227 59.2929 79.7589 59.2258 79.795 59.1586C79.8813 58.9965 79.9699 58.8355 80.055 58.6734C80.2322 58.3353 80.4047 57.9944 80.5726 57.6509C80.8788 57.0242 81.1512 56.3818 81.3887 55.7263C81.5123 55.3789 81.6219 55.0385 81.7245 54.6841C81.7805 54.4919 81.7245 54.2672 81.4913 54.2383C81.3774 54.234 81.2651 54.2665 81.1712 54.3307C81.0773 54.395 81.0068 54.4877 80.9702 54.5949L80.9737 54.5996Z" fill="#6C6A39"/>
<path d="M82.6514 55.2839C82.3016 55.7101 82.0684 56.2103 81.8574 56.7094C81.8084 56.8252 81.7606 56.941 81.7105 57.0568C81.686 57.1124 81.6604 57.1726 81.6347 57.2236C81.6219 57.2502 81.6102 57.278 81.5962 57.3046C81.6277 57.2409 81.5659 57.3614 81.5671 57.3614C81.4365 57.6069 81.2931 57.8454 81.1591 58.0897C80.5843 59.1435 80.1284 60.2413 79.6679 61.3472C79.439 61.9208 79.1758 62.4803 78.8798 63.0228C78.7842 63.1919 78.7562 63.449 78.9684 63.5451C79.1806 63.6412 79.4347 63.4918 79.5315 63.3135C80.0969 62.313 80.4933 61.2291 80.941 60.1765C81.1637 59.6519 81.3957 59.1621 81.658 58.6711C81.9204 58.1801 82.2305 57.6763 82.4625 57.1506C82.5791 56.8947 82.6793 56.6353 82.7971 56.3817C82.8402 56.2879 82.8904 56.1883 82.9661 56.0575C82.9999 56.0007 83.0349 55.9417 83.0722 55.8884C83.0885 55.8641 83.106 55.8409 83.1224 55.8178C83.1783 55.7355 83.0851 55.8594 83.1538 55.7772C83.2797 55.6255 83.387 55.3754 83.218 55.211C83.0489 55.0465 82.7761 55.1438 82.6514 55.2943V55.2839Z" fill="#6C6A39"/>
<path d="M76.5376 50.5605C76.4708 50.7683 76.393 50.9724 76.3044 51.172C76.2857 51.2148 76.2659 51.2588 76.2461 51.3017C76.2368 51.3213 76.1832 51.4325 76.217 51.3642C76.168 51.4615 76.1179 51.5576 76.0654 51.6525C75.8535 52.0266 75.6199 52.3881 75.3659 52.7353C74.8751 53.4301 74.3341 54.0762 73.8608 54.778C73.3874 55.4797 72.998 56.2301 72.8115 57.0569C72.7204 57.4751 72.6929 57.9044 72.7299 58.3307C72.7718 58.8576 72.9362 59.3578 73.0855 59.8627C73.8281 62.3582 74.6197 64.8421 75.1584 67.3897C75.3884 68.4313 75.5473 69.4871 75.634 70.5499C75.6457 70.7085 75.6538 70.866 75.6608 71.0247C75.6608 71.1092 75.6608 71.1937 75.6678 71.2771C75.6678 71.2019 75.6678 71.291 75.6678 71.3188V71.4589C75.6665 71.7686 75.647 72.0779 75.6095 72.3853C75.5909 72.5278 75.5676 72.6702 75.5373 72.8103C75.5373 72.8277 75.5291 72.8451 75.5256 72.8624C75.5139 72.9157 75.5466 72.7848 75.5314 72.8369C75.5221 72.8659 75.5163 72.896 75.5081 72.925C75.4895 72.991 75.4696 73.0558 75.4475 73.1195C75.4253 73.1832 75.4055 73.2353 75.3822 73.2909C75.3706 73.3187 75.3531 73.3488 75.3437 73.3777C75.3344 73.4067 75.3659 73.321 75.3682 73.3291C75.3598 73.3505 75.3493 73.3711 75.3367 73.3905C75.3111 73.4368 75.2843 73.482 75.2551 73.526C75.24 73.5503 75.2225 73.5734 75.2062 73.5978C75.1409 73.6904 75.2691 73.5306 75.2062 73.5978C75.17 73.6371 75.1339 73.6742 75.0966 73.7136C75.0324 73.7796 75.128 73.6915 75.1187 73.6973C75.1094 73.7031 75.0698 73.7355 75.0441 73.7529C75.0185 73.7703 75.0033 73.7784 74.9823 73.7923C74.9019 73.8456 74.9881 73.7923 74.9916 73.7923C74.9379 73.8103 74.8854 73.8316 74.8343 73.856C74.7491 73.8896 74.9089 73.8421 74.8424 73.856L74.755 73.8734C74.692 73.8838 74.6302 73.8873 74.5684 73.893C74.5066 73.8988 74.6466 73.893 74.544 73.893H74.453C74.3782 73.8877 74.3038 73.8777 74.2303 73.8629C74.1674 73.8502 74.27 73.878 74.2105 73.8629C74.1864 73.8553 74.1626 73.8464 74.1394 73.8363C74.0993 73.819 74.0604 73.7993 74.0228 73.7772C73.9924 73.7628 73.9644 73.7437 73.94 73.7205C73.8981 73.6869 73.8584 73.6522 73.8235 73.6151C73.6743 73.4683 73.545 73.3028 73.4387 73.123C73.1846 72.7154 72.9502 72.2846 72.7287 71.8596C72.1458 70.7468 71.7482 69.5552 71.1991 68.4296C70.685 67.3747 70.074 66.3661 69.6368 65.2764C69.4176 64.6957 69.2335 64.1025 69.0854 63.5C68.9163 62.8677 68.7543 62.2262 68.6191 61.5928C68.3456 60.3496 68.1895 59.0839 68.1527 57.8119C68.1251 56.54 68.171 55.2676 68.2903 54.001C68.3987 52.7364 68.5095 51.4615 68.7566 50.2155C69.0026 48.9961 69.3675 47.8045 69.7336 46.6164C69.919 46.0177 70.1125 45.4202 70.2804 44.8169C70.411 44.3467 70.4903 43.8638 70.601 43.3891C70.6418 43.2154 70.7094 42.9652 70.7794 42.7661C70.8155 42.663 70.8552 42.5623 70.896 42.4627C70.896 42.4499 70.9344 42.3874 70.896 42.4522C70.9088 42.4291 70.9205 42.4048 70.9344 42.3816C70.9601 42.3364 70.9881 42.2936 71.0172 42.2508C71.1268 42.0886 71.1338 41.82 70.9275 41.7273C70.7211 41.6347 70.4798 41.7899 70.3643 41.9589C70.0869 42.3689 69.9458 42.8575 69.8315 43.3335C69.7674 43.601 69.715 43.8696 69.6555 44.1441C69.6322 44.2599 69.6089 44.3653 69.5832 44.4753C69.5832 44.4926 69.5517 44.6119 69.5646 44.5598C69.5482 44.6246 69.5319 44.6895 69.5133 44.7532C69.1635 45.9865 68.7508 47.1989 68.408 48.4333C68.0574 49.6886 67.8075 50.9695 67.6607 52.264C67.5173 53.5586 67.3949 54.8556 67.3483 56.1571C67.2898 57.4711 67.3366 58.7877 67.4882 60.0943C67.6526 61.4202 67.9825 62.7207 68.3311 64.0084C68.4883 64.6278 68.6829 65.2372 68.914 65.8334C69.1367 66.38 69.4013 66.9068 69.6753 67.4291C69.961 67.9745 70.2583 68.5153 70.5217 69.0711C70.7969 69.6501 71.037 70.2442 71.2854 70.8348C71.5337 71.4253 71.7832 71.9928 72.0852 72.5521C72.3025 72.9768 72.5415 73.3904 72.801 73.7911C73.0726 74.186 73.4026 74.5473 73.8876 74.6654C74.1803 74.7355 74.4856 74.7355 74.7783 74.6654C76.0759 74.3423 76.4105 72.8844 76.4618 71.7334C76.5236 70.448 76.3522 69.1522 76.1179 67.8911C75.7471 65.8947 75.1852 63.9366 74.6139 61.9853C74.4215 61.338 74.2257 60.6907 74.031 60.0434C73.8643 59.4899 73.6614 58.9317 73.5646 58.3597C73.4935 57.9572 73.4959 57.5454 73.5716 57.1438C73.5798 57.094 73.5903 57.0442 73.6008 56.9944C73.6008 56.9689 73.6113 56.9446 73.6171 56.9191C73.6171 56.9272 73.6031 56.9759 73.6171 56.9307C73.6451 56.8265 73.6742 56.7234 73.708 56.6227C73.7726 56.4308 73.8485 56.2429 73.9354 56.0599L73.968 55.9904C73.968 55.9904 73.9377 56.0518 73.961 56.0066C73.9843 55.9614 74.0077 55.9151 74.0321 55.87C74.0834 55.7738 74.1371 55.6777 74.193 55.5839C74.2968 55.4091 74.4064 55.2365 74.5195 55.0709C74.7608 54.7154 75.0196 54.3761 75.2784 54.0287C75.8019 53.3409 76.3347 52.6519 76.7474 51.8899C76.9624 51.4994 77.1396 51.0896 77.2767 50.6659C77.3362 50.4748 77.2767 50.2479 77.0436 50.2201C76.9296 50.216 76.8174 50.2485 76.7236 50.3128C76.6297 50.377 76.5592 50.4696 76.5224 50.5768L76.5376 50.5605Z" fill="#6C6A39"/>
<path d="M70.4518 41.8442C70.366 41.9483 70.2745 42.0476 70.1778 42.1418C70.1358 42.1835 70.0927 42.2221 70.0484 42.2576L69.9819 42.3167C70.0496 42.2576 69.9423 42.3491 69.9376 42.3526C69.7336 42.5127 69.5194 42.6597 69.2964 42.7926C68.8546 43.0578 68.4418 43.25 67.951 43.499C67.0708 43.9471 66.2605 44.4995 65.4153 45.0044C65.2987 45.0762 65.1716 45.148 65.0492 45.2174L64.8696 45.3182L64.7985 45.3564C64.7915 45.3564 64.6819 45.4213 64.7612 45.3773C64.5613 45.4841 64.355 45.5784 64.1433 45.6598C64.0365 45.6999 63.9455 45.7732 63.884 45.8687C63.8224 45.9643 63.7936 46.077 63.8017 46.1902C63.839 46.4137 64.0687 46.4739 64.2587 46.4032C64.6939 46.2284 65.1132 46.0169 65.512 45.771C65.9446 45.5197 66.3689 45.2522 66.7945 44.9847C66.9659 44.8758 67.1361 44.7681 67.3086 44.6628C67.4252 44.591 67.5418 44.5226 67.6584 44.4566C67.7108 44.4265 67.7645 44.3976 67.8181 44.3686L67.9615 44.2945C68.4663 44.0351 68.9816 43.7931 69.4771 43.5094C70.0352 43.202 70.5348 42.7999 70.9531 42.3213C71.0778 42.1696 71.1863 41.9206 71.0161 41.7562C70.8458 41.5918 70.5754 41.689 70.4506 41.8384L70.4518 41.8442Z" fill="#6C6A39"/>
<path d="M57.9048 45.199C57.3219 47.1826 57.1085 49.2867 57.3942 51.3363C57.5224 52.2569 57.7684 53.1613 58.2557 53.9615C58.6395 54.6022 59.148 55.1604 59.7515 55.6036C60.3624 56.0459 61.3045 56.5415 61.9329 55.8352C62.0646 55.6881 62.166 55.431 61.997 55.2701C61.8279 55.1091 61.5609 55.2075 61.4304 55.3534C61.3604 55.431 61.4374 55.3453 61.4444 55.3534C61.4514 55.3615 61.3196 55.4148 61.4071 55.3824C61.4945 55.35 61.3254 55.4102 61.4071 55.3824C61.4688 55.3604 61.3604 55.3824 61.3429 55.3905C61.3254 55.3986 61.3662 55.3905 61.3756 55.3905H61.3383C61.3051 55.3888 61.272 55.3853 61.2392 55.3801L61.1517 55.3627C61.1517 55.3627 61.0969 55.3476 61.1377 55.3627C61.1785 55.3777 61.0934 55.3465 61.0946 55.3465C60.9567 55.2978 60.8236 55.2366 60.697 55.1635C60.6306 55.1265 60.5665 55.0859 60.5023 55.0477L60.458 55.0188C60.458 55.0188 60.4977 55.0466 60.458 55.0188L60.3415 54.9389C59.8099 54.5504 59.3579 54.0646 59.01 53.5076C58.5841 52.7945 58.3095 52.0024 58.2033 51.18C58.066 50.2626 58.0292 49.3331 58.0937 48.4078C58.1675 47.3507 58.3563 46.3048 58.6568 45.2881C58.7127 45.0959 58.6568 44.8712 58.4236 44.8423C58.3097 44.838 58.1974 44.8705 58.1035 44.9347C58.0096 44.999 57.9391 45.0917 57.9025 45.199H57.9048Z" fill="#6C6A39"/>
<path d="M62.0378 40.0355C62.8352 39.592 63.5021 38.9423 64.1736 38.3367C64.8452 37.7311 65.6006 37.1787 66.341 36.6286C67.9732 35.4127 69.6427 34.2513 71.3378 33.1187C73.033 31.9862 74.7317 30.8444 76.3685 29.6239C77.8142 28.547 79.2505 27.4596 80.7044 26.3954C83.6085 24.2693 86.5337 22.1629 89.3317 19.9014C92.1298 17.6398 94.8113 15.2393 97.1617 12.5307C98.408 11.0959 99.5517 9.57202 100.659 8.03189C101.82 6.42227 102.923 4.77328 103.968 3.08492C104.227 2.6665 104.482 2.24537 104.733 1.82154C104.832 1.65363 104.849 1.39424 104.643 1.29929C104.437 1.20433 104.184 1.35487 104.08 1.53089C103.069 3.24009 101.995 4.9107 100.856 6.5427C99.7674 8.106 98.6411 9.65424 97.4333 11.1284C95.1902 13.8636 92.5996 16.3035 89.875 18.5592C87.1201 20.8417 84.2276 22.9515 81.3398 25.0626C78.3015 27.2824 75.3274 29.5857 72.2041 31.6886C70.5252 32.82 68.8347 33.9305 67.199 35.1244C66.3853 35.7119 65.5777 36.3067 64.7764 36.9089C64.0535 37.4531 63.4205 38.1016 62.7268 38.6795C62.4124 38.9472 62.0736 39.1852 61.7148 39.3905C61.5365 39.4901 61.4059 39.7657 61.5026 39.9567C61.6111 40.171 61.8629 40.1212 62.0319 40.0274L62.0378 40.0355Z" fill="#6C6A39"/>
<path d="M82.7283 35.0792C85.4098 33.795 88.2277 32.8107 90.8812 31.4651C92.2184 30.7877 93.5312 30.0304 94.7145 29.1086C95.8285 28.2186 96.8446 27.2141 97.7457 26.1117C98.7752 24.8854 99.716 23.5907 100.687 22.3204C100.804 22.1641 100.792 21.8862 100.597 21.7981C100.378 21.6974 100.159 21.8653 100.034 22.0297C99.6158 22.5763 99.2042 23.1287 98.7869 23.6776C98.5793 23.9524 98.3703 24.2249 98.1596 24.4951L98.0081 24.6897L97.8996 24.8263C97.783 24.9687 97.6735 25.11 97.558 25.2501C97.1115 25.7967 96.6498 26.3329 96.159 26.8447C95.9258 27.0925 95.6822 27.3357 95.4338 27.5708C95.3173 27.6866 95.2007 27.7919 95.0771 27.8996C95.0165 27.9541 94.9605 28.0073 94.8952 28.0606L94.7856 28.1544C94.7856 28.1544 94.669 28.2494 94.7308 28.2019C92.4924 30.0547 89.826 31.2335 87.1621 32.3545C85.6359 32.9971 84.1017 33.6213 82.607 34.3369C82.4112 34.4307 82.2281 34.6334 82.2666 34.8661C82.2765 34.9138 82.2974 34.9586 82.3277 34.9969C82.358 35.0352 82.3969 35.0659 82.4412 35.0867C82.4856 35.1075 82.5342 35.1177 82.5832 35.1166C82.6322 35.1155 82.6803 35.1031 82.7236 35.0804L82.7283 35.0792Z" fill="#6C6A39"/>
<path d="M106.028 26.3908C104.001 28.1567 102.056 30.0269 100.315 32.0719C99.4254 33.1081 98.5955 34.1938 97.8297 35.3236C97.4424 35.8794 97.0919 36.4596 96.7804 37.0606C96.4753 37.6793 96.2124 38.3176 95.9934 38.9713C95.5084 40.3945 95.161 41.8663 94.5839 43.2559C94.5631 43.2999 94.5528 43.348 94.5538 43.3966C94.5547 43.4452 94.567 43.4929 94.5895 43.536C94.6121 43.5792 94.6444 43.6166 94.6838 43.6453C94.7233 43.674 94.7689 43.6933 94.8171 43.7017C95.0503 43.7306 95.2566 43.5442 95.3382 43.345C95.8477 42.1199 96.1788 40.8322 96.5799 39.5723C96.7744 38.9429 97.0029 38.3245 97.2642 37.7195C97.5389 37.121 97.8605 36.5449 98.2261 35.9964C98.9364 34.9095 99.7111 33.8655 100.546 32.8698C101.4 31.8473 102.305 30.8688 103.246 29.925C104.303 28.8666 105.403 27.8533 106.53 26.8714C106.68 26.7428 106.75 26.4556 106.595 26.3063C106.421 26.1407 106.176 26.2611 106.028 26.3896V26.3908Z" fill="#6C6A39"/>
<path d="M19.9922 0.755074C21.0484 2.15973 22.1782 3.5169 23.0444 5.05125C23.4804 5.82479 23.8267 6.6377 24.3199 7.37882C24.7665 8.03497 25.256 8.66125 25.7853 9.25362C28.3246 12.1617 30.9035 15.0363 33.522 17.8772C34.8441 19.3062 36.2105 20.6912 37.6025 22.0576C38.2927 22.7373 38.9852 23.4148 39.6742 24.0968C40.3085 24.7256 40.9205 25.3811 41.6096 25.9496C42.9328 27.0509 44.4251 27.9321 45.8848 28.8388C46.6134 29.2916 47.3456 29.7456 48.0265 30.2678C48.7528 30.826 49.4255 31.442 50.1192 32.0442C50.7814 32.6232 51.4238 33.2022 52.0359 33.8275C52.6479 34.4528 53.2425 35.0642 53.9619 35.5494C55.2653 36.4295 56.7856 36.851 58.2184 37.4636C59.6513 38.0762 60.9116 38.9539 61.6868 40.3389C62.44 41.6833 62.7513 43.2131 63.0672 44.7022C63.4403 46.4647 63.937 48.1925 64.3602 49.9422C64.7612 51.597 65.097 53.3085 65.0247 55.0177C65.0026 55.5654 64.9746 56.2266 64.6749 56.7061C64.6478 56.7668 64.6032 56.8183 64.5469 56.8541C64.4905 56.8899 64.4248 56.9085 64.3578 56.9076C64.1561 56.9308 63.9521 56.8903 63.7749 56.7917C63.3342 56.5729 63.0054 56.1375 62.7513 55.7299C62.4608 55.2529 62.2183 54.7487 62.0273 54.2245C61.5528 52.9507 61.3756 51.5831 61.0631 50.2699C60.683 48.6696 60.1911 47.0622 59.2794 45.6727C58.8423 44.9971 58.2927 44.4003 57.6541 43.9079C57.0083 43.4099 56.3052 42.993 55.6255 42.5437C55.1499 42.2299 54.7138 41.8628 54.2195 41.5768C53.7252 41.2908 53.2565 41.0407 52.7855 40.7546C52.5921 40.6404 52.4052 40.5156 52.2259 40.3806C52.1511 40.3276 52.0795 40.2704 52.0114 40.2092L51.9764 40.1745C51.9496 40.149 51.9461 40.0656 51.9659 40.1675C51.8668 39.6499 51.0857 40.0517 51.1685 40.4837C51.2512 40.9156 51.7514 41.1646 52.0708 41.3718C52.55 41.6799 53.0537 41.9509 53.5491 42.2311C54.0446 42.5113 54.4072 42.8101 54.9167 43.1575C55.5917 43.6126 56.2959 44.0237 56.9465 44.5147C59.7795 46.6523 60.1607 50.4008 60.9314 53.5968C61.1785 54.624 61.5819 55.6627 62.1987 56.5289C62.7874 57.3557 63.9171 58.2114 64.9209 57.446C65.4176 57.0673 65.6135 56.4362 65.7207 55.8491C65.832 55.136 65.8614 54.4126 65.8082 53.6929C65.7137 51.8089 65.2509 49.9677 64.7729 48.1496C64.5281 47.2232 64.2762 46.2968 64.0652 45.3542C63.8938 44.5957 63.7458 43.8326 63.5674 43.0764C63.2106 41.571 62.728 40.054 61.7312 38.8347C60.6994 37.5725 59.1989 36.8939 57.7066 36.3253C56.9523 36.0393 56.191 35.7637 55.4681 35.4058C54.7108 35.0261 54.0171 34.5324 53.4116 33.9421C52.7808 33.3377 52.2037 32.6788 51.5462 32.0974C50.8467 31.471 50.1273 30.8514 49.408 30.2446C48.0405 29.0867 46.4934 28.1973 44.9859 27.2477C44.2479 26.7845 43.5157 26.3051 42.8209 25.7782C42.1195 25.2284 41.4573 24.631 40.8389 23.9903C39.4282 22.581 37.9907 21.1984 36.587 19.7833C33.7528 16.9242 31.0888 13.896 28.426 10.8841C27.2602 9.56628 25.9777 8.28438 25.0089 6.80793C24.5204 6.06102 24.1753 5.24116 23.7334 4.46877C23.2742 3.6855 22.7681 2.93029 22.2178 2.2072C21.6932 1.50083 21.1475 0.811818 20.6182 0.108913C20.3489 -0.250066 19.71 0.386831 19.9887 0.757391L19.9922 0.755074Z" fill="#6C6A39"/>
<path d="M0.00116684 5.72859C0.0909381 7.24209 0.950177 8.63169 1.7348 9.8858C2.62668 11.3136 3.44628 12.7738 4.2857 14.2329C5.20207 15.8252 6.15808 17.4058 6.80163 19.1301C7.42537 20.8011 7.82526 22.5416 8.2916 24.26C8.78709 26.1128 9.3572 27.9436 9.69996 29.83C10.0381 31.6828 10.0975 33.5715 10.0777 35.4532C10.0579 37.335 10.0369 39.2225 9.98093 41.1031C9.92497 42.9837 9.71162 44.8689 9.57405 46.7518C9.45746 48.4077 10.0252 49.8784 10.7959 51.3259C11.1748 52.0323 11.5852 52.7155 11.9617 53.43C12.3535 54.1676 12.6799 54.9354 13.0017 55.7078C13.7012 57.3903 14.3529 59.0972 15.1259 60.7508C15.4955 61.5418 15.9093 62.306 16.3325 63.0668C16.6951 63.7188 16.9924 64.4043 17.306 65.0806C17.8377 66.2235 18.4066 67.5784 19.4699 68.3369C19.9753 68.7032 20.5162 69.0186 21.0846 69.2783C21.4227 69.4277 21.7701 69.5204 22.1339 69.3872C22.8555 69.1208 23.1691 68.2732 23.3417 67.5958C23.5609 66.6559 23.6847 65.6965 23.7113 64.732C23.8265 62.6498 23.721 60.5612 23.3965 58.5009C23.1368 56.8859 22.639 55.3178 21.9193 53.8469C21.1405 52.2639 20.7045 50.5524 20.054 48.9184C19.7428 48.1132 19.3523 47.3406 18.8881 46.6117C18.6211 46.1971 17.9076 46.7379 18.1466 47.1085C19.0793 48.5606 19.6004 50.2003 20.1589 51.8204C20.4249 52.6261 20.7363 53.4163 21.0916 54.1873C21.4499 54.8967 21.7592 55.6295 22.0173 56.3806C22.7319 58.6306 22.9348 61.0346 22.9325 63.3795C22.9391 64.3321 22.892 65.2843 22.7914 66.2316C22.7477 66.6603 22.6765 67.0858 22.5781 67.5054C22.5046 67.8366 22.382 68.155 22.2143 68.4504C22.1943 68.4828 22.1725 68.5141 22.149 68.5442C22.1583 68.5326 22.2061 68.4666 22.149 68.5337C22.127 68.56 22.1028 68.5844 22.0767 68.6067C22.1642 68.5245 22.0907 68.5951 22.0674 68.6067C22.0476 68.6218 22.0248 68.6328 22.0006 68.639C21.9763 68.6452 21.9511 68.6464 21.9263 68.6426C21.5766 68.6171 21.0869 68.2952 20.7442 68.0995C20.2673 67.8216 19.8115 67.5275 19.4617 67.099C19.014 66.5547 18.6841 65.9144 18.3763 65.2867C18.0685 64.6591 17.7794 63.9967 17.4716 63.3575C17.1335 62.6523 16.7266 61.9853 16.3698 61.2905C15.5537 59.7005 14.8939 58.0388 14.2212 56.3864C13.5998 54.859 12.9562 53.3663 12.1448 51.9281C11.394 50.594 10.5557 49.2021 10.3738 47.6562C10.2724 46.8039 10.4216 45.9192 10.4904 45.0646C10.5674 44.1475 10.649 43.2303 10.7049 42.3109C10.8215 40.4952 10.7947 38.6713 10.8367 36.8521C10.8786 34.9993 10.909 33.1465 10.7306 31.2937C10.5557 29.471 10.1127 27.7039 9.62651 25.938C9.15317 24.2206 8.72297 22.4906 8.22748 20.7779C7.76052 19.1001 7.10466 17.4798 6.27233 15.9479C5.41892 14.3811 4.51072 12.8225 3.62816 11.2557C2.88784 9.94022 1.96681 8.72896 1.33724 7.3521C1.03806 6.74394 0.855409 6.08581 0.798615 5.41129C0.784625 5.18548 0.515311 5.13453 0.341598 5.19822C0.235724 5.23923 0.145701 5.31258 0.0845154 5.40769C0.0233294 5.50281 -0.00585697 5.61477 0.00116684 5.72743V5.72859Z" fill="#6C6A39"/>
<path d="M16.5074 45.9181C18.1528 47.1657 19.8278 48.3727 21.5323 49.5392C22.3966 50.1282 23.2686 50.7072 24.1485 51.2762C24.9949 51.8204 25.8658 52.3311 26.7134 52.88C27.5026 53.4144 28.2573 53.9977 28.9728 54.6263C29.7038 55.2469 30.4348 55.863 31.1798 56.4652C32.4401 57.483 33.1233 58.9398 33.543 60.4672C33.7913 61.3751 33.9802 62.2957 34.2541 63.1966C34.5514 64.1716 34.8907 65.1328 35.2393 66.0916C35.9213 67.9629 36.6267 69.8273 37.0697 71.7727C37.4847 73.5885 37.7354 75.4413 38.2974 77.2223C38.5673 78.1085 38.9414 78.9601 39.4119 79.7594C39.8316 80.4542 40.3096 81.1178 40.7049 81.8334C40.8727 82.138 41.0278 82.5282 41.3053 82.7494C41.5828 82.9706 41.9745 82.981 42.3266 82.9891C43.0716 82.9984 43.7746 82.7517 44.2654 82.1727C44.6225 81.7549 44.8472 81.2415 44.9113 80.6971C44.9754 80.1527 44.876 79.6017 44.6256 79.1133C44.4065 78.6756 43.6848 79.2129 43.8842 79.6101C44.0269 79.8808 44.1074 80.1796 44.1199 80.485C44.1324 80.7903 44.0766 81.0946 43.9564 81.376C43.9005 81.5045 43.9961 81.3088 43.9296 81.4316L43.8877 81.5069C43.8503 81.5682 43.8107 81.6227 43.7711 81.6852C43.8294 81.6064 43.7454 81.7153 43.7384 81.7234C43.7314 81.7315 43.7 81.7662 43.6801 81.7859C43.6603 81.8056 43.6195 81.8461 43.588 81.8751C43.5111 81.9481 43.63 81.8519 43.5496 81.9064C43.4691 81.9608 43.4213 81.9967 43.3525 82.0349C43.2837 82.0731 43.4435 81.9955 43.3187 82.05L43.2021 82.1009C43.0643 82.1519 42.919 82.1801 42.7719 82.1843C42.5798 82.194 42.3872 82.1882 42.196 82.1669C42.161 82.1669 42.1272 82.1588 42.0934 82.153C42.0351 82.1426 42.0001 82.1218 42.0782 82.153C42.0258 82.1322 41.9686 82.1021 41.9162 82.0835C42.0141 82.1171 41.9535 82.116 41.9162 82.0754L41.8532 82.0117C41.8311 81.9897 41.7751 81.9029 41.8416 82.0025C41.8183 81.9689 41.7949 81.9353 41.7728 81.9006C41.6679 81.7338 41.5781 81.5532 41.4825 81.3841C41.1012 80.6893 40.6477 80.0466 40.2315 79.3738C39.7652 78.6061 39.3907 77.7868 39.1158 76.9328C38.5527 75.2247 38.3148 73.4298 37.9278 71.6789C37.5069 69.7752 36.8505 67.9421 36.179 66.1136C35.8386 65.1872 35.4993 64.2608 35.1962 63.3159C34.9105 62.4277 34.696 61.5268 34.471 60.6235C34.0863 59.0753 33.5278 57.5375 32.4051 56.3586C32.113 56.0678 31.8014 55.797 31.4724 55.548C31.097 55.2481 30.7298 54.9378 30.3648 54.6216C29.6653 54.0218 28.9658 53.4138 28.2301 52.8545C27.4467 52.2593 26.6038 51.7625 25.7713 51.2414C24.9086 50.701 24.0536 50.1494 23.2065 49.5866C21.5447 48.4873 19.9152 47.3432 18.318 46.1543C17.9232 45.8625 17.5299 45.568 17.1381 45.2708C17.0504 45.2118 16.9436 45.1875 16.8388 45.2027C16.7339 45.2179 16.6386 45.2715 16.5715 45.353C16.455 45.4781 16.3267 45.7803 16.5074 45.9181Z" fill="#6C6A39"/>
<path d="M38.2834 57.0743C38.8033 59.586 39.321 62.0976 39.8841 64.6012C40.4472 67.1048 41.0499 69.5806 41.7495 72.0495C42.0864 73.2411 42.4828 74.4419 42.8244 75.6126C43.1368 76.6838 43.3642 77.7769 43.658 78.855C43.8678 79.6228 44.1185 80.7078 45.0745 80.8236C45.8754 80.929 46.6239 80.3014 47.0903 79.7258C47.686 78.9917 48.023 78.1487 48.2445 77.2385C48.466 76.3121 48.6397 75.3185 48.5231 74.362C48.497 74.1523 48.4477 73.9461 48.3762 73.7471C48.3016 73.5363 47.9892 73.5746 47.8469 73.6765C47.753 73.734 47.6811 73.8211 47.6426 73.9239C47.6042 74.0267 47.6014 74.1393 47.6347 74.2439C47.6417 74.2636 47.6487 74.2833 47.6545 74.3029C47.6336 74.2369 47.6545 74.2925 47.6545 74.3029C47.665 74.3458 47.6767 74.3886 47.686 74.4326C47.7055 74.5307 47.7206 74.6303 47.7315 74.7314C47.754 74.9259 47.7598 75.1219 47.749 75.3173C47.7292 75.7821 47.6742 76.2446 47.5846 76.7012C47.5648 76.8077 47.5426 76.9142 47.5193 77.0208C47.5088 77.0729 47.4972 77.1238 47.4855 77.1759C47.4855 77.1875 47.468 77.2524 47.4855 77.1852C47.4785 77.2153 47.4715 77.2466 47.4633 77.2767C47.419 77.4585 47.3701 77.6391 47.3153 77.8175C47.2512 78.0243 47.1733 78.2266 47.0821 78.4231C47.0705 78.4474 47.06 78.4717 47.0483 78.4972C47.0192 78.5597 47.0763 78.4416 47.0483 78.4972C47.0273 78.5389 47.0063 78.5806 46.9842 78.6211C46.9271 78.7253 46.8676 78.8272 46.8035 78.928C46.7393 79.0287 46.6869 79.0994 46.6298 79.1816C46.6111 79.2059 46.5202 79.3182 46.589 79.236C46.554 79.2777 46.519 79.3205 46.4829 79.3622C46.4246 79.4294 46.3663 79.4942 46.2998 79.5568C46.2672 79.5892 46.2334 79.6216 46.1996 79.6517L46.1483 79.6969C46.0631 79.7733 46.2299 79.6367 46.1389 79.7038C46.0713 79.7548 46.0037 79.8058 45.9326 79.8521C45.9034 79.8706 45.8696 79.8857 45.8416 79.9065C45.7938 79.9412 45.9174 79.8729 45.8638 79.8949C45.8416 79.9042 45.8206 79.9169 45.7985 79.9262C45.7309 79.9574 45.6609 79.9795 45.591 80.0038C45.6982 79.9667 45.5991 80.0038 45.5653 80.0038C45.5315 80.0038 45.4814 80.013 45.4394 80.0177C45.5199 80.0084 45.4592 80.0177 45.4149 80.0177C45.3864 80.016 45.3579 80.0125 45.3298 80.0072L45.2809 79.998C45.2331 79.9887 45.3473 80.0211 45.3018 79.998C45.2564 79.9748 45.2319 79.9725 45.1981 79.9563C45.1643 79.9401 45.1375 79.9239 45.1083 79.9065C45.1876 79.9517 45.1001 79.8995 45.078 79.881C45.0153 79.8271 44.9579 79.7674 44.9066 79.7027C44.8716 79.6598 44.9369 79.7478 44.9066 79.7027C44.8938 79.6842 44.8821 79.6656 44.8705 79.6471C44.8448 79.6077 44.8227 79.5672 44.8005 79.5255C44.7491 79.4276 44.7047 79.3262 44.6676 79.2221C44.5953 79.0229 44.5335 78.7925 44.4706 78.5667C44.1849 77.5245 43.9634 76.4742 43.6696 75.4401C43.3479 74.3018 42.9701 73.1808 42.6413 72.0437C41.9617 69.6802 41.3671 67.2901 40.8191 64.8849C40.2712 62.4798 39.7698 60.0584 39.2638 57.637C39.2032 57.3429 39.1414 57.0488 39.0808 56.7546C38.9735 56.2382 38.1948 56.6388 38.2834 57.0719V57.0743Z" fill="#6C6A39"/>
<path d="M44.3983 52.5604C44.8705 53.5586 45.3065 54.5741 45.7274 55.5943C45.9372 56.1046 46.1448 56.6168 46.3499 57.131C46.5528 57.637 46.7778 58.1408 46.955 58.6572C47.2791 59.6022 47.2651 60.6166 47.1287 61.5928C46.9748 62.6963 46.9131 63.8092 46.7708 64.9127C46.6134 65.9803 46.3777 67.0349 46.0655 68.0683C45.9197 68.5824 45.795 69.1105 45.6329 69.6177C45.4954 70.0485 45.2832 70.4514 45.1071 70.8648C44.9101 71.2814 44.7942 71.7313 44.7655 72.1907C44.761 72.4753 44.7923 72.7593 44.8588 73.0361C44.9824 73.5653 45.1619 74.1177 45.4767 74.5681C45.6254 74.8064 45.835 75.0014 46.0841 75.1332C46.2197 75.1935 46.3663 75.2257 46.5149 75.2277C46.6634 75.2296 46.8108 75.2015 46.948 75.1448C47.2978 75.0105 47.5741 74.7418 47.8201 74.4674C48.0661 74.1929 48.3121 73.9092 48.5523 73.6243C49.0932 73.0065 49.5948 72.3555 50.0539 71.6754C50.5552 70.9031 50.898 70.0102 51.2197 69.151C51.5777 68.1806 51.875 67.1882 52.1524 66.1923C52.4276 65.2219 52.7074 64.2527 52.9685 63.2776C53.506 61.2511 53.8826 59.1667 53.8476 57.0638C53.8406 56.0379 53.7091 55.0165 53.4559 54.0218C53.1737 52.9518 52.7412 51.9374 52.339 50.9021C51.9601 49.9317 51.6943 48.9185 51.2745 47.9631C50.8548 47.0078 50.3314 46.0629 49.9431 45.0681C49.7541 44.593 49.5983 44.1055 49.4768 43.609C49.3544 43.0949 48.5767 43.499 48.6793 43.9252C48.9467 44.9592 49.3205 45.9631 49.7951 46.9209C50.0131 47.3841 50.2509 47.8392 50.4654 48.3105C50.6745 48.777 50.859 49.254 51.0181 49.7395C51.1836 50.2247 51.3387 50.7134 51.5194 51.1928C51.7059 51.6919 51.9123 52.1829 52.1023 52.6808C52.4851 53.6307 52.7589 54.6205 52.9184 55.6314C53.204 57.6301 52.9919 59.6693 52.585 61.6356C52.3856 62.5991 52.1186 63.544 51.854 64.4912C51.5847 65.457 51.3235 66.4251 51.0297 67.3862C50.7413 68.3562 50.396 69.3085 49.9956 70.2384C49.8486 70.5936 49.6764 70.938 49.4803 71.269C49.2891 71.577 49.0734 71.8711 48.8519 72.1606L48.6758 72.3922C48.7225 72.332 48.6385 72.4386 48.6245 72.4559L48.508 72.5972C48.3805 72.7516 48.2515 72.906 48.1209 73.0604C47.8807 73.3476 47.6359 73.6305 47.3864 73.9092C47.2768 74.0331 47.1672 74.1547 47.0483 74.2682C46.9853 74.3284 47.1101 74.2265 47.018 74.2937L46.9375 74.3493C46.8909 74.3805 46.8431 74.3967 46.9212 74.3643L46.8198 74.4083C46.7638 74.4315 46.7673 74.4083 46.8198 74.4083C46.7915 74.4107 46.7634 74.4153 46.7358 74.4222C46.6671 74.4349 46.7568 74.4222 46.744 74.4222C46.714 74.4166 46.6836 74.4138 46.6531 74.4141C46.6088 74.4141 46.5785 74.3747 46.6472 74.4141C46.6267 74.4052 46.6057 74.3975 46.5843 74.3909C46.5598 74.3805 46.5365 74.3678 46.512 74.355C46.4875 74.3423 46.4467 74.3099 46.5015 74.355C46.4083 74.2841 46.3234 74.2029 46.2485 74.113C46.231 74.0922 46.2147 74.0713 46.1984 74.0493C46.2439 74.1084 46.1984 74.0493 46.1821 74.0239C46.1459 73.9694 46.1109 73.9081 46.0783 73.8548C45.9484 73.6158 45.841 73.3654 45.7577 73.1067C45.7484 73.0766 45.7332 73.0245 45.7519 73.087C45.7425 73.0546 45.732 73.0234 45.7239 72.9909C45.7052 72.9296 45.6889 72.8682 45.6738 72.8068C45.6458 72.691 45.6225 72.5856 45.6026 72.4733C45.58 72.3587 45.5664 72.2426 45.5618 72.1259C45.5629 71.9481 45.584 71.771 45.6248 71.5979C45.7521 71.1832 45.9143 70.78 46.1098 70.3924C46.2972 69.9537 46.4496 69.5011 46.5656 69.0387C46.8548 67.9965 47.1719 66.9543 47.3911 65.8936C47.6102 64.8328 47.6814 63.7223 47.7898 62.6326C47.8947 61.5904 48.0952 60.5645 47.9938 59.513C47.8924 58.4615 47.4295 57.4807 47.0355 56.5022C46.6344 55.504 46.2299 54.5081 45.7997 53.5215C45.5859 53.0352 45.366 52.5511 45.1398 52.0694C44.9311 51.6282 44.2071 52.1655 44.3983 52.5662V52.5604Z" fill="#6C6A39"/>
<path d="M43.1508 54.2603C43.6265 55.592 44.2829 56.9005 44.7038 58.2253C44.8308 58.6271 45.0022 59.0069 45.1701 59.3949C45.3155 59.7443 45.4295 60.1058 45.5105 60.4753C45.6889 61.2616 45.7973 62.0629 46.0188 62.8399C46.2404 63.6169 46.5901 64.4611 46.5866 65.2775C46.5866 65.8414 47.3864 65.611 47.3876 65.1617C47.3876 64.365 47.1462 63.6158 46.9212 62.8619C46.6881 62.0803 46.547 61.2812 46.3826 60.4834C46.3038 60.0624 46.1935 59.6479 46.0527 59.2432C45.9128 58.8622 45.7297 58.4986 45.5863 58.1199C45.4627 57.7968 45.3683 57.461 45.2482 57.1356C45.1188 56.7882 44.9789 56.4408 44.8367 56.0934C44.5195 55.3222 44.1826 54.5567 43.904 53.7705C43.8294 53.5609 43.5169 53.5979 43.3747 53.701C43.2807 53.7582 43.2087 53.8451 43.1702 53.9478C43.1317 54.0504 43.129 54.1629 43.1625 54.2673L43.1508 54.2603Z" fill="#6C6A39"/>
<path d="M44.7224 51.5819C44.6058 51.788 44.4811 51.9891 44.3482 52.1852C44.2864 52.2756 44.2234 52.3647 44.1581 52.4527C44.1216 52.5037 44.0827 52.5535 44.0415 52.6021C44.0229 52.6264 44.0042 52.6519 43.9844 52.6762C44.0112 52.6415 44.0066 52.6473 43.9728 52.6901C43.6893 53.0367 43.384 53.3651 43.0587 53.6733C42.7512 53.9635 42.4257 54.2342 42.0841 54.4839C41.7075 54.7653 41.3181 55.027 40.9182 55.2748C40.7445 55.3836 40.6058 55.6442 40.706 55.8422C40.8063 56.0402 41.0709 56.0147 41.2353 55.9117C42.8897 54.8822 44.3983 53.5748 45.3695 51.8703C45.4651 51.7012 45.4919 51.4441 45.2797 51.3468C45.0675 51.2496 44.8133 51.4013 44.7166 51.5784L44.7224 51.5819Z" fill="#6C6A39"/>
<path d="M51.1953 40.2357C51.0052 40.4673 50.828 40.7209 50.652 40.9688C50.561 41.0973 50.4701 41.2258 50.378 41.3521L50.2556 41.52C50.2299 41.5547 50.111 41.7099 50.2101 41.5813C49.9303 41.9415 49.661 42.3062 49.4033 42.6826C49.2868 42.8493 49.1818 43.0207 49.0617 43.1817C48.919 43.3419 48.8086 43.5279 48.7365 43.7294C48.6875 43.9217 48.7365 44.1451 48.9696 44.1753C49.0836 44.1795 49.1959 44.1471 49.2898 44.0828C49.3837 44.0185 49.4542 43.9259 49.4908 43.8186C49.4908 43.8082 49.5374 43.7028 49.5071 43.7595C49.5315 43.7193 49.5584 43.6807 49.5875 43.6437C49.6377 43.5754 49.6925 43.5094 49.7426 43.4399C49.8592 43.2732 49.9758 43.1006 50.0924 42.9316C50.3255 42.5957 50.5844 42.2368 50.8105 41.9507C50.9761 41.7377 51.1311 41.5153 51.2874 41.2953C51.3701 41.1795 51.4541 41.0637 51.538 40.9479C51.5777 40.8923 51.6185 40.8367 51.6604 40.7812C51.6849 40.7487 51.805 40.5947 51.7047 40.7209C51.8283 40.5669 51.9379 40.3214 51.7689 40.1558C51.615 40.0076 51.3247 40.0864 51.2023 40.2392L51.1953 40.2357Z" fill="#6C6A39"/>
<path d="M69.1111 46.4461C69.448 46.8723 69.743 47.435 70.0309 47.9353C70.1825 48.2005 70.3387 48.4645 70.5101 48.7181C70.6815 48.9717 70.8855 49.2103 71.0767 49.4557C71.4684 49.9572 71.8124 50.4922 72.1878 51.004C72.5842 51.5459 72.9957 52.0798 73.5646 52.4526C74.1021 52.8 74.7375 52.9645 75.3018 53.2632C75.6923 53.4717 76.2135 52.7433 75.7763 52.5094C75.2773 52.2454 74.727 52.0902 74.2362 51.8146C73.7232 51.5297 73.3221 51.0283 72.9631 50.5489C72.5725 50.0266 72.2181 49.4789 71.8252 48.9578C71.655 48.7332 71.4463 48.4946 71.3005 48.2897C71.1315 48.0476 70.9788 47.7929 70.8342 47.537C70.4903 46.9441 70.172 46.3338 69.7453 45.8C69.6065 45.6251 69.2953 45.7536 69.1787 45.8822C69.0283 46.0478 68.9688 46.2643 69.1146 46.4473L69.1111 46.4461Z" fill="#6C6A39"/>
<path d="M68.3334 48.8362C68.7566 50.11 69.5354 51.2437 70.3492 52.2986C70.7444 52.8104 71.1653 53.3072 71.5838 53.7971C71.721 53.9676 71.874 54.1251 72.0408 54.2672C72.2403 54.4272 72.4546 54.568 72.6809 54.6876C73.216 54.9713 73.8969 55.1681 74.4787 54.9053C74.6769 54.8161 74.8576 54.6053 74.8191 54.3749C74.8092 54.3273 74.7883 54.2827 74.7581 54.2446C74.7278 54.2064 74.6891 54.1758 74.6448 54.1551C74.6006 54.1344 74.5521 54.1243 74.5032 54.1254C74.4544 54.1266 74.4064 54.1391 74.3632 54.1618L74.2851 54.1943C74.263 54.2035 74.1919 54.2151 74.2758 54.1943C74.2257 54.2035 74.1755 54.2105 74.1254 54.2163C74.1056 54.2163 74.031 54.2163 74.1033 54.2163C74.0799 54.2163 74.0555 54.2163 74.0321 54.2163C73.9656 54.2124 73.8993 54.2039 73.8339 54.1908C73.615 54.143 73.4039 54.065 73.2067 53.9592C73.1004 53.9053 72.9969 53.8462 72.8966 53.782L72.836 53.7426C72.8873 53.7774 72.8266 53.7357 72.8138 53.7264C72.766 53.6905 72.7182 53.6558 72.6716 53.6187C72.5157 53.4867 72.3724 53.3405 72.2437 53.1822C71.4276 52.2407 70.6337 51.2749 69.9796 50.2131C69.6064 49.6248 69.3028 48.9957 69.0749 48.3383C69.0038 48.1263 68.6855 48.168 68.5456 48.2688C68.4515 48.3262 68.3795 48.4133 68.341 48.5161C68.3025 48.619 68.2999 48.7317 68.3334 48.8362Z" fill="#6C6A39"/>
</g>
<defs>
<clipPath id="clip0_206_2">
<rect width="121" height="84" fill="white"/>
</clipPath>
</defs>
</svg>
