<svg width="138" height="8" viewBox="0 0 138 8" fill="none" xmlns="http://www.w3.org/2000/svg">
<g clip-path="url(#clip0_208_118)">
<path d="M136.95 0.509979C136.95 2.22998 137.11 4.67997 135.15 5.40997C134.745 5.57715 134.31 5.65732 133.873 5.64526C133.435 5.6332 133.005 5.52921 132.61 5.34C131.82 4.99067 131.111 4.47971 130.53 3.84C130.18 3.42 129.81 2.83998 130.4 2.47998C130.491 2.40866 130.596 2.35856 130.708 2.33337C130.821 2.30819 130.937 2.30856 131.05 2.33447C131.162 2.36038 131.267 2.41118 131.357 2.48309C131.447 2.555 131.52 2.6462 131.57 2.74997C131.732 3.04067 131.826 3.36421 131.846 3.69644C131.865 4.02867 131.81 4.36104 131.683 4.6687C131.556 4.97636 131.361 5.25137 131.113 5.47324C130.865 5.6951 130.57 5.85806 130.25 5.94998C129.683 6.1197 129.087 6.16911 128.5 6.09506C127.912 6.02102 127.347 5.82515 126.84 5.51999C126.367 5.16697 126.007 4.6843 125.802 4.13049C125.598 3.57669 125.559 2.97555 125.69 2.39999C125.78 1.72999 124.69 1.73999 124.64 2.39999C124.521 3.07274 124.572 3.76447 124.789 4.41238C125.006 5.0603 125.381 5.64385 125.88 6.10999C126.423 6.5352 127.048 6.84353 127.715 7.01562C128.383 7.18772 129.079 7.21985 129.76 7.10999C130.325 7.07248 130.872 6.89695 131.353 6.59882C131.834 6.30068 132.235 5.88905 132.52 5.39999C132.737 4.97782 132.862 4.51476 132.888 4.04095C132.914 3.56715 132.839 3.09322 132.67 2.64999C132.554 2.25676 132.316 1.9104 131.991 1.66068C131.666 1.41095 131.27 1.27067 130.86 1.25998C130.386 1.26198 129.931 1.44562 129.589 1.77307C129.247 2.10052 129.043 2.54683 129.02 3.01999C129.131 3.5293 129.345 4.0104 129.65 4.43353C129.954 4.85667 130.342 5.21284 130.79 5.47998C131.643 6.18519 132.688 6.61727 133.79 6.71997C134.5 6.74903 135.205 6.58831 135.833 6.25436C136.46 5.92042 136.987 5.42531 137.36 4.81998C137.923 3.45742 138.143 1.97738 138 0.509979C137.982 0.383204 137.92 0.267052 137.823 0.182983C137.727 0.0989149 137.603 0.0526123 137.475 0.0526123C137.347 0.0526123 137.223 0.0989149 137.127 0.182983C137.03 0.267052 136.968 0.383204 136.95 0.509979Z" fill="#393939"/>
<path d="M126.58 0.509979C126.58 2.22998 126.73 4.67997 124.77 5.40997C124.367 5.57693 123.933 5.65699 123.498 5.64493C123.062 5.63287 122.633 5.52898 122.24 5.34C121.448 4.9933 120.739 4.48196 120.16 3.84C119.8 3.42 119.44 2.83998 120.03 2.47998C120.12 2.41054 120.225 2.36199 120.336 2.33786C120.448 2.31373 120.563 2.31463 120.674 2.34045C120.785 2.36628 120.889 2.41643 120.978 2.48724C121.067 2.55806 121.14 2.64778 121.19 2.74997C121.354 3.03962 121.45 3.36273 121.471 3.69498C121.493 4.02722 121.438 4.35993 121.312 4.66803C121.186 4.97613 120.991 5.25157 120.743 5.47363C120.495 5.69569 120.2 5.85857 119.88 5.94998C119.311 6.11992 118.714 6.16944 118.125 6.0954C117.536 6.02136 116.969 5.8254 116.46 5.51999C115.99 5.16491 115.632 4.68161 115.43 4.12814C115.228 3.57468 115.189 2.9746 115.32 2.39999C115.4 1.72999 114.32 1.73999 114.27 2.39999C114.147 3.07193 114.196 3.76394 114.41 4.41229C114.625 5.06065 115 5.64448 115.5 6.10999C116.046 6.53336 116.673 6.8405 117.342 7.01248C118.011 7.18446 118.708 7.21765 119.39 7.10999C119.911 7.09074 120.421 6.94661 120.875 6.6897C121.329 6.43279 121.715 6.07062 122 5.63361C122.285 5.1966 122.461 4.6975 122.513 4.17831C122.566 3.65913 122.492 3.13502 122.3 2.64999C122.176 2.26137 121.936 1.91993 121.613 1.67148C121.289 1.42303 120.897 1.27944 120.49 1.25998C120.016 1.25953 119.559 1.44237 119.216 1.77032C118.874 2.09827 118.671 2.54599 118.65 3.01999C118.759 3.53018 118.972 4.01223 119.277 4.43567C119.582 4.85911 119.971 5.21471 120.42 5.47998C121.271 6.18845 122.317 6.62096 123.42 6.71997C124.13 6.74903 124.835 6.58831 125.463 6.25436C126.09 5.92042 126.617 5.42531 126.99 4.81998C127.547 3.4556 127.766 1.9772 127.63 0.509979C127.612 0.383204 127.55 0.267052 127.453 0.182983C127.357 0.0989149 127.233 0.0526123 127.105 0.0526123C126.977 0.0526123 126.853 0.0989149 126.757 0.182983C126.66 0.267052 126.598 0.383204 126.58 0.509979Z" fill="#393939"/>
<path d="M116.28 0.51001C116.28 2.23001 116.44 4.68 114.48 5.41C114.075 5.57719 113.64 5.65735 113.203 5.64529C112.765 5.63323 112.335 5.52924 111.94 5.34003C111.148 4.99333 110.439 4.48199 109.86 3.84003C109.51 3.42003 109.14 2.84001 109.73 2.48001C109.82 2.40874 109.924 2.35866 110.036 2.3335C110.148 2.30833 110.264 2.30875 110.375 2.33472C110.487 2.36068 110.591 2.41151 110.68 2.48343C110.769 2.55534 110.841 2.64646 110.89 2.75C111.054 3.03965 111.15 3.36276 111.171 3.69501C111.193 4.02725 111.138 4.35996 111.012 4.66806C110.886 4.97616 110.691 5.25161 110.443 5.47366C110.195 5.69572 109.9 5.8586 109.58 5.95001C109.011 6.11995 108.414 6.16947 107.825 6.09543C107.236 6.02139 106.669 5.82543 106.16 5.52002C105.697 5.17007 105.343 4.6956 105.139 4.15201C104.936 3.60841 104.891 3.01811 105.01 2.45001C105.1 1.78001 104.01 1.79001 104.01 2.45001C103.888 3.12279 103.938 3.81534 104.155 4.46375C104.372 5.11215 104.748 5.69552 105.25 6.16C105.793 6.58522 106.418 6.89358 107.085 7.06567C107.753 7.23777 108.449 7.26987 109.13 7.16C109.694 7.12349 110.24 6.94828 110.719 6.64996C111.199 6.35165 111.598 5.93947 111.88 5.45001C112.1 5.02916 112.228 4.56634 112.256 4.09222C112.283 3.61811 112.21 3.14354 112.04 2.70001C111.924 2.30678 111.686 1.96045 111.361 1.71072C111.036 1.46099 110.64 1.32069 110.23 1.31C109.756 1.312 109.301 1.49567 108.959 1.82312C108.617 2.15057 108.413 2.59685 108.39 3.07001C108.499 3.58019 108.712 4.06225 109.017 4.48569C109.322 4.90913 109.711 5.26473 110.16 5.53C111.013 6.23521 112.058 6.66732 113.16 6.77002C113.87 6.79908 114.575 6.63836 115.203 6.30441C115.83 5.97047 116.357 5.47536 116.73 4.87003C117.287 3.50565 117.506 2.02722 117.37 0.559998C117.334 0.45645 117.266 0.366764 117.176 0.303314C117.087 0.239865 116.98 0.205811 116.87 0.205811C116.76 0.205811 116.653 0.239865 116.564 0.303314C116.474 0.366764 116.406 0.45645 116.37 0.559998L116.28 0.51001Z" fill="#393939"/>
<path d="M105.9 0.509979C105.9 2.22998 106.06 4.67997 104.1 5.40997C103.697 5.57693 103.263 5.65699 102.828 5.64493C102.392 5.63287 101.963 5.52898 101.57 5.34C100.778 4.9933 100.069 4.48196 99.49 3.84C99.13 3.42 98.77 2.83998 99.35 2.47998C99.4405 2.40866 99.5459 2.35856 99.6583 2.33337C99.7708 2.30819 99.8874 2.30856 99.9997 2.33447C100.112 2.36038 100.217 2.41118 100.307 2.48309C100.397 2.555 100.47 2.6462 100.52 2.74997C100.684 3.03962 100.78 3.36273 100.801 3.69498C100.823 4.02722 100.768 4.35993 100.642 4.66803C100.516 4.97613 100.321 5.25157 100.073 5.47363C99.8253 5.69569 99.5301 5.85857 99.21 5.94998C98.6413 6.11992 98.0435 6.16944 97.4547 6.0954C96.8658 6.02136 96.2989 5.8254 95.79 5.51999C95.3138 5.17003 94.9516 4.68723 94.7488 4.13217C94.5459 3.57711 94.5116 2.97451 94.65 2.39999C94.73 1.72999 93.65 1.73999 93.65 2.39999C93.5272 3.07193 93.5755 3.76394 93.7905 4.41229C94.0054 5.06065 94.3801 5.64448 94.88 6.10999C95.4258 6.53336 96.0525 6.8405 96.7215 7.01248C97.3905 7.18446 98.0877 7.21765 98.77 7.10999C99.2914 7.09074 99.8007 6.94661 100.255 6.6897C100.709 6.43279 101.095 6.07062 101.38 5.63361C101.665 5.1966 101.841 4.6975 101.893 4.17831C101.946 3.65913 101.872 3.13502 101.68 2.64999C101.556 2.26137 101.316 1.91993 100.993 1.67148C100.669 1.42303 100.277 1.27944 99.87 1.25998C99.3955 1.25953 98.9393 1.44237 98.5964 1.77032C98.2535 2.09827 98.0506 2.54599 98.03 3.01999C98.1388 3.53018 98.3522 4.01223 98.6569 4.43567C98.9616 4.85911 99.3508 5.21471 99.8 5.47998C100.651 6.18845 101.697 6.62096 102.8 6.71997C103.51 6.74903 104.215 6.58831 104.843 6.25436C105.47 5.92042 105.997 5.42531 106.37 4.81998C106.923 3.45487 107.14 1.9764 107 0.509979C106.982 0.383204 106.92 0.267052 106.823 0.182983C106.727 0.0989149 106.603 0.0526123 106.475 0.0526123C106.347 0.0526123 106.223 0.0989149 106.127 0.182983C106.03 0.267052 105.968 0.383204 105.95 0.509979H105.9Z" fill="#393939"/>
<path d="M95.61 0.509979C95.61 2.22998 95.77 4.67997 93.81 5.40997C93.4054 5.57715 92.9702 5.65732 92.5325 5.64526C92.0949 5.6332 91.6648 5.52921 91.27 5.34C90.478 4.9933 89.769 4.48196 89.19 3.84C88.84 3.42 88.47 2.83998 89.06 2.47998C89.1496 2.40871 89.2542 2.35863 89.366 2.33347C89.4777 2.3083 89.5937 2.30872 89.7052 2.33469C89.8168 2.36065 89.921 2.41148 90.0102 2.4834C90.0993 2.55531 90.171 2.64643 90.22 2.74997C90.3841 3.03962 90.4804 3.36273 90.5015 3.69498C90.5226 4.02722 90.468 4.35993 90.3419 4.66803C90.2158 4.97613 90.0214 5.25157 89.7733 5.47363C89.5253 5.69569 89.2301 5.85857 88.91 5.94998C88.3413 6.11992 87.7435 6.16944 87.1547 6.0954C86.5658 6.02136 85.9989 5.8254 85.49 5.51999C85.0197 5.16491 84.662 4.68161 84.4598 4.12814C84.2576 3.57468 84.2194 2.9746 84.35 2.39999C84.43 1.72999 83.35 1.73999 83.3 2.39999C83.1784 3.07277 83.2283 3.76532 83.4451 4.41373C83.6618 5.06214 84.0383 5.6455 84.54 6.10999C85.0828 6.5352 85.7077 6.84353 86.3754 7.01562C87.0432 7.18772 87.7393 7.21985 88.42 7.10999C88.9837 7.07347 89.5298 6.89826 90.0095 6.59995C90.4893 6.30163 90.8879 5.88945 91.17 5.39999C91.3901 4.97915 91.5181 4.51629 91.5457 4.04218C91.5733 3.56806 91.4998 3.09352 91.33 2.64999C91.2061 2.26137 90.9662 1.91993 90.6427 1.67148C90.3192 1.42303 89.9274 1.27944 89.52 1.25998C89.0463 1.26198 88.5914 1.44562 88.249 1.77307C87.9067 2.10052 87.703 2.54683 87.68 3.01999C87.7888 3.53018 88.0022 4.01223 88.3069 4.43567C88.6116 4.85911 89.0008 5.21471 89.45 5.47998C90.3028 6.18519 91.3482 6.61727 92.45 6.71997C93.1602 6.74903 93.8653 6.58831 94.4928 6.25436C95.1203 5.92042 95.6474 5.42531 96.02 4.81998C96.5765 3.4556 96.796 1.9772 96.66 0.509979C96.6424 0.383204 96.5796 0.267052 96.4831 0.182983C96.3866 0.0989149 96.263 0.0526123 96.135 0.0526123C96.007 0.0526123 95.8833 0.0989149 95.7868 0.182983C95.6903 0.267052 95.6275 0.383204 95.61 0.509979Z" fill="#393939"/>
<path d="M85.23 0.51004C85.23 2.23004 85.39 4.68003 83.43 5.41003C83.0271 5.57699 82.5935 5.65705 82.1575 5.64499C81.7216 5.63293 81.293 5.52904 80.9 5.34006C80.1067 4.9958 79.3971 4.48411 78.82 3.84006C78.46 3.42006 78.1 2.84004 78.68 2.48004C78.7705 2.40872 78.8759 2.35862 78.9883 2.33344C79.1008 2.30825 79.2174 2.30862 79.3297 2.33453C79.442 2.36045 79.547 2.41124 79.6371 2.48315C79.7271 2.55507 79.7999 2.64626 79.85 2.75003C80.0121 3.04007 80.1068 3.36296 80.1269 3.69464C80.1471 4.02632 80.0921 4.35825 79.9662 4.66577C79.8404 4.97329 79.6467 5.24848 79.3998 5.47083C79.1529 5.69318 78.859 5.85697 78.54 5.95004C77.9713 6.11998 77.3735 6.1695 76.7847 6.09546C76.1958 6.02142 75.6289 5.82546 75.12 5.52005C74.6583 5.17013 74.3078 4.69401 74.1109 4.14923C73.9139 3.60445 73.8788 3.0143 74.01 2.45004C74.09 1.78004 73.01 1.79004 73.01 2.45004C72.8872 3.12198 72.9355 3.81399 73.1505 4.46234C73.3654 5.11069 73.7401 5.69453 74.24 6.16003C74.7858 6.58341 75.4125 6.89055 76.0815 7.06253C76.7505 7.23451 77.4477 7.2677 78.13 7.16003C78.6514 7.14079 79.1607 6.99666 79.6148 6.73975C80.069 6.48284 80.4549 6.12067 80.74 5.68365C81.0252 5.24664 81.2012 4.74758 81.2534 4.22839C81.3056 3.70921 81.2324 3.18507 81.04 2.70004C80.916 2.31142 80.6762 1.96998 80.3527 1.72153C80.0292 1.47308 79.6374 1.32949 79.23 1.31003C78.7555 1.30958 78.2993 1.49242 77.9564 1.82037C77.6135 2.14832 77.4106 2.59604 77.39 3.07004C77.4988 3.58022 77.7122 4.06228 78.0169 4.48572C78.3216 4.90916 78.7108 5.26476 79.16 5.53003C80.0108 6.23849 81.0572 6.67104 82.16 6.77005C82.8702 6.79911 83.5753 6.63839 84.2028 6.30444C84.8303 5.9705 85.3574 5.47539 85.73 4.87006C86.2835 3.50494 86.4996 2.02645 86.36 0.560028C86.3425 0.433252 86.2796 0.317131 86.1831 0.233063C86.0866 0.148994 85.963 0.102661 85.835 0.102661C85.707 0.102661 85.5833 0.148994 85.4868 0.233063C85.3903 0.317131 85.3275 0.433252 85.31 0.560028L85.23 0.51004Z" fill="#393939"/>
<path d="M74.94 0.509979C74.94 2.22998 75.09 4.67997 73.14 5.40997C72.7354 5.57715 72.3001 5.65732 71.8625 5.64526C71.4249 5.6332 70.9948 5.52921 70.6 5.34C69.808 4.9933 69.099 4.48196 68.52 3.84C68.17 3.42 67.8 2.83998 68.39 2.47998C68.4796 2.40871 68.5842 2.35863 68.696 2.33347C68.8077 2.3083 68.9237 2.30872 69.0352 2.33469C69.1468 2.36065 69.251 2.41148 69.3402 2.4834C69.4293 2.55531 69.501 2.64643 69.55 2.74997C69.7141 3.03962 69.8103 3.36273 69.8315 3.69498C69.8526 4.02722 69.798 4.35993 69.6719 4.66803C69.5458 4.97613 69.3514 5.25157 69.1033 5.47363C68.8553 5.69569 68.5601 5.85857 68.24 5.94998C67.6714 6.11992 67.0735 6.16944 66.4847 6.0954C65.8958 6.02136 65.3289 5.8254 64.82 5.51999C64.3497 5.16491 63.992 4.68161 63.7898 4.12814C63.5876 3.57468 63.5494 2.9746 63.68 2.39999C63.76 1.72999 62.68 1.73999 62.63 2.39999C62.5084 3.07277 62.5583 3.76532 62.7751 4.41373C62.9918 5.06214 63.3683 5.6455 63.87 6.10999C64.4128 6.5352 65.0377 6.84353 65.7055 7.01562C66.3732 7.18772 67.0693 7.21985 67.75 7.10999C68.3137 7.07347 68.8597 6.89826 69.3395 6.59995C69.8192 6.30163 70.2179 5.88945 70.5 5.39999C70.7201 4.97915 70.8481 4.51629 70.8757 4.04218C70.9033 3.56806 70.8298 3.09352 70.66 2.64999C70.536 2.26137 70.2962 1.91993 69.9727 1.67148C69.6492 1.42303 69.2574 1.27944 68.85 1.25998C68.3755 1.25953 67.9193 1.44237 67.5764 1.77032C67.2335 2.09827 67.0306 2.54599 67.01 3.01999C67.1188 3.53018 67.3322 4.01223 67.6369 4.43567C67.9416 4.85911 68.3308 5.21471 68.78 5.47998C69.6328 6.18519 70.6782 6.61727 71.78 6.71997C72.4902 6.74903 73.1953 6.58831 73.8228 6.25436C74.4503 5.92042 74.9774 5.42531 75.35 4.81998C75.9065 3.4556 76.126 1.9772 75.99 0.509979C75.9536 0.406431 75.8859 0.316745 75.7964 0.253296C75.7068 0.189846 75.5997 0.155762 75.49 0.155762C75.3802 0.155762 75.2732 0.189846 75.1836 0.253296C75.0941 0.316745 75.0264 0.406431 74.99 0.509979H74.94Z" fill="#393939"/>
<path d="M64.56 0.509979C64.56 2.22998 64.72 4.67997 62.76 5.40997C62.3554 5.57715 61.9202 5.65732 61.4826 5.64526C61.045 5.6332 60.6148 5.52921 60.22 5.34C59.431 4.99314 58.7253 4.48173 58.15 3.84C57.79 3.42 57.42 2.83998 58.01 2.47998C58.1005 2.40866 58.2059 2.35856 58.3183 2.33337C58.4308 2.30819 58.5474 2.30856 58.6597 2.33447C58.772 2.36038 58.877 2.41118 58.9671 2.48309C59.0571 2.555 59.1299 2.6462 59.18 2.74997C59.3422 3.04001 59.4368 3.3629 59.4569 3.69458C59.4771 4.02626 59.4221 4.35819 59.2963 4.66571C59.1704 4.97323 58.9768 5.24841 58.7298 5.47076C58.4829 5.69311 58.189 5.85691 57.87 5.94998C57.3014 6.12053 56.7035 6.17039 56.1146 6.09634C55.5256 6.02229 54.9586 5.82598 54.45 5.51999C53.977 5.16697 53.6166 4.6843 53.4124 4.13049C53.2083 3.57669 53.1693 2.97555 53.3 2.39999C53.39 1.72999 52.3 1.73999 52.25 2.39999C52.1312 3.07274 52.1825 3.76447 52.399 4.41238C52.6156 5.0603 52.9906 5.64385 53.49 6.10999C54.0358 6.53336 54.6625 6.8405 55.3315 7.01248C56.0005 7.18446 56.6977 7.21765 57.38 7.10999C57.9014 7.09074 58.4106 6.94661 58.8648 6.6897C59.319 6.43279 59.7049 6.07062 59.99 5.63361C60.2751 5.1966 60.4512 4.6975 60.5034 4.17831C60.5556 3.65913 60.4824 3.13502 60.29 2.64999C60.166 2.26137 59.9262 1.91993 59.6027 1.67148C59.2792 1.42303 58.8874 1.27944 58.48 1.25998C58.0056 1.25953 57.5493 1.44237 57.2064 1.77032C56.8636 2.09827 56.6606 2.54599 56.64 3.01999C56.7488 3.52889 56.9612 4.00994 57.264 4.43317C57.5668 4.8564 57.9535 5.21274 58.4 5.47998C59.2528 6.18519 60.2982 6.61727 61.4 6.71997C62.1102 6.74903 62.8153 6.58831 63.4428 6.25436C64.0703 5.92042 64.5974 5.42531 64.97 4.81998C65.5235 3.45487 65.7396 1.9764 65.6 0.509979C65.5825 0.383204 65.5196 0.267052 65.4231 0.182983C65.3266 0.0989149 65.203 0.0526123 65.075 0.0526123C64.947 0.0526123 64.8234 0.0989149 64.7269 0.182983C64.6304 0.267052 64.5675 0.383204 64.55 0.509979H64.56Z" fill="#393939"/>
<path d="M54.27 0.509949C54.27 2.22995 54.42 4.67994 52.46 5.40994C52.0571 5.5769 51.6235 5.65696 51.1875 5.6449C50.7516 5.63284 50.3231 5.52895 49.93 5.33997C49.1381 4.99327 48.429 4.48193 47.85 3.83997C47.49 3.41997 47.13 2.83995 47.72 2.47995C47.8103 2.41051 47.9149 2.36196 48.0263 2.33783C48.1376 2.3137 48.253 2.3146 48.3639 2.34042C48.4749 2.36625 48.5787 2.41639 48.668 2.48721C48.7572 2.55803 48.8296 2.64775 48.88 2.74994C49.0441 3.03959 49.1404 3.3627 49.1615 3.69495C49.1826 4.02719 49.1281 4.3599 49.0019 4.668C48.8758 4.9761 48.6814 5.25154 48.4334 5.4736C48.1853 5.69566 47.8901 5.85854 47.57 5.94995C47.0014 6.11989 46.4036 6.1694 45.8147 6.09537C45.2258 6.02133 44.6589 5.82537 44.15 5.51996C43.6887 5.1688 43.3366 4.69381 43.1348 4.1503C42.9329 3.60678 42.8897 3.0171 43.01 2.44995C43.09 1.77995 42.01 1.78995 41.96 2.44995C41.8391 3.12187 41.8883 3.81337 42.1032 4.4614C42.318 5.10942 42.6916 5.69334 43.19 6.15994C43.7358 6.58332 44.3625 6.89046 45.0315 7.06244C45.7005 7.23442 46.3977 7.26761 47.08 7.15994C47.6095 7.14688 48.1278 7.00501 48.5901 6.74661C49.0524 6.48822 49.4448 6.1211 49.7333 5.67697C50.0219 5.23285 50.1979 4.72512 50.2461 4.19769C50.2943 3.67027 50.2133 3.13904 50.01 2.64996C49.8861 2.26134 49.6462 1.9199 49.3227 1.67145C48.9992 1.423 48.6075 1.27941 48.2 1.25995C47.7256 1.2595 47.2693 1.44234 46.9264 1.77029C46.5836 2.09824 46.3806 2.54596 46.36 3.01996C46.4703 3.52306 46.6824 3.99823 46.9834 4.41617C47.2844 4.8341 47.6678 5.18593 48.11 5.44995C48.9618 6.15678 50.0077 6.58907 51.11 6.68994C51.8202 6.719 52.5253 6.55828 53.1528 6.22433C53.7803 5.89039 54.3074 5.39528 54.68 4.78995C55.2365 3.42557 55.4561 1.94717 55.32 0.47995C55.3025 0.353174 55.2397 0.237023 55.1432 0.152954C55.0467 0.0688856 54.923 0.022583 54.795 0.022583C54.667 0.022583 54.5434 0.0688856 54.4469 0.152954C54.3504 0.237023 54.2876 0.353174 54.27 0.47995V0.509949Z" fill="#393939"/>
<path d="M43.89 0.509979C43.89 2.22998 44.05 4.67997 42.09 5.40997C41.6854 5.57715 41.2502 5.65732 40.8125 5.64526C40.3749 5.6332 39.9448 5.52921 39.55 5.34C38.7596 4.99067 38.051 4.47971 37.47 3.84C37.12 3.42 36.75 2.83998 37.34 2.47998C37.4305 2.40866 37.5359 2.35856 37.6483 2.33337C37.7608 2.30819 37.8774 2.30856 37.9897 2.33447C38.102 2.36038 38.2071 2.41118 38.2971 2.48309C38.3872 2.555 38.4599 2.6462 38.51 2.74997C38.6722 3.04001 38.7668 3.3629 38.7869 3.69458C38.8071 4.02626 38.7522 4.35819 38.6263 4.66571C38.5004 4.97323 38.3067 5.24841 38.0598 5.47076C37.8129 5.69311 37.519 5.85691 37.2 5.94998C36.6314 6.12053 36.0335 6.17039 35.4446 6.09634C34.8556 6.02229 34.2886 5.82598 33.78 5.51999C33.307 5.16697 32.9465 4.6843 32.7424 4.13049C32.5383 3.57669 32.4992 2.97555 32.63 2.39999C32.72 1.72999 31.63 1.73999 31.58 2.39999C31.4612 3.07274 31.5125 3.76447 31.729 4.41238C31.9456 5.0603 32.3206 5.64385 32.82 6.10999C33.3628 6.5352 33.9877 6.84353 34.6554 7.01562C35.3232 7.18772 36.0193 7.21985 36.7 7.10999C37.2223 7.09229 37.7327 6.94928 38.1882 6.69302C38.6436 6.43676 39.0308 6.07478 39.3171 5.63754C39.6033 5.20031 39.7803 4.70067 39.833 4.18073C39.8857 3.66078 39.8127 3.13579 39.62 2.64999C39.4954 2.25983 39.2541 1.91729 38.9286 1.6687C38.6031 1.42011 38.2092 1.27744 37.8 1.25998C37.3273 1.2621 36.8735 1.44609 36.5328 1.77377C36.1921 2.10146 35.9905 2.54771 35.97 3.01999C36.077 3.52954 36.2888 4.01129 36.5917 4.43475C36.8947 4.85821 37.2823 5.21415 37.73 5.47998C38.5828 6.18519 39.6282 6.61727 40.73 6.71997C41.4419 6.75084 42.1491 6.59099 42.7785 6.25696C43.4079 5.92292 43.9366 5.42683 44.31 4.81998C44.8635 3.45487 45.0796 1.9764 44.94 0.509979C44.9225 0.383204 44.8596 0.267052 44.7631 0.182983C44.6666 0.0989149 44.543 0.0526123 44.415 0.0526123C44.287 0.0526123 44.1634 0.0989149 44.0669 0.182983C43.9704 0.267052 43.9075 0.383204 43.89 0.509979Z" fill="#393939"/>
<path d="M33.6 0.509979C33.6 2.22998 33.75 4.67997 31.79 5.40997C31.3871 5.57693 30.9535 5.65699 30.5176 5.64493C30.0816 5.63287 29.6531 5.52898 29.26 5.34C28.4681 4.9933 27.759 4.48196 27.18 3.84C26.82 3.42 26.46 2.83998 27.05 2.47998C27.1403 2.41054 27.245 2.36199 27.3563 2.33786C27.4676 2.31373 27.583 2.31463 27.6939 2.34045C27.8049 2.36628 27.9087 2.41643 27.998 2.48724C28.0872 2.55806 28.1597 2.64778 28.21 2.74997C28.3741 3.03962 28.4704 3.36273 28.4915 3.69498C28.5126 4.02722 28.458 4.35993 28.3319 4.66803C28.2058 4.97613 28.0114 5.25157 27.7634 5.47363C27.5153 5.69569 27.2201 5.85857 26.9 5.94998C26.3314 6.11992 25.7335 6.16944 25.1447 6.0954C24.5558 6.02136 23.9889 5.8254 23.48 5.51999C23.0098 5.16491 22.652 4.68161 22.4498 4.12814C22.2476 3.57468 22.2094 2.9746 22.34 2.39999C22.42 1.72999 21.34 1.73999 21.29 2.39999C21.1672 3.07193 21.2156 3.76394 21.4305 4.41229C21.6455 5.06065 22.0202 5.64448 22.52 6.10999C23.0658 6.53336 23.6925 6.8405 24.3615 7.01248C25.0306 7.18446 25.7277 7.21765 26.41 7.10999C26.9315 7.09074 27.4407 6.94661 27.8948 6.6897C28.349 6.43279 28.7349 6.07062 29.02 5.63361C29.3052 5.1966 29.4812 4.6975 29.5334 4.17831C29.5856 3.65913 29.5124 3.13502 29.32 2.64999C29.1961 2.26137 28.9562 1.91993 28.6327 1.67148C28.3092 1.42303 27.9175 1.27944 27.51 1.25998C27.0356 1.25953 26.5793 1.44237 26.2364 1.77032C25.8936 2.09827 25.6906 2.54599 25.67 3.01999C25.7788 3.53018 25.9923 4.01223 26.2969 4.43567C26.6016 4.85911 26.9908 5.21471 27.44 5.47998C28.2908 6.18845 29.3373 6.62096 30.44 6.71997C31.1502 6.74903 31.8554 6.58831 32.4828 6.25436C33.1103 5.92042 33.6374 5.42531 34.01 4.81998C34.5665 3.4556 34.7861 1.9772 34.65 0.509979C34.6325 0.383204 34.5697 0.267052 34.4732 0.182983C34.3767 0.0989149 34.253 0.0526123 34.125 0.0526123C33.997 0.0526123 33.8734 0.0989149 33.7769 0.182983C33.6804 0.267052 33.6176 0.383204 33.6 0.509979Z" fill="#393939"/>
<path d="M23.22 0.509949C23.22 2.22995 23.38 4.67994 21.42 5.40994C21.0154 5.57712 20.5802 5.65729 20.1425 5.64523C19.7049 5.63317 19.2748 5.52918 18.88 5.33997C18.0896 4.99064 17.381 4.47968 16.8 3.83997C16.45 3.41997 16.08 2.83995 16.67 2.47995C16.7605 2.40863 16.8659 2.35853 16.9783 2.33334C17.0908 2.30816 17.2074 2.30853 17.3197 2.33444C17.432 2.36035 17.5371 2.41115 17.6271 2.48306C17.7171 2.55497 17.7899 2.64617 17.84 2.74994C18.002 3.04064 18.0963 3.36418 18.1158 3.69641C18.1353 4.02864 18.0795 4.36101 17.9526 4.66867C17.8257 4.97633 17.631 5.25134 17.3829 5.47321C17.1348 5.69507 16.8399 5.85803 16.52 5.94995C15.953 6.11967 15.3568 6.16908 14.7696 6.09503C14.1824 6.02099 13.6171 5.82512 13.11 5.51996C12.637 5.16694 12.2766 4.68427 12.0724 4.13046C11.8683 3.57666 11.8293 2.97552 11.96 2.39996C12.05 1.72996 10.96 1.73996 10.91 2.39996C10.7912 3.07271 10.8425 3.76444 11.059 4.41235C11.2756 5.06027 11.6506 5.64382 12.15 6.10995C12.6928 6.53517 13.3178 6.8435 13.9855 7.01559C14.6532 7.18769 15.3493 7.21982 16.03 7.10995C16.5948 7.07245 17.1418 6.89692 17.623 6.59879C18.1042 6.30065 18.5049 5.88902 18.79 5.39996C19.0066 4.97779 19.132 4.51473 19.1578 4.04092C19.1836 3.56712 19.1094 3.09319 18.94 2.64996C18.8239 2.25673 18.5862 1.91037 18.261 1.66064C17.9358 1.41092 17.5399 1.27064 17.13 1.25995C16.6563 1.26195 16.2014 1.44559 15.8591 1.77304C15.5167 2.10049 15.313 2.5468 15.29 3.01996C15.3989 3.51971 15.6073 3.99243 15.9028 4.40991C16.1983 4.8274 16.5749 5.1811 17.01 5.44995C17.8628 6.15516 18.9082 6.58724 20.01 6.68994C20.7202 6.719 21.4254 6.55828 22.0528 6.22433C22.6803 5.89039 23.2074 5.39528 23.58 4.78995C24.1432 3.42739 24.3629 1.94735 24.22 0.47995C24.2025 0.353174 24.1396 0.237023 24.0431 0.152954C23.9466 0.0688856 23.823 0.022583 23.695 0.022583C23.567 0.022583 23.4434 0.0688856 23.3469 0.152954C23.2504 0.237023 23.1875 0.353174 23.17 0.47995L23.22 0.509949Z" fill="#393939"/>
<path d="M12.92 0.509979C12.92 2.22998 13.08 4.67997 11.12 5.40997C10.7171 5.57693 10.2835 5.65699 9.84752 5.64493C9.41156 5.63287 8.98304 5.52898 8.58998 5.34C7.79804 4.9933 7.08901 4.48196 6.51 3.84C6.15 3.42 5.78998 2.83998 6.36998 2.47998C6.46049 2.40866 6.56588 2.35856 6.67833 2.33337C6.79078 2.30819 6.90745 2.30856 7.01973 2.33447C7.13202 2.36038 7.23706 2.41118 7.32711 2.48309C7.41715 2.555 7.48989 2.6462 7.54 2.74997C7.70412 3.03962 7.80037 3.36273 7.82149 3.69498C7.84261 4.02722 7.78804 4.35993 7.66191 4.66803C7.53579 4.97613 7.34138 5.25157 7.09334 5.47363C6.84531 5.69569 6.55012 5.85857 6.23 5.94998C5.66136 6.11992 5.06354 6.16944 4.47469 6.0954C3.88584 6.02136 3.31886 5.8254 2.80999 5.51999C2.3338 5.17003 1.97157 4.68723 1.76876 4.13217C1.56595 3.57711 1.5316 2.97451 1.67 2.39999C1.75 1.72999 0.669984 1.73999 0.619984 2.39999C0.497215 3.07193 0.545534 3.76394 0.760487 4.41229C0.975439 5.06065 1.35012 5.64448 1.84999 6.10999C2.3958 6.53336 3.02251 6.8405 3.69152 7.01248C4.36053 7.18446 5.05769 7.21765 5.74001 7.10999C6.26146 7.09074 6.77067 6.94661 7.22484 6.6897C7.67902 6.43279 8.06489 6.07062 8.35003 5.63361C8.63516 5.1966 8.81122 4.6975 8.86342 4.17831C8.91562 3.65913 8.84244 3.13502 8.65001 2.64999C8.52606 2.26137 8.28625 1.91993 7.96273 1.67148C7.63921 1.42303 7.24743 1.27944 6.83998 1.25998C6.36554 1.25953 5.90925 1.44237 5.56639 1.77032C5.22354 2.09827 5.02062 2.54599 4.99999 3.01999C5.10877 3.53018 5.32224 4.01223 5.62691 4.43567C5.93158 4.85911 6.32084 5.21471 6.77001 5.47998C7.62084 6.18845 8.66727 6.62096 9.77001 6.71997C10.4802 6.74903 11.1853 6.58831 11.8128 6.25436C12.4403 5.92042 12.9674 5.42531 13.34 4.81998C13.8935 3.45487 14.1096 1.9764 13.97 0.509979C13.9336 0.406431 13.8659 0.316745 13.7764 0.253296C13.6868 0.189846 13.5798 0.155762 13.47 0.155762C13.3602 0.155762 13.2532 0.189846 13.1636 0.253296C13.0741 0.316745 13.0064 0.406431 12.97 0.509979H12.92Z" fill="#393939"/>
</g>
<defs>
<clipPath id="clip0_208_118">
<rect width="7.15" height="137.43" fill="white" transform="translate(138) rotate(90)"/>
</clipPath>
</defs>
</svg>
