<svg xmlns="http://www.w3.org/2000/svg" width="71.495" height="69.796" viewBox="0 0 71.495 69.796">
  <g id="couple" transform="translate(-4.305 -10.197)">
    <path id="Path_62451" data-name="Path 62451" d="M171.5,258.219a.426.426,0,0,0,.426-.426.773.773,0,0,1,1.545,0,.426.426,0,1,0,.852,0,1.625,1.625,0,0,0-3.25,0A.426.426,0,0,0,171.5,258.219Z" transform="translate(-143.085 -211.037)" fill="#b98989"/>
    <path id="Path_62452" data-name="Path 62452" d="M126.916,257.793a.773.773,0,1,1,1.545,0,.426.426,0,1,0,.852,0,1.625,1.625,0,1,0-3.249,0,.426.426,0,1,0,.852,0Z" transform="translate(-104.466 -211.037)" fill="#b98989"/>
    <path id="Path_62453" data-name="Path 62453" d="M143.064,296.346a.426.426,0,0,0,0,.6,3.252,3.252,0,0,0,4.6,0,.426.426,0,1,0-.6-.6,2.4,2.4,0,0,1-3.394,0A.426.426,0,0,0,143.064,296.346Z" transform="translate(-118.945 -245.401)" fill="#b98989"/>
    <path id="Path_62454" data-name="Path 62454" d="M155.143,199.391a.426.426,0,0,0,0,.852h.136a7.751,7.751,0,0,1,5.517,2.285.426.426,0,0,0,.6-.6,8.6,8.6,0,0,0-6.119-2.535Z" transform="translate(-129.049 -162.323)" fill="#b98989"/>
    <path id="Path_62455" data-name="Path 62455" d="M371.594,258.223a.426.426,0,0,0,.426-.426.773.773,0,1,1,1.545,0,.426.426,0,1,0,.852,0,1.625,1.625,0,1,0-3.25,0,.426.426,0,0,0,.426.426Z" transform="translate(-314.758 -211.04)" fill="#b98989"/>
    <path id="Path_62456" data-name="Path 62456" d="M328.979,258.223a.426.426,0,0,0,.426-.426,1.625,1.625,0,0,0-3.25,0,.426.426,0,1,0,.852,0,.773.773,0,0,1,1.545,0,.426.426,0,0,0,.426.426Z" transform="translate(-276.139 -211.04)" fill="#b98989"/>
    <path id="Path_62457" data-name="Path 62457" d="M347.753,296.956a.426.426,0,0,0-.6-.6,2.4,2.4,0,0,1-3.394,0,.426.426,0,1,0-.6.6,3.252,3.252,0,0,0,4.6,0Z" transform="translate(-290.616 -245.408)" fill="#b98989"/>
    <path id="Path_62458" data-name="Path 62458" d="M298.776,373.826a3.2,3.2,0,0,1-1.923-1.877,3.028,3.028,0,0,1,.352-2.222.426.426,0,0,0-.717-.46,3.853,3.853,0,0,0-.454,2.915,4,4,0,0,0,2.388,2.419.426.426,0,0,0,.355-.775Z" transform="translate(-250.188 -307.904)" fill="#b98989"/>
    <path id="Path_62459" data-name="Path 62459" d="M4.6,32.735a4.808,4.808,0,0,0,4.25,3.142,33.092,33.092,0,1,0,62.4,0,4.808,4.808,0,0,0,4.25-3.141c.05-.136.094-.276.132-.416a4.806,4.806,0,0,0-2.985-5.751c-.1-.035-.2-.069-.305-.1a4.8,4.8,0,0,0-5.1,1.6,33.3,33.3,0,0,0-3.693-4.438,4.683,4.683,0,0,0,2.163-4.6c-.015-.106-.032-.209-.052-.307a4.68,4.68,0,0,0-5.1-3.721c-.141.016-.282.038-.42.065a4.685,4.685,0,0,0-3.538,3.193,33.142,33.142,0,0,0-3.117-1.59A4.538,4.538,0,0,0,50.06,11.9a6.3,6.3,0,0,0-3.793.436,6.483,6.483,0,0,0-3.2-2.018,4.277,4.277,0,0,0-2.86.3,4.278,4.278,0,0,0-2.86-.3,6.486,6.486,0,0,0-3.2,2.018,6.3,6.3,0,0,0-3.793-.436,4.515,4.515,0,0,0-3.438,4.643,33.121,33.121,0,0,0-3.43,1.727,4.685,4.685,0,0,0-3.538-3.193c-.138-.028-.279-.05-.42-.066a4.68,4.68,0,0,0-5.1,3.721q-.029.146-.052.309a4.683,4.683,0,0,0,2.163,4.594,33.315,33.315,0,0,0-3.693,4.437,4.8,4.8,0,0,0-5.1-1.6c-.105.032-.207.065-.3.1a4.806,4.806,0,0,0-2.985,5.751c.038.14.082.28.132.416ZM8.634,35A3.949,3.949,0,0,1,5.6,32.9a5.134,5.134,0,0,0,1.176.141,4.187,4.187,0,0,0,1.475-.259,4.017,4.017,0,0,0,1.479-.98,9.179,9.179,0,0,1-1.1,3.2ZM7.569,30.038a1.575,1.575,0,0,1,1.874-.693,4.459,4.459,0,0,1,.281,1.063,3.643,3.643,0,0,1-1.55,1.478,1.528,1.528,0,0,1-.6-1.848ZM18.252,70.675q-.506-.466-1-.954Q16.113,68.58,15.1,67.347h.131V64.818A3.637,3.637,0,0,1,17.188,61.6a19.492,19.492,0,0,1,1.065,9.078Zm5.185,3.892a32.3,32.3,0,0,1-4.421-3.208,20.376,20.376,0,0,0-1.033-10.067,3.625,3.625,0,0,1,.883-.109h1.58A18.478,18.478,0,0,0,23.585,73.7ZM21.3,61.183h.166a4.81,4.81,0,0,0,.185,1.342,4.747,4.747,0,0,0,.933,1.762l.693.827a1.008,1.008,0,0,0,.779.365c.021,0,.043,0,.064,0a1.014,1.014,0,0,0,.529-.187l.323.277L23.8,72.462A17.623,17.623,0,0,1,21.3,61.183ZM18.1,46.1V39.027a3.264,3.264,0,0,1,1.88-2.949l2.057-.958a.426.426,0,0,1,.536.155.426.426,0,0,0,.554.148L26.453,33.7a2.207,2.207,0,0,1,2.312.168l4.15,2.981a3.927,3.927,0,0,1,1.633,3.182V45.44a2.349,2.349,0,0,0-2.3-1.9.708.708,0,0,1-.707-.707v-.774c.416.037.836.057,1.258.057h.281a.426.426,0,1,0,0-.852H32.8a13.047,13.047,0,0,1-9.167-3.727,1.594,1.594,0,0,1,1.583-1.423h2.329a.426.426,0,0,0,0-.852H25.214A2.447,2.447,0,0,0,22.77,37.7a.426.426,0,0,0,.125.3l.012.012q.14.14.284.275a6.522,6.522,0,0,0-1.107.278l-.293.1a4.088,4.088,0,0,0-2.746,3.86V46.08A1.569,1.569,0,0,0,18.1,46.1Zm.941.909v1.645a.939.939,0,0,1-.829-1.664.72.72,0,0,1,.829.019Zm15.563-.019a.94.94,0,0,1-.814,1.67V47a.719.719,0,0,1,.814-.009ZM19.9,42.528a3.236,3.236,0,0,1,2.173-3.055l.293-.1a5.667,5.667,0,0,1,1.715-.311,13.843,13.843,0,0,0,6.61,2.892v.875a1.561,1.561,0,0,0,1.559,1.559,1.483,1.483,0,0,1,.7.173v5.126a6.522,6.522,0,1,1-13.045,0ZM27.649,64.6l-.287.237a1.83,1.83,0,0,0-1.917.011l-.267-.229L26.419,62.7Zm-2.5-3.849a3.057,3.057,0,0,1-1.571-2.67V56.492a7.367,7.367,0,0,0,5.677,0v1.585a3.057,3.057,0,0,1-1.571,2.67l-1.267.7Zm1.884,1.336,1.064-.591a3.91,3.91,0,0,0,1.848-2.3A3.929,3.929,0,0,1,29.6,63.74l-.693.827a.167.167,0,0,1-.268-.016Zm-2.3-.591,1.064.591-1.6,2.467a.167.167,0,0,1-.269.016l-.693-.827a3.929,3.929,0,0,1-.353-4.552,3.91,3.91,0,0,0,1.848,2.3Zm-.515,13.534,1.612-9.417a.966.966,0,0,1,1.148,0l1.9,11.577a31.84,31.84,0,0,1-4.659-2.156Zm3.615-9.482.327-.268a1.012,1.012,0,0,0,.549.2l.064,0a1.008,1.008,0,0,0,.779-.365l.693-.827a4.749,4.749,0,0,0,.933-1.762,4.81,4.81,0,0,0,.185-1.342h.119A17.624,17.624,0,0,1,28.976,72.49Zm6.515,13.119A31.988,31.988,0,0,1,29.8,77.506l-.618-3.771a18.478,18.478,0,0,0,3.164-12.552h1.627a3.628,3.628,0,0,1,.837.1,19.172,19.172,0,0,0-.456,12.353Zm3.254.409q-1.21-.09-2.4-.269V73.571a.423.423,0,0,0-.019-.126,18.3,18.3,0,0,1,.424-11.871,3.638,3.638,0,0,1,2,3.243ZM42.8,64.818V79.048c-.908.076-1.824.117-2.746.117q-.8,0-1.594-.039V74.075l7.455-22.381a4.653,4.653,0,0,0,.67,3.267,4.7,4.7,0,0,0,.591.745l-.217.426c-.11.009-.22.019-.329.034a.426.426,0,0,0-.359.332l-.412,1.9a.426.426,0,0,0,.1.379.418.418,0,0,0,.054.046,8.781,8.781,0,0,0-2.79,4.085,4.449,4.449,0,0,0-.426,1.913ZM55.813,36.769a.426.426,0,0,0-.6.085,18.108,18.108,0,0,1-8.693,6.288A9.313,9.313,0,0,1,47.2,40.1a1.282,1.282,0,0,0,.707.208,1.508,1.508,0,0,0,.662-.159h0a2.308,2.308,0,0,0,1.1-2.391,3,3,0,0,0,1.1.225,2.057,2.057,0,0,0,1.562-.652,1.325,1.325,0,0,0,.114-1.721,1.542,1.542,0,0,0-.5-.415,9.153,9.153,0,0,1,3.744-.789,7.584,7.584,0,0,1,7.575,7.575v4.176a1.531,1.531,0,0,0-.181-.066,6.933,6.933,0,0,1-3.855-5.446,10.2,10.2,0,0,1,.106-3.53.426.426,0,0,0-.779-.322A18.171,18.171,0,0,1,46.9,45.155l-.266.058-.049-.381c-.034-.264-.056-.528-.067-.792A18.958,18.958,0,0,0,55.9,37.366a.426.426,0,0,0-.086-.6ZM46.6,38.063a.488.488,0,0,1,.076-.636,1.2,1.2,0,0,1,.92-.366,2.4,2.4,0,0,1,1.149.333c.258,1.054-.086,1.757-.557,1.993a.483.483,0,0,1-.633-.1.958.958,0,0,1-.156-.544.426.426,0,0,0-.309-.4A.928.928,0,0,1,46.6,38.063Zm3.581-3.256a.483.483,0,0,1,.633.1.957.957,0,0,1,.156.544.426.426,0,0,0,.309.4.926.926,0,0,1,.49.287.488.488,0,0,1-.076.636,1.652,1.652,0,0,1-2.069.033c-.258-1.055.086-1.758.557-1.994ZM49.857,59.69a.426.426,0,0,0,.416-.336l.412-1.9a.425.425,0,0,0-.118-.393h.655V58.9a1.434,1.434,0,0,1-1.432,1.432h-.069c-.012-.225-.018-.449-.021-.674a.426.426,0,0,0,.157.03Zm-.295-1.078-.106-.051A5.79,5.79,0,0,0,47,58.012l-.185,0,.224-1.035a4.962,4.962,0,0,1,2.75.6Zm.848-2.4-.137,0A3.631,3.631,0,0,1,47.3,54.5a3.8,3.8,0,0,1-.3-3.524l.405-.959a7.45,7.45,0,0,0,3.815,6.1v.089ZM46.919,46.025l.167-.037c.108-.024.215-.049.323-.075v.154a1.584,1.584,0,0,0-.49-.044Zm1.329,3.6.014-3.931a19.056,19.056,0,0,0,10.016-6.952,10.965,10.965,0,0,0,.1,2,7.876,7.876,0,0,0,2.98,5.266v3.68a6.53,6.53,0,0,1-6.523,6.522,6.6,6.6,0,0,1-6.59-6.589Zm13.965.066v-.152a1.761,1.761,0,0,0,.277.024,1.815,1.815,0,0,0,.675-.131c.034-.013.066-.028.1-.045v.4A4.605,4.605,0,0,1,61,53.728a7.329,7.329,0,0,0,1.211-4.042Zm.635-1.05a.944.944,0,0,1-.635.027V47A.718.718,0,0,1,63.026,47a.937.937,0,0,1-.178,1.64ZM46.634,46.994a.715.715,0,0,1,.771-.017l-.006,1.7a.939.939,0,0,1-.765-1.682Zm.068,2.5-.267.633.215-.647.052.015Zm.413,28.9a32.25,32.25,0,0,1-3.465.572V66.058a8.013,8.013,0,0,0,3.227,2.866l.037.018.075.035-.055.126a5.678,5.678,0,0,0-.452,2.619,2.782,2.782,0,0,0,.633,1.585ZM43.944,64.156c-.132-2.525,2.731-4.814,3.355-5.282a4.933,4.933,0,0,1,1.548.351c-.006.584.014,1.172.064,1.753a.423.423,0,0,0,.011.065,3.415,3.415,0,0,0,1.378,2l.905.625a3.892,3.892,0,0,1,1.437,4.563l-.258.693-1.6,2.783a4.723,4.723,0,0,0-1.54-2.274,8.484,8.484,0,0,0-1.969-1.267C45.141,66.993,44.022,65.643,43.944,64.156Zm4.963,10.72-.5,3.2c-.147.039-.295.079-.443.117V74a2.766,2.766,0,0,0,.5.208.613.613,0,0,1,.437.668ZM62.85,69.722a32.074,32.074,0,0,1-13.537,8.1L49.751,75a1.463,1.463,0,0,0-1.037-1.607,1.947,1.947,0,0,1-1.382-1.727,4.821,4.821,0,0,1,.383-2.222l.024-.055a7.3,7.3,0,0,1,.956.7A3.177,3.177,0,0,1,50.005,73.1a.426.426,0,0,0,.788.291l2.347-4.073a.432.432,0,0,0,.03-.064l.27-.726a4.743,4.743,0,0,0-.833-4.732,19.85,19.85,0,0,0,10.941,2.936q.963,0,2-.075a32.736,32.736,0,0,1-2.7,3.062Zm3.175-3.953c-9.352.843-14.031-3.2-15.442-4.729A2.287,2.287,0,0,0,52.074,58.9V56.526a7.381,7.381,0,0,0,5.528-.005V58.9a2.287,2.287,0,0,0,2.284,2.284h2.5a3.638,3.638,0,0,1,3.634,3.634Zm.852-.942v-.008a4.491,4.491,0,0,0-4.486-4.486h-2.5A1.434,1.434,0,0,1,58.454,58.9V56.11a7.4,7.4,0,0,0,1.4-1.023,5.462,5.462,0,0,0,4.223-4.662l3.248,13.717q-.219.344-.447.684Zm5.786-30.166A3.939,3.939,0,0,1,71.471,35a9.2,9.2,0,0,1-1.1-3.2,4.019,4.019,0,0,0,1.479.98,4.191,4.191,0,0,0,1.475.259A5.134,5.134,0,0,0,74.5,32.9a3.923,3.923,0,0,1-1.84,1.763Zm-.382-7.318.076.025a3.946,3.946,0,0,1,2.5,4.533,4.256,4.256,0,0,1-2.069.245A2.248,2.248,0,0,0,71.2,28.382,4.462,4.462,0,0,1,72.281,27.343Zm.114,2.7a1.4,1.4,0,0,1-.564,1.8,3.7,3.7,0,0,1-1.45-1.429,4.454,4.454,0,0,1,.3-1.1,1.4,1.4,0,0,1,1.715.734Zm-3.068-2.543a3.95,3.95,0,0,1,1.668-.369c.062,0,.123,0,.185.007a5.25,5.25,0,0,0-1.666,3.32,8.284,8.284,0,0,0,1,4.549,3.952,3.952,0,0,1-1.186-7.506ZM70.6,38.458l-.216.838-.839-.216a1.934,1.934,0,0,1-1.388-2.351c.008-.028.016-.057.026-.085a.862.862,0,0,1,.81-.567.873.873,0,0,1,.218.028c.068.018.13.037.188.058a1.924,1.924,0,0,1,1.2,2.294ZM66.77,34.29c-.018.069-.037.13-.059.188a1.925,1.925,0,0,1-2.294,1.2l-.838-.216.216-.839a1.934,1.934,0,0,1,2.351-1.388c.029.008.058.016.085.026A.863.863,0,0,1,66.77,34.29ZM65.8,27.525a2.778,2.778,0,0,0-.554-.327l-1-.44-.27-1.012a2.7,2.7,0,0,0-.439-.908A32.519,32.519,0,0,1,65.8,27.525Zm.1,3a.866.866,0,0,1-1.091.466l-.05-.02a1.935,1.935,0,0,1-1.039-2.434c.014-.038.029-.075.044-.11l.347-.793.793.348a1.934,1.934,0,0,1,.995,2.544ZM60.87,15.84q.1-.006.209-.006A3.828,3.828,0,0,1,64.832,18.9c0,.023.008.047.012.071a4.234,4.234,0,0,1-1.12.862,2.464,2.464,0,0,0-.02-.726,2.238,2.238,0,0,0-.931-1.474,2.15,2.15,0,0,0-1.708-.281,2.427,2.427,0,0,0-.729.307,4.211,4.211,0,0,1,.534-1.822Zm1.867,4.372a4.3,4.3,0,0,1-1.1.124,3.536,3.536,0,0,1-1.179-1.677,1.545,1.545,0,0,1,.8-.476,1.31,1.31,0,0,1,1.039.161,1.383,1.383,0,0,1,.565.914,1.531,1.531,0,0,1-.128.954ZM57.9,17.539a3.8,3.8,0,0,1,1.932-1.494,4.454,4.454,0,0,0-.268,2.545,3.907,3.907,0,0,0,.7,1.54A8.957,8.957,0,0,1,57.4,18.621a3.813,3.813,0,0,1,.5-1.083Zm3.566,3.649q.119.005.238.005a5.1,5.1,0,0,0,3.18-1.1,3.825,3.825,0,0,1-7.625-.522,8.036,8.036,0,0,0,4.208,1.617Zm1.687,4.778.213.8-.8.213c-.038.01-.076.019-.115.027a1.866,1.866,0,0,1-2.17-1.348c0-.016-.008-.033-.012-.049a.829.829,0,0,1,.6-.964,1.863,1.863,0,0,1,2.281,1.321Zm-.5-1.9.1-.036c.1.1.207.205.309.309a2.743,2.743,0,0,0-.406-.273Zm-6.036,1.97-.825.083L55.71,25.3a1.857,1.857,0,0,1,1.481-2.013c.059-.012.12-.021.186-.028q.043,0,.085,0a.825.825,0,0,1,.811.663c.005.027.009.055.012.083a1.866,1.866,0,0,1-1.668,2.04Zm-.186-6.888c-.007.066-.013.132-.017.2a2.694,2.694,0,0,0-.294-.379l.31.181Zm-3.008-1.571q.587.268,1.165.561a2.752,2.752,0,0,0-.739-.026l-.543.061C53.355,17.978,53.393,17.779,53.423,17.579Zm-.211,1.465.728-.082a1.857,1.857,0,0,1,2.012,1.481c.012.059.021.12.028.186a.826.826,0,0,1-.659.9c-.027.006-.056.009-.083.012A1.866,1.866,0,0,1,53.2,19.893Zm-12.8-7.573a3.432,3.432,0,0,1,2.462-.325,5.833,5.833,0,0,1,2.954,1.977.426.426,0,0,0,.493.111,5.659,5.659,0,0,1,3.544-.506A3.7,3.7,0,0,1,52.642,16.8a6.624,6.624,0,0,1-1.38,3.706c-1.585,2.122-4.347,3.577-7.777,4.1l-.053,0a.44.44,0,0,1-.043-.022,15.57,15.57,0,0,1-2.856-2.553c-1.823-2.122-3.292-5.467-1.947-8.486A4.368,4.368,0,0,1,40.414,11.471Zm-9.863,1.257a5.659,5.659,0,0,1,3.544.506.426.426,0,0,0,.493-.111,5.833,5.833,0,0,1,2.954-1.977,3.488,3.488,0,0,1,1.776.042,5.5,5.5,0,0,0-1.51,2.01,7.409,7.409,0,0,0-.439,4.434A10.728,10.728,0,0,0,39.647,22.3a15.889,15.889,0,0,1-2.616,2.284l-.041.022a.487.487,0,0,1-.056,0c-3.431-.52-6.192-1.975-7.777-4.1a6.623,6.623,0,0,1-1.38-3.707A3.7,3.7,0,0,1,30.552,12.728Zm-3.574,4.718a6.865,6.865,0,0,0,.14.755l-.868-.087a2.739,2.739,0,0,0-.731.025Q26.24,17.774,26.977,17.446Zm-2.853,3.185c.007-.068.016-.13.028-.188a1.856,1.856,0,0,1,1.822-1.49c.063,0,.126,0,.19.01l.824.083-.083.825a1.865,1.865,0,0,1-2.039,1.667.849.849,0,0,1-.084-.012A.825.825,0,0,1,24.124,20.631Zm-.139-1.664a2.7,2.7,0,0,0-.294.379c0-.066-.01-.132-.017-.2Zm-3.443-.378a4.453,4.453,0,0,0-.268-2.544,3.825,3.825,0,0,1,2.431,2.576,8.953,8.953,0,0,1-2.867,1.508A3.907,3.907,0,0,0,20.543,18.589Zm-5.269.311a3.827,3.827,0,0,1,3.752-3.066q.105,0,.21.006a4.18,4.18,0,0,1,.532,1.762,2.365,2.365,0,0,0-.735-.283,2.276,2.276,0,0,0-1.7.316,2.164,2.164,0,0,0-.906,1.493,2.525,2.525,0,0,0,0,.729,4.324,4.324,0,0,1-1.165-.886c.005-.024.009-.047.013-.071Zm4.387-.3a3.5,3.5,0,0,1-1.194,1.738,4.318,4.318,0,0,1-1.046-.111,1.618,1.618,0,0,1-.151-.971,1.313,1.313,0,0,1,.536-.911,1.417,1.417,0,0,1,1.06-.19,1.453,1.453,0,0,1,.795.444Zm-3.822,3.184a3.819,3.819,0,0,1-.615-1.69,5.1,5.1,0,0,0,3.18,1.1c.079,0,.158,0,.237-.005a8.043,8.043,0,0,0,4.208-1.617,3.827,3.827,0,0,1-7.01,2.212Zm7.076,1.5A1.857,1.857,0,0,1,24.4,25.3l-.083.824-.825-.083A1.866,1.866,0,0,1,21.821,24c0-.028.007-.057.012-.084a.825.825,0,0,1,.81-.663.8.8,0,0,1,.084,0c.068.008.129.017.188.029Zm-3.68,1.361a.829.829,0,0,1,.6.964c0,.016-.007.033-.012.05a1.866,1.866,0,0,1-2.17,1.346c-.038-.008-.076-.017-.111-.026l-.8-.214.213-.8A1.867,1.867,0,0,1,19.235,24.645Zm-2.189-.3c.1-.1.206-.207.309-.31l.1.036A2.732,2.732,0,0,0,17.046,24.341Zm-.476.5a2.7,2.7,0,0,0-.439.908l-.27,1.012-1,.44a2.768,2.768,0,0,0-.554.327,32.5,32.5,0,0,1,2.267-2.687ZM15.2,27.978l.793-.348.346.79c.016.038.032.075.046.114a1.935,1.935,0,0,1-1.04,2.434c-.016.007-.032.014-.049.02a.866.866,0,0,1-1.09-.466,1.934,1.934,0,0,1,.994-2.544Zm-1.326,5.285c.027-.01.056-.018.084-.026a1.931,1.931,0,0,1,2.352,1.388l.216.839-.838.216a1.925,1.925,0,0,1-2.294-1.2c-.021-.058-.04-.12-.058-.187a.863.863,0,0,1,.538-1.029ZM15.2,36.594a2.816,2.816,0,0,0,.7-.089l1.251-.322a.426.426,0,0,0,.306-.519l-.322-1.252a2.787,2.787,0,0,0-3.391-2l-.019.006a4.775,4.775,0,0,0,.173-.926,1.726,1.726,0,0,0,1.1.4,1.7,1.7,0,0,0,.588-.1c.034-.012.068-.026.1-.04a2.788,2.788,0,0,0,1.5-3.508c-.019-.052-.04-.1-.063-.158l-.165-.376.369.1c.053.014.106.026.159.037a2.713,2.713,0,0,0,3.162-1.96c.009-.034.017-.069.024-.1a1.681,1.681,0,0,0-.519-1.576,4.621,4.621,0,0,0,.823-.288,2.72,2.72,0,0,0,2.43,2.973l1.25.125.043,0a.426.426,0,0,0,.424-.383l.125-1.248a2.706,2.706,0,0,0-2.159-2.932c-.085-.017-.173-.031-.271-.041h0a4.638,4.638,0,0,0,.577-1.065,1.673,1.673,0,0,0,1.224,1.018c.054.011.11.019.167.025a2.715,2.715,0,0,0,2.971-2.432l.007-.068a8.385,8.385,0,0,0,.714,1.133c1.723,2.306,4.687,3.88,8.347,4.432l.148.009a1,1,0,0,0,.209-.02,1.085,1.085,0,0,0,.308-.134l.021-.014a16.84,16.84,0,0,0,2.7-2.34,16.81,16.81,0,0,0,2.7,2.34l.021.014a1.094,1.094,0,0,0,.315.136.969.969,0,0,0,.2.019l.151-.009c3.66-.552,6.624-2.126,8.347-4.432a8.325,8.325,0,0,0,.471-.7,2.713,2.713,0,0,0,2.91,2.066c.057-.006.112-.014.166-.025a1.672,1.672,0,0,0,1.224-1.018,4.632,4.632,0,0,0,.577,1.066h0c-.1.01-.183.023-.269.04a2.706,2.706,0,0,0-2.159,2.933l.125,1.248a.426.426,0,0,0,.424.383l.043,0,1.25-.125a2.719,2.719,0,0,0,2.43-2.972,4.644,4.644,0,0,0,.823.288,1.681,1.681,0,0,0-.519,1.576c.007.034.015.069.024.1a2.713,2.713,0,0,0,3.162,1.961c.053-.011.105-.023.162-.038l.366-.1-.166.379c-.022.052-.043.1-.062.155a2.787,2.787,0,0,0,1.495,3.507c.033.014.067.028.1.04a1.705,1.705,0,0,0,.589.105,1.726,1.726,0,0,0,1.1-.4,4.766,4.766,0,0,0,.173.926l-.02-.006a2.787,2.787,0,0,0-3.39,2l-.322,1.252a.426.426,0,0,0,.306.519l1.251.322a2.815,2.815,0,0,0,.7.089,2.772,2.772,0,0,0,2.6-1.822c.031-.083.058-.17.083-.267,0-.008,0-.016,0-.024a4.757,4.757,0,0,0,1.035.783,1.711,1.711,0,0,0-1.247,1.087c-.019.053-.036.108-.051.165a2.787,2.787,0,0,0,2,3.39l1.252.322a.427.427,0,0,0,.519-.306l.221-.857A32.382,32.382,0,0,1,67.953,63.1L64.284,47.608l-.009,0c0-.032,0-.064-.01-.1a1.807,1.807,0,0,0-.151-.5V41.981a8.436,8.436,0,0,0-8.427-8.427,9.994,9.994,0,0,0-4.154.891c-.014-.02-.026-.043-.041-.062a1.331,1.331,0,0,0-1.684-.342h0a2.307,2.307,0,0,0-1.1,2.391,2.324,2.324,0,0,0-2.664.427,1.325,1.325,0,0,0-.114,1.721,1.6,1.6,0,0,0,.651.488,1.94,1.94,0,0,0,.049.214,10.163,10.163,0,0,0-.967,4.124q-.524.148-1.057.266a.426.426,0,1,0,.182.832q.452-.1.9-.22c.014.217.034.435.062.652l.059.456-1.579.345a.426.426,0,1,0,.182.833l1.506-.329.028.222a1.78,1.78,0,0,0-.545,1.049,1.8,1.8,0,0,0,.508,1.517L38.458,71.378V64.818a4.491,4.491,0,0,0-4.486-4.486H31.285a4.772,4.772,0,0,0-.838-1.932l-.336-.461V56.067a7.377,7.377,0,0,0,3.684-6.381v-.152a1.76,1.76,0,0,0,.277.024,1.791,1.791,0,0,0,1.33-2.994V40.033a4.781,4.781,0,0,0-1.988-3.874l-4.15-2.981a3.054,3.054,0,0,0-3.2-.233l-3.036,1.572a1.283,1.283,0,0,0-1.347-.169l-2.056.958a4.12,4.12,0,0,0-2.372,3.721v7.759a1.783,1.783,0,0,0,1.793,2.746v.155a7.377,7.377,0,0,0,3.684,6.381v1.872l-.337.461a4.776,4.776,0,0,0-.838,1.932H18.867a4.491,4.491,0,0,0-4.486,4.486v1.615a32.324,32.324,0,0,1-5.6-27.368L9,39.921a.427.427,0,0,0,.519.306l1.252-.322a2.788,2.788,0,0,0,2-3.39,1.673,1.673,0,0,0-.051-.164,1.711,1.711,0,0,0-1.248-1.087,4.755,4.755,0,0,0,1.036-.783c0,.008,0,.017.005.025.025.1.052.182.083.266a2.771,2.771,0,0,0,2.6,1.821Zm-4.5-.43c.058-.021.12-.04.187-.058a.876.876,0,0,1,.219-.028.862.862,0,0,1,.809.566c.01.027.019.056.026.084a1.934,1.934,0,0,1-1.387,2.352l-.839.216L9.5,38.458a1.924,1.924,0,0,1,1.2-2.294ZM9.112,27.125A3.952,3.952,0,0,1,9.594,35a8.284,8.284,0,0,0,1-4.548,5.25,5.25,0,0,0-1.667-3.321c.061,0,.123-.007.185-.007ZM5.528,29.409a3.924,3.924,0,0,1,2.22-2.041l.078-.026a4.381,4.381,0,0,1,1.1,1.068A2.217,2.217,0,0,0,7.2,32.16a4.353,4.353,0,0,1-1.956-.26,3.957,3.957,0,0,1,.28-2.491Z" transform="translate(0 0)" fill="#b98989"/>
  </g>
</svg>
