<svg xmlns="http://www.w3.org/2000/svg" width="73.788" height="69.796" viewBox="0 0 73.788 69.796">
  <g id="home_1_" data-name="home (1)" transform="translate(0 -13.845)">
    <g id="_x30_8_home" transform="translate(0 13.845)">
      <path id="Path_76092" data-name="Path 76092" d="M62.09,51.66V79.3a2.178,2.178,0,0,1-2.176,2.176H58.238a1.081,1.081,0,1,0,0,2.162h1.676A4.343,4.343,0,0,0,64.252,79.3V53.911l2.2,2.29a2.561,2.561,0,0,0,3.658.037l2.931-2.932a2.575,2.575,0,0,0,.036-3.586L39.808,15.087a4.041,4.041,0,0,0-5.83,0L.708,49.721a2.575,2.575,0,0,0,.036,3.586l2.932,2.932A2.561,2.561,0,0,0,7.335,56.2l2.2-2.29v5.251a1.081,1.081,0,0,0,2.162,0v-7.5L36.071,26.287a1.139,1.139,0,0,1,1.644,0Zm9.423.117-2.932,2.932a.4.4,0,0,1-.57-.006L39.275,24.789h0l0,0a3.3,3.3,0,0,0-4.757,0L9.836,50.476l0,0L5.775,54.7a.4.4,0,0,1-.57.006L2.273,51.777a.4.4,0,0,1-.006-.559l33.27-34.633a1.878,1.878,0,0,1,2.711,0l33.27,34.633A.4.4,0,0,1,71.513,51.777Z" transform="translate(0 -13.845)" fill="#b98989"/>
      <path id="Path_76093" data-name="Path 76093" d="M109.789,351.825h-6.413v-12.24a9.865,9.865,0,0,0-19.73,0v12.24H70.49a2.178,2.178,0,0,1-2.176-2.176v-15.1a1.081,1.081,0,0,0-2.162,0v15.1a4.343,4.343,0,0,0,4.338,4.338h39.3a1.081,1.081,0,1,0,0-2.162Zm-23.981-12.24a7.7,7.7,0,0,1,15.406,0v12.24H85.808Z" transform="translate(-56.617 -284.191)" fill="#b98989"/>
    </g>
  </g>
</svg>
