<svg xmlns="http://www.w3.org/2000/svg" width="69.844" height="69.796" viewBox="0 0 69.844 69.796">
  <path id="giftbox" d="M68.766,14.456H63.08a5.879,5.879,0,0,0,.725-5.48L62.081,4.345a5.9,5.9,0,0,0-8.067-3.276L40.377,7.547a4.1,4.1,0,0,0-2.388-.766H31.856a4.1,4.1,0,0,0-2.389.767L15.829,1.069A5.9,5.9,0,0,0,7.763,4.344L6.04,8.977a5.919,5.919,0,0,0,.28,4.748,5.815,5.815,0,0,0,.446.731H1.078A1.078,1.078,0,0,0,0,15.534v7.76a1.078,1.078,0,0,0,2.156,0V16.612H9.643c.12.042.241.081.364.115l9.05,2.491a72.008,72.008,0,0,0-5.3,9.682H2.156V27.606a1.078,1.078,0,0,0-2.156,0v2.372a1.078,1.078,0,0,0,1.078,1.078H4.922V69.218A1.078,1.078,0,0,0,6,70.3H63.844a1.078,1.078,0,0,0,1.078-1.078V62.959a1.078,1.078,0,0,0-2.156,0v5.182H41.389V31.719a57.724,57.724,0,0,1,6.072,18.569,1.077,1.077,0,0,0,.8.888,1.063,1.063,0,0,0,.267.034,1.077,1.077,0,0,0,.861-.429,60.106,60.106,0,0,0,4.291-6.554,61.436,61.436,0,0,1,6.3,4.928,1.078,1.078,0,0,0,1.784-.961,72.3,72.3,0,0,0-4.739-17.137h5.742V58.647a1.078,1.078,0,1,0,2.156,0V31.056h3.845a1.078,1.078,0,0,0,1.077-1.078V15.534A1.077,1.077,0,0,0,68.766,14.456ZM54.939,3.017A3.748,3.748,0,0,1,60.061,5.1l1.723,4.631a3.749,3.749,0,0,1-2.519,4.921L42.106,19.372V14.191c3.857-2.362,13.472-7.233,15.865-3.855A1.078,1.078,0,1,0,59.73,9.091c-1.847-2.607-5.739-2.734-11.569-.376a51.344,51.344,0,0,0-6.055,2.978v-.8a4.1,4.1,0,0,0-.335-1.626ZM31.856,8.936h6.132A1.964,1.964,0,0,1,39.95,10.9v8.91a1.964,1.964,0,0,1-1.961,1.961H31.856a1.964,1.964,0,0,1-1.961-1.961V10.9A1.964,1.964,0,0,1,31.856,8.936ZM30.044,28.9a57.494,57.494,0,0,1,3.361-4.974h3.033A57.252,57.252,0,0,1,39.8,28.9ZM8.238,12.743A3.71,3.71,0,0,1,8.06,9.728L9.784,5.1A3.747,3.747,0,0,1,14.9,3.017L28.074,9.272a4.092,4.092,0,0,0-.335,1.626v.857a51.522,51.522,0,0,0-6.162-3.04c-5.83-2.358-9.722-2.231-11.569.376a1.078,1.078,0,1,0,1.759,1.246c2.415-3.41,12.189,1.585,15.972,3.92v5.115L10.58,14.649A3.708,3.708,0,0,1,8.238,12.743Zm19.984,9a4.135,4.135,0,0,0,2.6,2.053A59.972,59.972,0,0,0,20.685,47.4a58.988,58.988,0,0,1-3.2-5.238,1.077,1.077,0,0,0-1.537-.39A62.451,62.451,0,0,0,10.7,45.61,70.426,70.426,0,0,1,21.242,19.82ZM7.078,31.056H12.82A72.318,72.318,0,0,0,8.08,48.193a1.078,1.078,0,0,0,1.784.961,61.384,61.384,0,0,1,6.3-4.928,60.078,60.078,0,0,0,4.291,6.554,1.078,1.078,0,0,0,.861.429,1.064,1.064,0,0,0,.267-.034,1.077,1.077,0,0,0,.8-.888,57.753,57.753,0,0,1,6.072-18.569V68.141H7.078ZM30.611,68.141V31.056h8.623V68.141ZM53.892,41.776a1.078,1.078,0,0,0-1.537.39,58.913,58.913,0,0,1-3.2,5.238,59.956,59.956,0,0,0-10.141-23.61,4.133,4.133,0,0,0,2.6-2.053L48.6,19.819A70.464,70.464,0,0,1,59.143,45.61,62.546,62.546,0,0,0,53.892,41.776ZM67.688,28.9h-11.6a72.065,72.065,0,0,0-5.3-9.682l9.049-2.491c.123-.034.245-.073.364-.115h7.487Zm0,0" transform="translate(0 -0.5)" fill="#fff"/>
</svg>
