<svg id="wedding-ring" xmlns="http://www.w3.org/2000/svg" width="78.34" height="69.796" viewBox="0 0 78.34 69.796">
  <g id="Group_1021" data-name="Group 1021" transform="translate(26.909 0)">
    <g id="Group_1020" data-name="Group 1020">
      <path id="Path_62461" data-name="Path 62461" d="M198.143,30.169a7.677,7.677,0,0,0-10.016-.728,7.678,7.678,0,0,0-10.019,11.585l9.18,9.177a1.187,1.187,0,0,0,1.679,0l9.176-9.177A7.687,7.687,0,0,0,198.143,30.169Zm-1.679,9.178-8.337,8.338-8.34-8.338a5.3,5.3,0,1,1,7.5-7.5,1.187,1.187,0,0,0,.839.348h0a1.187,1.187,0,0,0,.839-.348,5.3,5.3,0,0,1,7.5,7.5Z" transform="translate(-175.863 -27.919)" fill="#fff"/>
    </g>
  </g>
  <g id="Group_1023" data-name="Group 1023" transform="translate(0 23.109)">
    <g id="Group_1022" data-name="Group 1022">
      <path id="Path_62462" data-name="Path 62462" d="M55,178.949a23.15,23.15,0,0,0-15.836,6.192,23.335,23.335,0,1,0,.019,34.3A23.339,23.339,0,1,0,55,178.949ZM23.344,223.262a20.959,20.959,0,1,1,18.2-10.553,16.889,16.889,0,0,1-1.012-1.452,19.361,19.361,0,0,0-3.025-22.2l-.02-.021c-.144-.153-.289-.305-.438-.454A19.393,19.393,0,0,0,7.519,191.09a1.187,1.187,0,0,0,.967,1.874,1.192,1.192,0,0,0,.97-.5,17.173,17.173,0,0,1,5.949-5.223,16.979,16.979,0,0,1,19.726,2.789,23.325,23.325,0,0,0,.007,24.521,17.032,17.032,0,0,1-4.9,3.3A17,17,0,0,1,12.9,215.72a17.106,17.106,0,0,1-3.479-3.651,17.047,17.047,0,0,1-2.027-15.7,1.188,1.188,0,0,0-2.227-.826A19.383,19.383,0,0,0,23.344,221.68l0-.008v.008a19.357,19.357,0,0,0,13.16-5.154q.485.628,1.01,1.222A20.8,20.8,0,0,1,23.344,223.262Zm17.013-20.969a16.806,16.806,0,0,1-1.189,6.254,16.966,16.966,0,0,1,0-12.507A16.9,16.9,0,0,1,40.357,202.293ZM55,223.263a20.976,20.976,0,0,1-18.2-31.386,16.968,16.968,0,0,1,1.011,1.451,19.365,19.365,0,0,0,3.034,22.207l.009.01c.145.154.291.307.441.458A19.394,19.394,0,0,0,70.821,213.5a1.187,1.187,0,0,0-1.937-1.374,17.178,17.178,0,0,1-5.951,5.223,16.878,16.878,0,0,1-3.781,1.45,17.112,17.112,0,0,1-4.156.511,16.923,16.923,0,0,1-11.787-4.751,23.324,23.324,0,0,0-.008-24.521,17.035,17.035,0,0,1,4.9-3.3,17.088,17.088,0,0,1,12.914-.358l.022.008,0,0a17.034,17.034,0,0,1,9.909,21.829,1.19,1.19,0,0,0,.7,1.525,1.188,1.188,0,0,0,1.527-.7A19.38,19.38,0,0,0,55,182.906h0a19.309,19.309,0,0,0-11.249,3.6,19.492,19.492,0,0,0-1.912,1.556q-.485-.628-1.01-1.222A20.97,20.97,0,1,1,55,223.263Z" transform="translate(0 -178.949)" fill="#fff"/>
    </g>
  </g>
</svg>
