<svg xmlns="http://www.w3.org/2000/svg" width="415.001" height="29.271" viewBox="0 0 415.001 29.271">
  <g id="Group_1092" data-name="Group 1092" transform="translate(0.5 -286.032)">
    <g id="Group_1090" data-name="Group 1090" transform="translate(0.5 11.059)">
      <line id="Line_49" data-name="Line 49" x1="60.5" y1="0.059" transform="translate(353 289.441)" fill="none" stroke="#195141" stroke-linecap="round" stroke-width="1"/>
      <circle id="Ellipse_112" data-name="Ellipse 112" cx="2.5" cy="2.5" r="2.5" transform="translate(350.5 286.941)" fill="#1f604e"/>
    </g>
    <path id="Path_76118" data-name="Path 76118" d="M-93.562-15.379a5.155,5.155,0,0,0-1.179,1.04,11.62,11.62,0,0,0-1.516,2.4,39.08,39.08,0,0,0-1.934,5.046c-.537,1.7-1.031,3.4-1.537,5.1l-.385,1.267q-.2.629-.426,1.249a16.659,16.659,0,0,1-1.028,2.394,3.722,3.722,0,0,1-.7.982.6.6,0,0,1-.374.18.284.284,0,0,1-.118-.044.809.809,0,0,1-.139-.115,1.894,1.894,0,0,1-.282-.391c-.089-.155-.174-.326-.257-.5a10.77,10.77,0,0,1-.456-1.123c-.134-.393-.252-.8-.358-1.208l-.152-.619q-.079-.309-.151-.622l-.281-1.254L-105.1-2.86l-.5-2.542q-.257-1.273-.445-2.562-.332-2.178-.472-4.376a.908.908,0,0,0-.852-.846l-.265-.016a.153.153,0,0,0-.16.129c-.048.316-.086.633-.118.95-.322,1.259-.568,2.521-.819,3.781-.3,1.546-.593,3.09-.916,4.623s-.679,3.058-1.137,4.537a11.5,11.5,0,0,1-.836,2.129,2.955,2.955,0,0,1-.658.833.953.953,0,0,1-.39.2.519.519,0,0,1-.18.007.655.655,0,0,1-.082-.021l-.04-.015a.06.06,0,0,1-.013-.013.667.667,0,0,1-.033-.064,1.194,1.194,0,0,1-.055-.126,2.444,2.444,0,0,1-.109-.419c-.064-.321-.107-.683-.15-1.05-.077-.739-.107-1.515-.135-2.3a38.585,38.585,0,0,0-.469-4.756,15.993,15.993,0,0,0-1.535-4.721q-.149-.283-.317-.559t-.361-.539a7.11,7.11,0,0,0-.853-.994,5.4,5.4,0,0,0-1.689-1.126.606.606,0,0,0-.78.315l-.035.077a.151.151,0,0,0,.05.184,6.791,6.791,0,0,1,2.271,3.4c.117.343.221.693.318,1.047s.174.717.255,1.081.152.732.217,1.1.138.743.2,1.119c.26,1.5.421,3.043.661,4.611.066.392.131.786.209,1.184s.175.8.283,1.2l.086.307c.033.1.069.205.106.309a4.529,4.529,0,0,0,.282.627,3.151,3.151,0,0,0,.46.638,1.866,1.866,0,0,0,.375.3,1.274,1.274,0,0,0,.524.181,1.235,1.235,0,0,0,.138.008l.111-.009a1.631,1.631,0,0,0,.216-.04,1.71,1.71,0,0,0,.393-.15,2.284,2.284,0,0,0,.584-.458,3.458,3.458,0,0,0,.407-.522c.121-.176.22-.36.321-.54a14.251,14.251,0,0,0,.962-2.224c.261-.756.456-1.527.649-2.3s.36-1.541.523-2.313c.317-1.5.6-3.011.894-4.513,0,.1.006.2.01.3.048.9.124,1.806.224,2.706s.256,1.795.448,2.683c.092.445.2.888.313,1.329s.236.883.378,1.32q.1.328.217.656c.077.218.163.433.25.649s.178.431.273.646.2.425.315.637a7.985,7.985,0,0,0,.779,1.245,3.412,3.412,0,0,0,1.316,1.033,1.769,1.769,0,0,0,.5.124,1.334,1.334,0,0,0,.557-.053,1.7,1.7,0,0,0,.739-.533,5.971,5.971,0,0,0,.774-1.215c.776-1.657,1.293-3.348,1.907-5.017.589-1.673,1.156-3.349,1.787-4.991A32.179,32.179,0,0,1-95.064-11.3c.216-.367.444-.723.687-1.058a6.66,6.66,0,0,1,.782-.917,3.524,3.524,0,0,1,.87-.634,1.7,1.7,0,0,1,.7-.182.15.15,0,0,0,.145-.151v-.27a1.063,1.063,0,0,0-1.551-.944c-.054.028-.1.053-.132.073Zm5.7,15.161a.38.38,0,0,0-.443.3l0,.01A4.551,4.551,0,0,1-89.524,2.39a5.251,5.251,0,0,1-1.021.83,3.578,3.578,0,0,1-1.194.481,2.281,2.281,0,0,1-.613.03,1.572,1.572,0,0,1-.29-.049,2.793,2.793,0,0,1-.292-.1,1.821,1.821,0,0,1-.849-.716,1.827,1.827,0,0,1-.21-.455,3.621,3.621,0,0,1-.129-.459c-.023-.13-.046-.259-.06-.39.1.012.2.024.3.033a5.069,5.069,0,0,0,1.569-.086,2.481,2.481,0,0,0,.808-.349,1.966,1.966,0,0,0,.638-.717,1.981,1.981,0,0,0,.172-.458,1.732,1.732,0,0,0,.039-.524,1.741,1.741,0,0,0-.405-.973,2.387,2.387,0,0,0-.758-.6,2.971,2.971,0,0,0-.871-.285,3.153,3.153,0,0,0-.933-.01,3.624,3.624,0,0,0-.939.246A3.106,3.106,0,0,0-96.037-.86,4.186,4.186,0,0,0-96.6.957a3.639,3.639,0,0,0,.381,1.856,3.491,3.491,0,0,0,.547.8,3.76,3.76,0,0,0,.751.613,3.983,3.983,0,0,0,1.721.549,4.022,4.022,0,0,0,.421.026c.141,0,.293,0,.434-.009a3.757,3.757,0,0,0,.82-.16,5.7,5.7,0,0,0,2.607-1.674,5.647,5.647,0,0,0,.867-1.271A5.8,5.8,0,0,0-87.56.226h0a.38.38,0,0,0-.3-.443ZM-94.2.537a2.47,2.47,0,0,1,.074-.462,2.436,2.436,0,0,1,.333-.9.829.829,0,0,1,.184-.181.91.91,0,0,1,.111-.073c.04-.017.08-.037.123-.052a.907.907,0,0,1,.261-.057,1.706,1.706,0,0,1,.275-.007,1.58,1.58,0,0,1,.99.385.722.722,0,0,1,.213.388.755.755,0,0,1,0,.23A1.2,1.2,0,0,1-91.7.055a1.243,1.243,0,0,1-.837.679,3.727,3.727,0,0,1-1.305.119c-.123-.009-.248-.021-.373-.036A2.464,2.464,0,0,1-94.2.537Zm32.577,4.475A6.225,6.225,0,0,0-63.5,3.2c-.152-.1-.307-.187-.464-.274q-.029-.272-.054-.547c-.081-.787-.117-1.589-.171-2.395-.029-.48-.052-.963-.073-1.447a4.665,4.665,0,0,0,.79-.22c.048-.017.125-.051.218-.095a.911.911,0,0,0,.3-1.42l-.122-.141a.152.152,0,0,0-.225-.006,2.941,2.941,0,0,1-1.01.73c-.029-.765-.056-1.534-.094-2.307-.039-.827-.082-1.658-.146-2.5s-.157-1.684-.3-2.545a12.7,12.7,0,0,0-.288-1.307,7.783,7.783,0,0,0-.5-1.359,4.33,4.33,0,0,0-.432-.709,2.212,2.212,0,0,0-.742-.627,2.481,2.481,0,0,0-1.027-.268,2.4,2.4,0,0,0-.512.029,2.006,2.006,0,0,0-.5.156,2.27,2.27,0,0,0-.731.555,3.522,3.522,0,0,0-.437.632,9.311,9.311,0,0,0-.555,1.237A20.854,20.854,0,0,0-71.341-9.2c-.1.4-.2.807-.295,1.211l-.282,1.207c-.187.8-.351,1.609-.549,2.4l-.083.336a16.838,16.838,0,0,0-1.815-.507,6.1,6.1,0,0,0-2.746-.017,4.313,4.313,0,0,0-.7.245,4.011,4.011,0,0,0-.663.364c-.106.07-.207.144-.306.222a3.229,3.229,0,0,0-.295.26,4.052,4.052,0,0,0-.5.6,5.038,5.038,0,0,0-.853,2.848,5.4,5.4,0,0,0,.2,1.48,4.765,4.765,0,0,0,.272.716,4.222,4.222,0,0,0,.409.671A3.817,3.817,0,0,0-79,3.424a3.573,3.573,0,0,0,.686.45,3.449,3.449,0,0,0,1.551.354,4.3,4.3,0,0,0,.744-.071c.06-.01.119-.024.177-.038l.089-.021.1-.026a2.313,2.313,0,0,0,.387-.148,3.127,3.127,0,0,0,1.1-.985A10.135,10.135,0,0,0-72.968.622a31.8,31.8,0,0,0,1.037-3.4c.682.2,1.368.415,2.068.6.4.112.806.21,1.212.312.2.05.409.1.614.142s.41.1.619.139.448.086.676.121c.01.533.023,1.067.045,1.6q.03.91.126,1.829c-.426-.1-.856-.17-1.287-.226a.457.457,0,0,0-.514.408l-.014.144a.151.151,0,0,0,.134.165,13.337,13.337,0,0,1,1.778.313c.054.392.123.784.2,1.18.092.429.2.86.328,1.3a5.065,5.065,0,0,0,1.616,2.42,3.733,3.733,0,0,0,.68.449,2.717,2.717,0,0,0,.774.26,1.762,1.762,0,0,0,.87-.045,1.3,1.3,0,0,0,.733-.562A1.689,1.689,0,0,0-61.025,7a2.572,2.572,0,0,0-.054-.731,3.8,3.8,0,0,0-.539-1.255ZM-73.819.3A9.066,9.066,0,0,1-74.3,1.38a4.356,4.356,0,0,1-.642.929,1.875,1.875,0,0,1-.782.531,1.094,1.094,0,0,1-.189.036l-.046,0-.062,0c-.042,0-.085,0-.126,0a1.924,1.924,0,0,1-.476-.058,1.631,1.631,0,0,1-.746-.413,2.52,2.52,0,0,1-.488-.682,4.59,4.59,0,0,1-.487-1.8,5.084,5.084,0,0,1,.035-.977,3.467,3.467,0,0,1,.267-.907,2.333,2.333,0,0,1,.533-.743,2.4,2.4,0,0,1,.813-.513,4.612,4.612,0,0,1,2.14-.159,12.458,12.458,0,0,1,1.753.353A31.051,31.051,0,0,1-73.819.3Zm6.533-2.614c-.2-.031-.393-.069-.589-.11s-.388-.1-.582-.157c-.388-.111-.768-.253-1.151-.39-.687-.255-1.379-.517-2.081-.771l.1-.427c.389-1.6.757-3.2,1.206-4.76a20.074,20.074,0,0,1,.787-2.259,6.729,6.729,0,0,1,.517-1A1.441,1.441,0,0,1-68.4-12.8a.625.625,0,0,1,.358-.012.532.532,0,0,1,.278.225c.067.1.129.217.2.341a2.622,2.622,0,0,1,.2.427,8.832,8.832,0,0,1,.424,2.189c.071.78.092,1.581.118,2.385q.015.6.018,1.214l.017,1.221.021,2.464c0,.032,0,.064,0,.1-.177-.015-.354-.036-.531-.064Zm5.4,9.219a.623.623,0,0,1-.187.319.232.232,0,0,1-.207.041.865.865,0,0,1-.271-.1,1.13,1.13,0,0,1-.3-.219,1.6,1.6,0,0,1-.24-.32,4.275,4.275,0,0,1-.354-.894c-.089-.336-.18-.689-.252-1.056-.059-.27-.106-.548-.148-.829a4.768,4.768,0,0,1,1.618,1.545,2.614,2.614,0,0,1,.372,1.022,1.267,1.267,0,0,1-.03.488Zm8.365-7.178a.379.379,0,0,0-.436.293q-.04.181-.085.359c-.058.236-.117.472-.189.7a5.99,5.99,0,0,1-.248.673,3.762,3.762,0,0,1-.329.618,2.351,2.351,0,0,1-.439.5,2.041,2.041,0,0,1-.253.184,1.6,1.6,0,0,1-.27.123c-.33.131-.864.087-.848-.042a1.285,1.285,0,0,1-.176-.4,3.575,3.575,0,0,1-.111-.612A9.1,9.1,0,0,1-56.919.737c.026-.475.075-.955.139-1.435l.006-.041a1.365,1.365,0,0,0-1.189-1.547l-.549-.066a.3.3,0,0,0-.337.255c-.005.034-.01.067-.015.1a3.547,3.547,0,0,1-.438.171,3.6,3.6,0,0,1-.793.158h0c.065-.45.114-.906.135-1.376a4.889,4.889,0,0,0-.034-.895,2.008,2.008,0,0,0-.382-.987,1.252,1.252,0,0,0-.55-.395,1.423,1.423,0,0,0-.667-.07,1.376,1.376,0,0,0-.638.269,1.769,1.769,0,0,0-.418.456,2.59,2.59,0,0,0-.371.993,3.278,3.278,0,0,0-.011,1,2.79,2.79,0,0,0,.33.985,2.018,2.018,0,0,0,.346.456,1.7,1.7,0,0,0,.508.352A2.177,2.177,0,0,0-61-.716c-.053.273-.113.548-.179.829l0,.016a.381.381,0,0,0,.439.445.375.375,0,0,0,.308-.307l0-.009c.064-.344.133-.7.2-1.058.115-.024.229-.05.34-.079.286-.076.558-.174.828-.27l.124-.046c-.012.133-.021.266-.027.4a15.014,15.014,0,0,0,.007,1.61,9.471,9.471,0,0,0,.251,1.68,5.219,5.219,0,0,0,.316.91,2.433,2.433,0,0,0,.786.97,1.706,1.706,0,0,0,.748.291,1.435,1.435,0,0,0,.2.013h.1l.068-.008a2.525,2.525,0,0,0,.264-.045,2.8,2.8,0,0,0,.968-.412,2.769,2.769,0,0,0,.689-.673,6.448,6.448,0,0,0,.436-.751l.179-.369c.058-.122.108-.247.16-.37.105-.245.2-.493.282-.741A10.746,10.746,0,0,0-53.213.182a.381.381,0,0,0-.3-.457Zm-7.326-1.441a1.2,1.2,0,0,1-.453-.2.956.956,0,0,1-.242-.367,2.345,2.345,0,0,1-.137-.571,2.549,2.549,0,0,1,.117-1.182.847.847,0,0,1,.094-.174.274.274,0,0,1,.087-.086.264.264,0,0,1,.14-.026.209.209,0,0,1,.123.05,1.02,1.02,0,0,1,.244.5,3.949,3.949,0,0,1,.1.73,7.9,7.9,0,0,1-.07,1.328Zm15.65,1.5a.38.38,0,0,0-.443.3l0,.01A4.551,4.551,0,0,1-46.854,2.39a5.25,5.25,0,0,1-1.021.83,3.578,3.578,0,0,1-1.194.481,2.281,2.281,0,0,1-.613.03,1.572,1.572,0,0,1-.29-.049,2.793,2.793,0,0,1-.292-.1,1.821,1.821,0,0,1-.849-.716,1.828,1.828,0,0,1-.21-.455,3.62,3.62,0,0,1-.129-.459c-.023-.13-.046-.259-.06-.39.1.012.2.024.3.033a5.069,5.069,0,0,0,1.569-.086,2.481,2.481,0,0,0,.808-.349,1.967,1.967,0,0,0,.638-.717,1.981,1.981,0,0,0,.172-.458,1.732,1.732,0,0,0,.039-.524,1.741,1.741,0,0,0-.405-.973,2.387,2.387,0,0,0-.758-.6,2.971,2.971,0,0,0-.871-.285,3.153,3.153,0,0,0-.933-.01,3.625,3.625,0,0,0-.939.246A3.106,3.106,0,0,0-53.367-.86,4.186,4.186,0,0,0-53.926.957a3.639,3.639,0,0,0,.381,1.856,3.491,3.491,0,0,0,.547.8,3.76,3.76,0,0,0,.751.613,3.983,3.983,0,0,0,1.721.549A4.022,4.022,0,0,0-50.1,4.8c.141,0,.293,0,.434-.009a3.757,3.757,0,0,0,.82-.16,5.7,5.7,0,0,0,2.607-1.674,5.647,5.647,0,0,0,.867-1.271A5.8,5.8,0,0,0-44.89.226h0a.38.38,0,0,0-.3-.443Zm-6.333.754a2.47,2.47,0,0,1,.074-.462,2.436,2.436,0,0,1,.333-.9.829.829,0,0,1,.184-.181.91.91,0,0,1,.111-.073c.04-.017.08-.037.123-.052a.907.907,0,0,1,.261-.057,1.706,1.706,0,0,1,.275-.007,1.58,1.58,0,0,1,.99.385.722.722,0,0,1,.213.388.755.755,0,0,1,0,.23,1.2,1.2,0,0,1-.067.249,1.243,1.243,0,0,1-.837.679,3.727,3.727,0,0,1-1.305.119c-.123-.009-.248-.021-.373-.036a2.464,2.464,0,0,1,.014-.279Zm32.647,7.289a4.111,4.111,0,0,1-1.107.04,3.8,3.8,0,0,1-1.065-.29,4.5,4.5,0,0,1-.965-.582,5.5,5.5,0,0,1-.5-.454l0,0a6.158,6.158,0,0,0,.86-1.374A9.582,9.582,0,0,0-20.913,2.4a20.718,20.718,0,0,0,.149-2.623c0-.856-.032-1.7-.082-2.528s-.116-1.652-.184-2.463-.156-1.612-.2-2.4c-.017-.391-.05-.779-.052-1.152,0-.01,0-.021,0-.032a1.37,1.37,0,0,0-1-1.311l-.241-.068a.455.455,0,0,0-.572.361c-.082.487-.139,1.044-.142,1.095A26.875,26.875,0,0,1-25.67-3.481a6.322,6.322,0,0,1-2.053,1.835,3.976,3.976,0,0,1-1.239.415c-.107.015-.214.028-.322.034a1.02,1.02,0,0,1-.149,0,1.3,1.3,0,0,1-.143-.01,2.012,2.012,0,0,1-.572-.146,3.1,3.1,0,0,1-.541-.286,3.832,3.832,0,0,1-.476-.4,4.125,4.125,0,0,1-.724-1.024,6.8,6.8,0,0,1-.642-2.413c0-.106-.017-.21-.024-.316s-.016-.211-.016-.318c-.008-.213,0-.426,0-.644a10.986,10.986,0,0,1,.109-1.3,9.329,9.329,0,0,1,.71-2.5,7.04,7.04,0,0,1,.892-1.467l.183.053c.233.063.46.147.688.225l.172.059.181.065.366.124a8.2,8.2,0,0,0,1.522.353A4.414,4.414,0,0,0-26.11-11.2a2.281,2.281,0,0,0,1.455-1.082,1.686,1.686,0,0,0,.2-1.015,2.061,2.061,0,0,0-.381-.953,2.9,2.9,0,0,0-.7-.688,3.5,3.5,0,0,0-.846-.455,4.221,4.221,0,0,0-.929-.229c-.079-.008-.158-.019-.238-.024l-.238-.009c-.151.006-.306.008-.455.025a6.511,6.511,0,0,0-3.226,1.349,7.69,7.69,0,0,0-1.068.948,11.483,11.483,0,0,0-2.5-.1,8.556,8.556,0,0,0-1.586.271q-.268.068-.533.157a.907.907,0,0,0-.477,1.325l.071.12a.3.3,0,0,0,.427.1,5.831,5.831,0,0,1,2.229-.857A7.42,7.42,0,0,1-33.5-12.43c.073,0,.147,0,.22,0-.167.233-.323.473-.468.718a9.041,9.041,0,0,0-.709,1.563c-.049.134-.092.27-.132.407s-.082.273-.115.411-.067.276-.092.415-.056.277-.074.417A10.678,10.678,0,0,0-35-6.824a8.651,8.651,0,0,0,.168,1.69c.03.14.065.279.1.418s.077.277.121.413a7.581,7.581,0,0,0,.324.8,6.785,6.785,0,0,0,.918,1.463A6.143,6.143,0,0,0-32.1-.873a4.968,4.968,0,0,0,1.581.728,3.917,3.917,0,0,0,.891.115,3.3,3.3,0,0,0,.452-.03c.14-.016.278-.041.416-.068a5.052,5.052,0,0,0,1.544-.614A7.708,7.708,0,0,0-24.95-2.957a14.342,14.342,0,0,0,1.456-2.7c.086-.2.166-.4.244-.6.013.376.028.751.044,1.123.077,1.639.147,3.255.163,4.851a21.019,21.019,0,0,1-.116,2.363,8.878,8.878,0,0,1-.5,2.21,4.506,4.506,0,0,1-.2.445q-.156-.261-.3-.528c-.391-.709-.73-1.443-1.182-2.18a4.42,4.42,0,0,0-.4-.551,2.121,2.121,0,0,0-.277-.269,1.309,1.309,0,0,0-.4-.225,1.044,1.044,0,0,0-.54-.032,1.254,1.254,0,0,0-.447.194,2.2,2.2,0,0,0-.554.556,3.179,3.179,0,0,0-.507,1.344,5.359,5.359,0,0,0-.02,1.37,5.1,5.1,0,0,0,.113.678,4.612,4.612,0,0,0,.2.675,4.12,4.12,0,0,0,.318.669,4.106,4.106,0,0,0,.5.645,3.042,3.042,0,0,0,.753.6,2.552,2.552,0,0,0,1.043.3,3.208,3.208,0,0,0,.852-.036,2.963,2.963,0,0,0,.84-.294,4.76,4.76,0,0,0,.838-.576,7.285,7.285,0,0,0,.548.513,5.289,5.289,0,0,0,1.106.729,5.036,5.036,0,0,0,2.627.46,7.8,7.8,0,0,0,1.719-.368A.76.76,0,0,0-16.6,7.348l-.024-.048a.3.3,0,0,0-.416-.133,5.859,5.859,0,0,1-1.842.659Zm-9.037-21.807c.105-.029.211-.044.317-.065s.205-.029.308-.037a2.146,2.146,0,0,1,.606.036,1.767,1.767,0,0,1,.98.513.849.849,0,0,1,.212.4.663.663,0,0,1-.053.415.941.941,0,0,1-.131.21.966.966,0,0,1-.181.182,1.449,1.449,0,0,1-.5.246,3.294,3.294,0,0,1-1.289.071A7.34,7.34,0,0,1-29-12.319c-.113-.036-.224-.077-.335-.119l-.167-.065-.18-.067c-.167-.061-.333-.122-.5-.18a5.776,5.776,0,0,1,1.046-.754A5.032,5.032,0,0,1-27.916-13.981ZM-24.89,5.9a2.483,2.483,0,0,1-.953.32A.919.919,0,0,1-26.528,6a2.109,2.109,0,0,1-.309-.32,2.564,2.564,0,0,1-.262-.422,3.76,3.76,0,0,1-.325-1.009,3.884,3.884,0,0,1-.042-1.068,2.258,2.258,0,0,1,.3-.944,1.244,1.244,0,0,1,.286-.325.37.37,0,0,1,.106-.059.106.106,0,0,1,.065,0,.76.76,0,0,1,.3.22,3.566,3.566,0,0,1,.335.428c.431.641.813,1.378,1.239,2.086.163.279.335.555.514.829a2.565,2.565,0,0,1-.563.485ZM-9.459-.218a.38.38,0,0,0-.443.3l0,.01A4.551,4.551,0,0,1-11.12,2.39a5.25,5.25,0,0,1-1.021.83,3.578,3.578,0,0,1-1.194.481,2.281,2.281,0,0,1-.613.03,1.571,1.571,0,0,1-.29-.049,2.793,2.793,0,0,1-.292-.1,1.821,1.821,0,0,1-.849-.716,1.827,1.827,0,0,1-.21-.455,3.621,3.621,0,0,1-.129-.459c-.023-.13-.046-.259-.06-.39.1.012.2.024.3.033a5.069,5.069,0,0,0,1.569-.086,2.481,2.481,0,0,0,.808-.349A1.966,1.966,0,0,0-12.46.446a1.981,1.981,0,0,0,.172-.458,1.732,1.732,0,0,0,.039-.524,1.742,1.742,0,0,0-.405-.973,2.387,2.387,0,0,0-.758-.6,2.971,2.971,0,0,0-.871-.285,3.153,3.153,0,0,0-.933-.01,3.624,3.624,0,0,0-.939.246A3.106,3.106,0,0,0-17.633-.86,4.186,4.186,0,0,0-18.192.957a3.639,3.639,0,0,0,.381,1.856,3.491,3.491,0,0,0,.547.8,3.76,3.76,0,0,0,.751.613,3.983,3.983,0,0,0,1.721.549,4.022,4.022,0,0,0,.421.026c.141,0,.293,0,.434-.009a3.757,3.757,0,0,0,.82-.16,5.7,5.7,0,0,0,2.607-1.674,5.647,5.647,0,0,0,.867-1.271A5.8,5.8,0,0,0-9.156.226h0a.38.38,0,0,0-.3-.443Zm-6.333.754a2.47,2.47,0,0,1,.074-.462,2.436,2.436,0,0,1,.333-.9.829.829,0,0,1,.184-.181.91.91,0,0,1,.111-.073c.04-.017.08-.037.123-.052a.907.907,0,0,1,.261-.057,1.706,1.706,0,0,1,.275-.007,1.58,1.58,0,0,1,.99.385.722.722,0,0,1,.212.388.755.755,0,0,1,0,.23,1.2,1.2,0,0,1-.067.249,1.243,1.243,0,0,1-.837.679,3.727,3.727,0,0,1-1.305.119c-.123-.009-.248-.021-.373-.036a2.463,2.463,0,0,1,.014-.279Zm14.127-8.08a2.512,2.512,0,0,0-.9-.6,4.778,4.778,0,0,0-1-.295,11.08,11.08,0,0,0-2-.168c-.515,0-1.027.021-1.536.054q.02-.212.04-.424a1.365,1.365,0,0,0-1.2-1.487l-.481-.057a.608.608,0,0,0-.676.534c-.066.562-.119,1.118-.169,1.677l-1.8.223c-.632.082-1.266.152-1.873.2-.151.008-.3.016-.448.011s-.3.007-.448-.006A4.578,4.578,0,0,1-15-8a1.639,1.639,0,0,1-.661-.291.783.783,0,0,1-.186-.222c-.009-.022-.018-.043-.029-.065l-.022-.068c0-.022-.011-.047-.013-.069s0-.056-.009-.044a.38.38,0,0,0-.315-.466.4.4,0,0,0-.429.311,1.2,1.2,0,0,0-.029.171c-.007.058-.006.114-.007.172s.008.114.015.171.024.112.038.167a1.548,1.548,0,0,0,.33.585,2.342,2.342,0,0,0,1.014.63,4.674,4.674,0,0,0,1.054.228,7.843,7.843,0,0,0,1.035.045,32.124,32.124,0,0,0,3.536-.4c-.045.636-.079,1.274-.109,1.913q-.03.672-.047,1.348c-.009.45-.009.9,0,1.354.01.905.043,1.815.124,2.738.042.461.094.926.172,1.4a7.379,7.379,0,0,0,.373,1.432,4.662,4.662,0,0,0,.35.731,2.613,2.613,0,0,0,.58.724,2.094,2.094,0,0,0,1.035.424,1.633,1.633,0,0,0,.281.018,1.852,1.852,0,0,0,.246-.019,1.823,1.823,0,0,0,.46-.13,2.361,2.361,0,0,0,.708-.472,3.978,3.978,0,0,0,.492-.572c.141-.2.267-.4.384-.6s.232-.4.338-.608A8.549,8.549,0,0,0-3.78,1.259c.1-.31.188-.623.259-.943a.381.381,0,0,0-.305-.458.378.378,0,0,0-.435.289,10.618,10.618,0,0,1-.7,2.063,4.273,4.273,0,0,1-.653,1.046,1.587,1.587,0,0,1-.874.572.76.76,0,0,1-.208,0A.786.786,0,0,1-6.8,3.8a.291.291,0,0,1-.065-.036.677.677,0,0,1-.163-.3,3.666,3.666,0,0,1-.24-1l-.123-1.192c-.045-.407-.079-.824-.1-1.246a50.612,50.612,0,0,1,.11-5.155c.047-.788.114-1.577.181-2.365.554-.066,1.106-.126,1.656-.155a11.647,11.647,0,0,1,1.854.009,4.625,4.625,0,0,1,.871.164,1.992,1.992,0,0,1,.731.369l.006.005a.305.305,0,0,0,.444-.047.317.317,0,0,0-.032-.4ZM4-7.543a2.512,2.512,0,0,0-.9-.6,4.778,4.778,0,0,0-1-.295,11.08,11.08,0,0,0-2-.168c-.515,0-1.027.021-1.536.054q.02-.212.04-.424a1.365,1.365,0,0,0-1.2-1.487l-.481-.057a.608.608,0,0,0-.676.534c-.066.562-.119,1.118-.169,1.677l-1.8.223c-.632.082-1.266.152-1.873.2-.151.008-.3.016-.448.011s-.3.007-.448-.006A4.578,4.578,0,0,1-9.342-8,1.639,1.639,0,0,1-10-8.292a.783.783,0,0,1-.186-.222c-.009-.022-.018-.043-.029-.065l-.022-.068c0-.022-.011-.047-.013-.069s0-.056-.009-.044a.38.38,0,0,0-.315-.466.4.4,0,0,0-.429.311,1.2,1.2,0,0,0-.029.171c-.007.058-.006.114-.007.172s.008.114.015.171.024.112.038.167a1.548,1.548,0,0,0,.33.585,2.342,2.342,0,0,0,1.014.63A4.674,4.674,0,0,0-8.59-6.79a7.843,7.843,0,0,0,1.035.045,32.124,32.124,0,0,0,3.536-.4c-.045.636-.079,1.274-.109,1.913q-.03.672-.047,1.348c-.009.45-.009.9,0,1.354.01.905.043,1.815.124,2.738.042.461.094.926.172,1.4A7.379,7.379,0,0,0-3.51,3.037a4.662,4.662,0,0,0,.35.731,2.613,2.613,0,0,0,.58.724,2.094,2.094,0,0,0,1.035.424,1.633,1.633,0,0,0,.281.018,1.852,1.852,0,0,0,.246-.019,1.823,1.823,0,0,0,.46-.13A2.361,2.361,0,0,0,.15,4.313a3.978,3.978,0,0,0,.492-.572c.141-.2.267-.4.384-.6s.232-.4.338-.608a8.549,8.549,0,0,0,.515-1.273c.1-.31.188-.623.259-.943a.381.381,0,0,0-.305-.458A.378.378,0,0,0,1.4.147,10.618,10.618,0,0,1,.7,2.211,4.273,4.273,0,0,1,.043,3.257a1.587,1.587,0,0,1-.874.572.76.76,0,0,1-.208,0,.786.786,0,0,1-.1-.023A.291.291,0,0,1-1.2,3.765a.677.677,0,0,1-.163-.3,3.666,3.666,0,0,1-.24-1l-.123-1.192c-.045-.407-.079-.824-.1-1.246a50.612,50.612,0,0,1,.111-5.155c.047-.788.114-1.577.181-2.365C-.98-7.55-.428-7.61.122-7.639a11.647,11.647,0,0,1,1.854.009,4.625,4.625,0,0,1,.871.164,1.992,1.992,0,0,1,.731.369l.006.005a.305.305,0,0,0,.444-.047A.317.317,0,0,0,4-7.543ZM7.056-.224a.371.371,0,0,0-.432.28,7.7,7.7,0,0,1-.977,2.424,2.818,2.818,0,0,1-.213.289,1.888,1.888,0,0,1-.243.253,1.716,1.716,0,0,1-.559.338,1.122,1.122,0,0,1-.571.051L3.993,3.4a.334.334,0,0,1-.034-.015.2.2,0,0,1-.042-.039.952.952,0,0,1-.078-.121,1.93,1.93,0,0,1-.167-.505,4.641,4.641,0,0,1-.09-.667A10.957,10.957,0,0,1,3.593.594C3.625.1,3.68-.4,3.749-.9c0-.025.008-.057.014-.1A1.366,1.366,0,0,0,2.575-2.548L2.32-2.578a.607.607,0,0,0-.676.529c-.049.4-.1.879-.112,1.037A16.005,16.005,0,0,0,1.52.642c.013.279.04.561.072.846a7.738,7.738,0,0,0,.143.869,6.331,6.331,0,0,0,.27.916,3.1,3.1,0,0,0,.237.489,2.3,2.3,0,0,0,.4.506,1.812,1.812,0,0,0,.676.416,1.578,1.578,0,0,0,.417.079,1.935,1.935,0,0,0,.2,0l.145-.023A2.57,2.57,0,0,0,5.092,4.3a4.531,4.531,0,0,0,1.2-1.383A9.842,9.842,0,0,0,7.347.236a.374.374,0,0,0-.291-.461ZM2.935-3.146c.647.022,2.075-1.546,1.252-2.282-.485-.433-1.15.2-1.15.2a.7.7,0,0,0-1.062-.264C.906-4.747,2.113-3.174,2.935-3.146ZM17.223-.2a.366.366,0,0,0-.257.3v0a8.885,8.885,0,0,1-.306,1.208,8.884,8.884,0,0,1-.449,1.159A5.055,5.055,0,0,1,15.59,3.5a1.872,1.872,0,0,1-.809.645.662.662,0,0,1-.4,0,.227.227,0,0,1-.161-.189A4.7,4.7,0,0,1,14.1,3.1c-.009-.185-.009-.382-.009-.585s-.005-.412-.021-.625a8.479,8.479,0,0,0-.19-1.337,4.819,4.819,0,0,0-.221-.709,4.456,4.456,0,0,0-.355-.732,3.071,3.071,0,0,0-.575-.715,2.233,2.233,0,0,0-.873-.487,2.275,2.275,0,0,0-.921-.073c-.071.007-.14.02-.207.032s-.138.025-.209.042a2.706,2.706,0,0,0-.416.142,2.1,2.1,0,0,0-.69.485,2.87,2.87,0,0,0-.387.507A1.307,1.307,0,0,0,7.721-2.274H7.334a.608.608,0,0,0-.608.6c0,.394,0,.788,0,1.182,0,.595.018,1.189.034,1.784s.041,1.189.075,1.784c0,0,.015.221.035.511A1.367,1.367,0,0,0,8.234,4.86h.137a.456.456,0,0,0,.454-.419c.013-.157.024-.315.037-.472l.055-.892c.028-.488.048-.976.064-1.465A8.974,8.974,0,0,1,9.189.659,4.02,4.02,0,0,1,9.657-.414a1.558,1.558,0,0,1,.359-.373.935.935,0,0,1,.41-.168.873.873,0,0,1,.213,0,1.431,1.431,0,0,1,.232.044.827.827,0,0,1,.356.189.7.7,0,0,1,.11.131,1.048,1.048,0,0,1,.088.15,2.009,2.009,0,0,1,.137.391A7.017,7.017,0,0,1,11.7,1c.029.387.082.794.138,1.223a6.331,6.331,0,0,0,.313,1.359,4.577,4.577,0,0,0,.344.75,1.732,1.732,0,0,0,.138.191,1.721,1.721,0,0,0,.168.186,2.09,2.09,0,0,0,.444.328,1.853,1.853,0,0,0,.544.2,1.926,1.926,0,0,0,.523.025,2.55,2.55,0,0,0,.849-.233A2.87,2.87,0,0,0,16.277,4a7.516,7.516,0,0,0,.645-1.212c.173-.414.325-.831.455-1.254s.238-.849.335-1.289l0-.018A.384.384,0,0,0,17.223-.2Zm10.8.074a.379.379,0,0,0-.424.3,4.777,4.777,0,0,1-.606,1.505,5.927,5.927,0,0,1-1.349,1.489c-.243.2-.5.381-.763.556,0-.054,0-.108,0-.161.009-.736-.025-1.469-.058-2.2S24.719-.1,24.649-.82c-.018-.154-.064-.5-.117-.88a1.367,1.367,0,0,0-1.486-1.172l-.346.034a.608.608,0,0,0-.543.68c.014.118.029.237.042.356a3.086,3.086,0,0,0-1.914-.672,2.778,2.778,0,0,0-1.53.452,2.451,2.451,0,0,0-.335.263c-.105.1-.211.179-.3.28a4.14,4.14,0,0,0-.489.617,4.041,4.041,0,0,0-.616,2.9,3.325,3.325,0,0,0,.635,1.5,2.87,2.87,0,0,0,1.475,1.005,2.768,2.768,0,0,0,.844.1,2.317,2.317,0,0,0,.761-.157A2.557,2.557,0,0,0,21.4,4.1a2.964,2.964,0,0,0,.516-.5,3.626,3.626,0,0,0,.564-1.152c.016-.05.028-.1.042-.15.034.9.042,1.806.019,2.7l-.522.25c-.644.31-1.3.617-1.938,1a5.988,5.988,0,0,0-.934.68,3.394,3.394,0,0,0-.417.452,4.713,4.713,0,0,0-.334.492A4.176,4.176,0,0,0,17.934,9a3.967,3.967,0,0,0-.1,1.239,3.176,3.176,0,0,0,.109.633,2.9,2.9,0,0,0,.233.622,2.834,2.834,0,0,0,.379.582,3.752,3.752,0,0,0,.541.5,4.344,4.344,0,0,0,.691.438,2.8,2.8,0,0,0,.852.266,2.174,2.174,0,0,0,.937-.084,2.454,2.454,0,0,0,.8-.44,4.575,4.575,0,0,0,.991-1.2,7.537,7.537,0,0,0,.561-1.2,12.475,12.475,0,0,0,.6-2.318c.128-.76.211-1.51.271-2.255q.036-.557.053-1.11a11.664,11.664,0,0,0,1.272-.911,7.163,7.163,0,0,0,1.5-1.686,5.612,5.612,0,0,0,.5-1.032,5.724,5.724,0,0,0,.206-.716.378.378,0,0,0-.317-.452ZM22.113,1.2a5.027,5.027,0,0,1-.275,1.02,2.165,2.165,0,0,1-.528.8,1.012,1.012,0,0,1-.76.264,1.718,1.718,0,0,1-.409-.069,1.04,1.04,0,0,1-.326-.165,2,2,0,0,1-.545-1.329,4.033,4.033,0,0,1-.006-.868c.013-.147.031-.293.052-.439a4.31,4.31,0,0,1,.1-.424,2.254,2.254,0,0,1,.15-.392c.014-.032.032-.059.046-.091l.023-.046c.009-.013.019-.024.028-.036.036-.049.077-.095.118-.144a1.74,1.74,0,0,1,.684-.444,1.612,1.612,0,0,1,.907-.048,1.528,1.528,0,0,1,.438.185,1.447,1.447,0,0,1,.356.325c.022.03.04.063.059.094A9.343,9.343,0,0,1,22.113,1.2Zm.238,6.465a11.994,11.994,0,0,1-.411,1.978,3.759,3.759,0,0,1-.86,1.589,1.079,1.079,0,0,1-.659.3,1.218,1.218,0,0,1-.673-.148,1.567,1.567,0,0,1-.543-.508,1.981,1.981,0,0,1-.294-.774,2.525,2.525,0,0,1,.014-.878,3.15,3.15,0,0,1,.309-.863,3.72,3.72,0,0,1,.247-.4,2.37,2.37,0,0,1,.294-.344,4.87,4.87,0,0,1,.78-.594c.573-.364,1.205-.681,1.839-1l.111-.056c-.032.575-.08,1.146-.154,1.709Zm47.14-2.017c-.021-.074-.045-.147-.068-.218l-.061-.213c-.041-.14-.092-.275-.131-.412-.082-.273-.171-.539-.262-.8s-.167-.53-.251-.794a17.241,17.241,0,0,1-.652-3.2,5.625,5.625,0,0,1,.361-2.826.153.153,0,0,0-.085-.209l-.181-.065a.756.756,0,0,0-1,.593,7.793,7.793,0,0,0-.073.9A9.383,9.383,0,0,0,67.223.136c.047.282.1.562.167.838l.2.823c.137.546.291,1.084.45,1.616s.325,1.058.46,1.579c.07.26.15.513.23.761a1.369,1.369,0,0,1,.074.716.334.334,0,0,1-.441.237c-.107-.031-.221-.052-.322-.088a1.014,1.014,0,0,1-.28-.149,1.679,1.679,0,0,1-.419-.477,4.746,4.746,0,0,1-.3-.622A10.168,10.168,0,0,1,66.6,3.947c-.117-.5-.195-1.021-.27-1.545S66.2,1.344,66.156.809s-.1-1.073-.132-1.614c-.177-2.162-.247-4.356-.406-6.566l-.15-1.663c-.068-.555-.139-1.112-.219-1.673-.041-.28-.078-.562-.142-.844-.029-.141-.073-.281-.113-.421s-.09-.28-.143-.42c-.1-.28-.231-.557-.368-.837-.07-.139-.138-.281-.218-.422a3.706,3.706,0,0,0-.271-.438,1.9,1.9,0,0,0-.2-.232.874.874,0,0,0-.351-.2.76.76,0,0,0-.424.015,1.057,1.057,0,0,0-.283.14,1.826,1.826,0,0,0-.368.357,3.518,3.518,0,0,0-.26.377,10.939,10.939,0,0,0-.743,1.547c-.417,1.045-.777,2.1-1.1,3.165-.64,2.134-1.142,4.3-1.577,6.48q-.214,1.085-.4,2.178c-.024-.84-.036-1.689-.055-2.544-.017-.733-.033-1.472-.068-2.214s-.078-1.492-.172-2.244a16.627,16.627,0,0,0-1.179-4.5,9.975,9.975,0,0,0-.542-1.093A7.3,7.3,0,0,0,55.56-13.9,5.023,5.023,0,0,0,53.5-15.433a7.468,7.468,0,0,0-2.364-.525,7.319,7.319,0,0,0-2.381.269,7.413,7.413,0,0,0-3.872,2.606,5.334,5.334,0,0,0-1,2.163,4.329,4.329,0,0,0-.065,1.214,4.029,4.029,0,0,0,.131.7.457.457,0,0,0,.612.3l.123-.05a.153.153,0,0,0,.085-.192,3.234,3.234,0,0,1-.078-1.8,4.417,4.417,0,0,1,.911-1.77,6.217,6.217,0,0,1,3.434-2.052,5.975,5.975,0,0,1,3.344.224,3.69,3.69,0,0,0-.6.8,9.057,9.057,0,0,0-.83,2.192c-.195.74-.337,1.482-.463,2.224s-.23,1.483-.333,2.221c-.2,1.478-.413,2.948-.708,4.4A17.44,17.44,0,0,1,48.12,1.665a8.834,8.834,0,0,1-1.164,1.816,6.039,6.039,0,0,1-1.627,1.361,5.485,5.485,0,0,1-1.993.661,6.625,6.625,0,0,1-2.113-.022,4.644,4.644,0,0,1-3.312-2.156,4.478,4.478,0,0,1-.419-.905,5.67,5.67,0,0,1-.242-.978A7.5,7.5,0,0,1,37.2-.435.151.151,0,0,0,37.049-.6l-.37.008A1.212,1.212,0,0,0,35.522.9c.075.31.163.618.268.923a8.636,8.636,0,0,0,.481,1.137A7.244,7.244,0,0,0,36.939,4a5.735,5.735,0,0,0,.862.891,5.6,5.6,0,0,0,1.017.687,6.691,6.691,0,0,0,2.288.7,8.155,8.155,0,0,0,2.345-.071,7.292,7.292,0,0,0,1.136-.3,5.89,5.89,0,0,0,1.07-.507,7.137,7.137,0,0,0,1.766-1.525,9.429,9.429,0,0,0,1.248-1.941A19.736,19.736,0,0,0,50.1-2.375c.331-1.471.554-2.956.781-4.43s.433-2.948.8-4.357a9.5,9.5,0,0,1,.334-1.026,5.016,5.016,0,0,1,.463-.931,2.65,2.65,0,0,1,.643-.707c.043-.031.088-.057.133-.084a4.722,4.722,0,0,1,1.729,2.788A27.3,27.3,0,0,1,55.56-7l.434,4.333a37.546,37.546,0,0,0,.681,4.447A12.474,12.474,0,0,0,57.386,4a6.33,6.33,0,0,0,.576,1.061,4.206,4.206,0,0,0,.495.609.456.456,0,0,0,.646,0l.145-.145a.152.152,0,0,0,.019-.191A5.249,5.249,0,0,1,58.62,3.6c-.013-.063-.023-.128-.035-.192a0,0,0,0,0,0,0c.012-.272.034-.547.061-.823.053-.541.124-1.084.2-1.627.16-1.086.354-2.17.569-3.25.432-2.159.942-4.306,1.549-6.416a30.071,30.071,0,0,1,1.058-3.1,8.332,8.332,0,0,1,.72-1.4,1.8,1.8,0,0,1,.42-.472c.007.013.015.026.022.043a2.546,2.546,0,0,1,.174.668c.04.252.063.517.081.784.035.534.046,1.079.051,1.626s0,1.1-.008,1.649l-.043,1.66A58.041,58.041,0,0,0,63.6-.545c.056.564.122,1.129.2,1.7s.195,1.135.32,1.706a15.186,15.186,0,0,0,.492,1.719,7.58,7.58,0,0,0,.826,1.731,5.155,5.155,0,0,0,.319.421,4.648,4.648,0,0,0,.4.4,3.05,3.05,0,0,0,1.057.622,2.526,2.526,0,0,0,.633.122,1.835,1.835,0,0,0,.638-.057,1.721,1.721,0,0,0,.718-.37,1.239,1.239,0,0,0,.276-.353,1.264,1.264,0,0,0,.127-.369,1.692,1.692,0,0,0,0-.6c-.033-.172-.067-.327-.11-.477ZM80.583-.044a.379.379,0,0,0-.44.286q-.045.19-.1.377c-.062.242-.132.481-.213.715a5.149,5.149,0,0,1-.648,1.293,1.9,1.9,0,0,1-1.014.768,1.355,1.355,0,0,1-.576.027l-.036,0c-.011,0-.011,0-.017-.006a.078.078,0,0,1-.024-.013.215.215,0,0,1-.036-.032.718.718,0,0,1-.081-.122,2,2,0,0,1-.169-.511,4.9,4.9,0,0,1-.087-.666A11.193,11.193,0,0,1,77.156.618c.017-.27.041-.542.07-.814.009-.087.053-.393.106-.748A1.366,1.366,0,0,0,76.146-2.5l-.259-.031a.607.607,0,0,0-.675.525c-.016.126-.028.221-.028.221,0,.03-.006.06-.009.09a3.094,3.094,0,0,0-2.054-.789,2.778,2.778,0,0,0-1.53.452,2.452,2.452,0,0,0-.335.263c-.105.1-.211.178-.3.28a4.148,4.148,0,0,0-.489.617,4.042,4.042,0,0,0-.616,2.9,3.327,3.327,0,0,0,.635,1.5,2.869,2.869,0,0,0,1.475,1.005,2.763,2.763,0,0,0,.844.1,2.317,2.317,0,0,0,.761-.157,2.552,2.552,0,0,0,.67-.383,2.964,2.964,0,0,0,.516-.5,3.622,3.622,0,0,0,.563-1.152l0-.008a6.407,6.407,0,0,0,.239.841,3.131,3.131,0,0,0,.221.485,2.362,2.362,0,0,0,.366.508,1.874,1.874,0,0,0,.632.452,1.568,1.568,0,0,0,.415.114,1.35,1.35,0,0,0,.209.014c.032,0,.073,0,.1,0l.068-.009a2.842,2.842,0,0,0,1.028-.344,3.3,3.3,0,0,0,1.294-1.375,10.727,10.727,0,0,0,.647-1.533,9.913,9.913,0,0,0,.348-1.16.381.381,0,0,0-.3-.463ZM74.948,1.188a5.029,5.029,0,0,1-.275,1.02,2.16,2.16,0,0,1-.528.8,1.012,1.012,0,0,1-.76.264,1.711,1.711,0,0,1-.409-.069,1.046,1.046,0,0,1-.326-.165,2,2,0,0,1-.545-1.329A4.032,4.032,0,0,1,72.1.837c.013-.147.031-.293.052-.439a4.294,4.294,0,0,1,.1-.424,2.264,2.264,0,0,1,.15-.393c.014-.031.033-.059.046-.091l.023-.046c.009-.013.019-.024.028-.037.036-.049.077-.095.118-.144a1.743,1.743,0,0,1,.684-.444,1.611,1.611,0,0,1,.907-.048,1.523,1.523,0,0,1,.438.185A1.447,1.447,0,0,1,75-.717c.022.03.04.063.06.094a9.36,9.36,0,0,1-.113,1.811ZM88.16-.275a.379.379,0,0,0-.436.293q-.04.181-.085.359c-.058.236-.117.472-.189.7a5.991,5.991,0,0,1-.248.673,3.761,3.761,0,0,1-.329.618,2.351,2.351,0,0,1-.439.5,2.041,2.041,0,0,1-.253.184,1.6,1.6,0,0,1-.27.123c-.33.131-.864.087-.848-.042a1.285,1.285,0,0,1-.176-.4,3.576,3.576,0,0,1-.111-.612A9.1,9.1,0,0,1,84.759.737c.026-.475.075-.955.139-1.435L84.9-.74a1.365,1.365,0,0,0-1.189-1.547l-.549-.066a.3.3,0,0,0-.337.255c-.005.034-.01.067-.015.1a3.547,3.547,0,0,1-.438.171,3.6,3.6,0,0,1-.793.158h0c.065-.45.114-.906.135-1.376a4.889,4.889,0,0,0-.034-.895,2.008,2.008,0,0,0-.382-.987,1.252,1.252,0,0,0-.55-.395,1.423,1.423,0,0,0-.667-.07,1.376,1.376,0,0,0-.638.269,1.77,1.77,0,0,0-.418.456,2.59,2.59,0,0,0-.371.993,3.277,3.277,0,0,0-.011,1,2.79,2.79,0,0,0,.33.985,2.019,2.019,0,0,0,.346.456,1.7,1.7,0,0,0,.508.352,2.177,2.177,0,0,0,.843.165c-.053.273-.113.548-.179.829l0,.016a.381.381,0,0,0,.439.445.375.375,0,0,0,.308-.307l0-.009c.064-.344.133-.7.2-1.058.115-.024.229-.05.34-.079.286-.076.558-.174.828-.27l.124-.046c-.012.133-.021.266-.027.4a15.012,15.012,0,0,0,.007,1.61,9.471,9.471,0,0,0,.251,1.68,5.219,5.219,0,0,0,.316.91,2.433,2.433,0,0,0,.786.97,1.706,1.706,0,0,0,.748.291,1.435,1.435,0,0,0,.2.013h.1l.068-.008a2.525,2.525,0,0,0,.264-.045,2.8,2.8,0,0,0,.968-.412,2.769,2.769,0,0,0,.689-.673,6.447,6.447,0,0,0,.436-.751l.179-.369c.058-.122.108-.247.16-.37.105-.245.2-.493.282-.741A10.747,10.747,0,0,0,88.465.182a.381.381,0,0,0-.3-.457ZM80.834-1.716a1.2,1.2,0,0,1-.453-.2.956.956,0,0,1-.242-.367A2.345,2.345,0,0,1,80-2.857a2.549,2.549,0,0,1,.117-1.182.847.847,0,0,1,.094-.174A.274.274,0,0,1,80.3-4.3a.264.264,0,0,1,.14-.026.209.209,0,0,1,.123.05,1.02,1.02,0,0,1,.244.5,3.949,3.949,0,0,1,.1.73,7.9,7.9,0,0,1-.07,1.328ZM95.742-.275a.379.379,0,0,0-.436.293q-.04.181-.085.359c-.058.236-.117.472-.189.7a5.991,5.991,0,0,1-.248.673,3.761,3.761,0,0,1-.329.618,2.351,2.351,0,0,1-.439.5,2.041,2.041,0,0,1-.253.184,1.6,1.6,0,0,1-.27.123c-.33.131-.864.087-.848-.042a1.285,1.285,0,0,1-.176-.4,3.576,3.576,0,0,1-.111-.612A9.1,9.1,0,0,1,92.341.737c.026-.475.075-.955.139-1.435l.006-.041A1.365,1.365,0,0,0,91.3-2.287l-.549-.066a.3.3,0,0,0-.337.255c-.005.034-.01.067-.015.1a3.547,3.547,0,0,1-.438.171,3.6,3.6,0,0,1-.793.158h0c.065-.45.114-.906.135-1.376a4.889,4.889,0,0,0-.034-.895,2.008,2.008,0,0,0-.382-.987,1.252,1.252,0,0,0-.55-.395,1.423,1.423,0,0,0-.667-.07,1.376,1.376,0,0,0-.638.269,1.77,1.77,0,0,0-.418.456,2.59,2.59,0,0,0-.371.993,3.277,3.277,0,0,0-.011,1,2.79,2.79,0,0,0,.33.985,2.019,2.019,0,0,0,.346.456,1.7,1.7,0,0,0,.508.352,2.177,2.177,0,0,0,.843.165c-.053.273-.113.548-.179.829l0,.016a.381.381,0,0,0,.439.445.375.375,0,0,0,.308-.307l0-.009c.064-.344.133-.7.2-1.058.115-.024.229-.05.34-.079.286-.076.558-.174.828-.27l.124-.046c-.012.133-.021.266-.027.4A15.012,15.012,0,0,0,90.3.814a9.471,9.471,0,0,0,.251,1.68,5.219,5.219,0,0,0,.316.91,2.433,2.433,0,0,0,.786.97,1.706,1.706,0,0,0,.748.291,1.435,1.435,0,0,0,.2.013h.1l.068-.008a2.525,2.525,0,0,0,.264-.045,2.8,2.8,0,0,0,.968-.412,2.769,2.769,0,0,0,.689-.673,6.447,6.447,0,0,0,.436-.751l.179-.369c.058-.122.108-.247.16-.37.105-.245.2-.493.282-.741A10.747,10.747,0,0,0,96.047.182a.381.381,0,0,0-.3-.457ZM88.416-1.716a1.2,1.2,0,0,1-.453-.2.956.956,0,0,1-.242-.367,2.345,2.345,0,0,1-.137-.571A2.549,2.549,0,0,1,87.7-4.039a.847.847,0,0,1,.094-.174.274.274,0,0,1,.087-.086.264.264,0,0,1,.14-.026.209.209,0,0,1,.123.05,1.02,1.02,0,0,1,.244.5,3.949,3.949,0,0,1,.1.73,7.9,7.9,0,0,1-.07,1.328ZM100.964-.224a.371.371,0,0,0-.432.28,7.7,7.7,0,0,1-.977,2.424,2.819,2.819,0,0,1-.213.289,1.887,1.887,0,0,1-.243.253,1.716,1.716,0,0,1-.559.338,1.122,1.122,0,0,1-.571.051L97.9,3.4a.333.333,0,0,1-.034-.015.2.2,0,0,1-.042-.039.952.952,0,0,1-.078-.121,1.93,1.93,0,0,1-.167-.505,4.642,4.642,0,0,1-.09-.667A10.957,10.957,0,0,1,97.5.594c.032-.5.088-1,.156-1.495,0-.025.008-.057.014-.1a1.366,1.366,0,0,0-1.188-1.552l-.255-.031a.607.607,0,0,0-.676.529c-.049.4-.1.879-.112,1.037A16.006,16.006,0,0,0,95.428.642c.013.279.04.561.072.846a7.738,7.738,0,0,0,.143.869,6.331,6.331,0,0,0,.27.916,3.1,3.1,0,0,0,.237.489,2.3,2.3,0,0,0,.4.506,1.812,1.812,0,0,0,.676.416,1.578,1.578,0,0,0,.417.079,1.935,1.935,0,0,0,.2,0l.145-.023A2.569,2.569,0,0,0,99,4.3a4.531,4.531,0,0,0,1.2-1.383,9.842,9.842,0,0,0,1.054-2.68.374.374,0,0,0-.291-.461ZM96.843-3.146c.647.022,2.075-1.546,1.252-2.282-.485-.433-1.15.2-1.15.2a.7.7,0,0,0-1.062-.264C94.814-4.747,96.021-3.174,96.843-3.146ZM109.252-.218a.38.38,0,0,0-.443.3l0,.01a4.551,4.551,0,0,1-1.216,2.294,5.251,5.251,0,0,1-1.021.83,3.578,3.578,0,0,1-1.194.481,2.281,2.281,0,0,1-.613.03,1.572,1.572,0,0,1-.29-.049,2.793,2.793,0,0,1-.292-.1,1.821,1.821,0,0,1-.849-.716,1.827,1.827,0,0,1-.21-.455,3.621,3.621,0,0,1-.129-.459c-.023-.13-.046-.259-.06-.39.1.012.2.024.3.033a5.069,5.069,0,0,0,1.569-.086,2.481,2.481,0,0,0,.808-.349,1.966,1.966,0,0,0,.638-.717,1.981,1.981,0,0,0,.172-.458,1.732,1.732,0,0,0,.039-.524,1.741,1.741,0,0,0-.405-.973,2.387,2.387,0,0,0-.758-.6,2.971,2.971,0,0,0-.871-.285,3.153,3.153,0,0,0-.933-.01,3.624,3.624,0,0,0-.939.246A3.106,3.106,0,0,0,101.078-.86a4.186,4.186,0,0,0-.559,1.817,3.639,3.639,0,0,0,.381,1.856,3.491,3.491,0,0,0,.547.8,3.76,3.76,0,0,0,.751.613,3.983,3.983,0,0,0,1.721.549,4.022,4.022,0,0,0,.421.026c.141,0,.293,0,.434-.009a3.757,3.757,0,0,0,.82-.16A5.7,5.7,0,0,0,108.2,2.962a5.647,5.647,0,0,0,.867-1.271,5.8,5.8,0,0,0,.485-1.466h0a.38.38,0,0,0-.3-.443Zm-6.333.754a2.47,2.47,0,0,1,.074-.462,2.436,2.436,0,0,1,.333-.9.829.829,0,0,1,.184-.181.91.91,0,0,1,.111-.073c.04-.017.08-.037.123-.052A.907.907,0,0,1,104-1.19a1.706,1.706,0,0,1,.275-.007,1.58,1.58,0,0,1,.99.385.722.722,0,0,1,.213.388.755.755,0,0,1,0,.23,1.2,1.2,0,0,1-.067.249,1.243,1.243,0,0,1-.837.679,3.727,3.727,0,0,1-1.305.119c-.123-.009-.248-.021-.373-.036a2.464,2.464,0,0,1,.014-.279Zm17.7-.729a.38.38,0,0,0-.44.308V.122a6.883,6.883,0,0,1-1.46,3.166,3.084,3.084,0,0,1-.629.561,1.438,1.438,0,0,1-.707.25.549.549,0,0,1-.316-.048c-.024-.011-.046-.025-.069-.033a.183.183,0,0,1-.05-.026.268.268,0,0,1-.036-.044,1.549,1.549,0,0,1-.2-.43,5.093,5.093,0,0,1-.159-.726c-.036-.264-.081-.536-.1-.816s-.058-.563-.072-.852-.043-.578-.051-.87S116.3-.334,116.3-.63s.008-.591.021-.887c.012-.184.027-.369.044-.553.079-.041.156-.085.23-.13a5.687,5.687,0,0,0,.81-.609,7.389,7.389,0,0,0,.695-.7c.214-.246.424-.495.615-.759a8.117,8.117,0,0,0,1.016-1.7,4.116,4.116,0,0,0,.284-1.025,2.75,2.75,0,0,0,.024-.593,1.885,1.885,0,0,0-.151-.665,2.348,2.348,0,0,0-.411-.663,1.678,1.678,0,0,0-.624-.446,2.046,2.046,0,0,0-.8-.151,2.2,2.2,0,0,0-.825.174A3.129,3.129,0,0,0,116.1-8.5a4.952,4.952,0,0,0-.664.962,12.034,12.034,0,0,0-1.17,3.911c-.1.653-.161,1.306-.2,1.961q-.019.272-.033.544a3.211,3.211,0,0,0-.469-.53,2.256,2.256,0,0,0-1.252-.576,2.156,2.156,0,0,0-.369-.007l-.184.016-.18.031a2.974,2.974,0,0,0-.674.231c-.109.051-.2.1-.315.161a2.472,2.472,0,0,0-.352.236,3.732,3.732,0,0,0-.539.539,4.267,4.267,0,0,0-.965,2.558,3.922,3.922,0,0,0,.212,1.433,3.1,3.1,0,0,0,.922,1.355,2.544,2.544,0,0,0,.764.436,2.477,2.477,0,0,0,.807.145,2.19,2.19,0,0,0,.809-.108,2.227,2.227,0,0,0,.689-.367,3.174,3.174,0,0,0,.837-1.035,6.926,6.926,0,0,0,.463-1.095c0,.008,0,.016,0,.025a6.371,6.371,0,0,0,.318,1.022,5.035,5.035,0,0,0,.556,1.034,3.41,3.41,0,0,0,.448.517,2.128,2.128,0,0,0,.691.44,1.71,1.71,0,0,0,.443.1,1.11,1.11,0,0,0,.194,0,1.447,1.447,0,0,0,.174-.021,3.02,3.02,0,0,0,.639-.187,3.529,3.529,0,0,0,.952-.662c.129-.125.255-.246.368-.376s.219-.262.322-.394a8.471,8.471,0,0,0,1-1.692,7.25,7.25,0,0,0,.592-1.869A.38.38,0,0,0,120.618-.192Zm-4.1-3.089a18.434,18.434,0,0,1,.852-3.321c.1-.248.189-.491.29-.71a2.025,2.025,0,0,1,.342-.53.523.523,0,0,1,.463-.168.5.5,0,0,1,.258.112.724.724,0,0,1,.154.182,1.089,1.089,0,0,1,.146.63,3.128,3.128,0,0,1-.133.816,6.086,6.086,0,0,1-.763,1.593,6.544,6.544,0,0,1-1.169,1.351,4.11,4.11,0,0,1-.487.367C116.484-3.068,116.5-3.175,116.517-3.281ZM113.878.986a6.692,6.692,0,0,1-.911,1.9,2.034,2.034,0,0,1-.652.613.846.846,0,0,1-.332.09.873.873,0,0,1-.317-.067.818.818,0,0,1-.452-.424,2.22,2.22,0,0,1-.173-.664,7.531,7.531,0,0,1,.023-1.752c.02-.152.037-.306.068-.454a3.98,3.98,0,0,1,.1-.433,2.345,2.345,0,0,1,.132-.373c.024-.053.049-.1.072-.136a1.767,1.767,0,0,1,.155-.145,1.334,1.334,0,0,1,.7-.335,1.157,1.157,0,0,1,.765.2,2.312,2.312,0,0,1,.665.673A2.29,2.29,0,0,1,114,.25c0,.021,0,.041,0,.062q.005.125.01.25C113.966.7,113.924.846,113.878.986Z" transform="translate(207 302)" fill="#568779"/>
    <g id="Group_1091" data-name="Group 1091" transform="translate(0 296)">
      <line id="Line_49-2" data-name="Line 49" y1="0.059" x2="60.5" transform="translate(0 2.5)" fill="none" stroke="#195141" stroke-linecap="round" stroke-width="1"/>
      <circle id="Ellipse_112-2" data-name="Ellipse 112" cx="2.5" cy="2.5" r="2.5" transform="translate(58)" fill="#1f604e"/>
    </g>
  </g>
</svg>
